  0
SECTION
  2
BLOCKS
  0
ENDSEC
  0
SECTION
  2
ENTITIES
  0
LINE
  8
0
 10
54.9373
 20
0.234207
 11
54.9257
 21
0.475555
  0
LINE
  8
0
 10
54.9257
 20
0.475555
 11
54.9202
 21
0.723221
  0
LINE
  8
0
 10
54.9202
 20
0.723221
 11
54.9199
 21
0.976364
  0
LINE
  8
0
 10
54.9199
 20
0.976364
 11
54.9238
 21
1.23412
  0
LINE
  8
0
 10
54.9238
 20
1.23412
 11
54.931
 21
1.49562
  0
LINE
  8
0
 10
54.931
 20
1.49562
 11
54.9407
 21
1.76001
  0
LINE
  8
0
 10
54.9407
 20
1.76001
 11
54.9519
 21
2.02644
  0
LINE
  8
0
 10
54.9519
 20
2.02644
 11
54.9637
 21
2.29405
  0
LINE
  8
0
 10
54.9637
 20
2.29405
 11
54.9751
 21
2.562
  0
LINE
  8
0
 10
54.9751
 20
2.562
 11
54.9854
 21
2.82939
  0
LINE
  8
0
 10
54.9854
 20
2.82939
 11
54.9936
 21
3.09538
  0
LINE
  8
0
 10
54.9936
 20
3.09538
 11
54.9987
 21
3.35913
  0
LINE
  8
0
 10
54.9987
 20
3.35913
 11
54.9999
 21
3.61977
  0
LINE
  8
0
 10
54.9999
 20
3.61977
 11
54.9962
 21
3.87643
  0
LINE
  8
0
 10
54.9962
 20
3.87643
 11
54.9868
 21
4.12828
  0
LINE
  8
0
 10
54.9868
 20
4.12828
 11
54.9707
 21
4.37444
  0
LINE
  8
0
 10
54.9707
 20
4.37444
 11
54.947
 21
4.61404
  0
LINE
  8
0
 10
54.947
 20
4.61404
 11
54.9149
 21
4.84627
  0
LINE
  8
0
 10
54.9149
 20
4.84627
 11
54.8733
 21
5.07022
  0
LINE
  8
0
 10
54.8733
 20
5.07022
 11
54.8569
 21
5.12892
  0
LINE
  8
0
 10
54.8569
 20
5.12892
 11
54.8375
 21
5.18837
  0
LINE
  8
0
 10
54.8375
 20
5.18837
 11
54.8154
 21
5.24834
  0
LINE
  8
0
 10
54.8154
 20
5.24834
 11
54.7905
 21
5.30856
  0
LINE
  8
0
 10
54.7905
 20
5.30856
 11
54.763
 21
5.36885
  0
LINE
  8
0
 10
54.763
 20
5.36885
 11
54.7332
 21
5.42891
  0
LINE
  8
0
 10
54.7332
 20
5.42891
 11
54.701
 21
5.48854
  0
LINE
  8
0
 10
54.701
 20
5.48854
 11
54.6667
 21
5.54749
  0
LINE
  8
0
 10
54.6667
 20
5.54749
 11
54.6303
 21
5.6055
  0
LINE
  8
0
 10
54.6303
 20
5.6055
 11
54.592
 21
5.66235
  0
LINE
  8
0
 10
54.592
 20
5.66235
 11
54.5519
 21
5.7178
  0
LINE
  8
0
 10
54.5519
 20
5.7178
 11
54.5101
 21
5.77161
  0
LINE
  8
0
 10
54.5101
 20
5.77161
 11
54.4668
 21
5.82352
  0
LINE
  8
0
 10
54.4668
 20
5.82352
 11
54.4221
 21
5.87332
  0
LINE
  8
0
 10
54.4221
 20
5.87332
 11
54.3761
 21
5.92076
  0
LINE
  8
0
 10
54.3761
 20
5.92076
 11
54.3289
 21
5.96559
  0
LINE
  8
0
 10
54.3289
 20
5.96559
 11
54.2808
 21
6.00758
  0
LINE
  8
0
 10
54.2808
 20
6.00758
 11
54.2317
 21
6.04648
  0
LINE
  8
0
 10
54.2317
 20
6.04648
 11
54.1819
 21
6.08206
  0
LINE
  8
0
 10
54.1819
 20
6.08206
 11
54.1314
 21
6.11409
  0
LINE
  8
0
 10
54.1314
 20
6.11409
 11
54.0973
 21
6.13255
  0
LINE
  8
0
 10
54.0973
 20
6.13255
 11
54.0597
 21
6.14912
  0
LINE
  8
0
 10
54.0597
 20
6.14912
 11
54.0172
 21
6.16394
  0
LINE
  8
0
 10
54.0172
 20
6.16394
 11
53.9685
 21
6.17711
  0
LINE
  8
0
 10
53.9685
 20
6.17711
 11
53.9123
 21
6.18877
  0
LINE
  8
0
 10
53.9123
 20
6.18877
 11
53.8473
 21
6.19901
  0
LINE
  8
0
 10
53.8473
 20
6.19901
 11
53.7721
 21
6.20798
  0
LINE
  8
0
 10
53.7721
 20
6.20798
 11
53.6855
 21
6.21579
  0
LINE
  8
0
 10
53.6855
 20
6.21579
 11
53.5861
 21
6.22255
  0
LINE
  8
0
 10
53.5861
 20
6.22255
 11
53.4726
 21
6.22841
  0
LINE
  8
0
 10
53.4726
 20
6.22841
 11
53.3438
 21
6.23346
  0
LINE
  8
0
 10
53.3438
 20
6.23346
 11
53.1982
 21
6.23784
  0
LINE
  8
0
 10
53.1982
 20
6.23784
 11
53.0345
 21
6.24167
  0
LINE
  8
0
 10
53.0345
 20
6.24167
 11
52.8516
 21
6.24507
  0
LINE
  8
0
 10
52.8516
 20
6.24507
 11
52.6479
 21
6.24815
  0
LINE
  8
0
 10
52.6479
 20
6.24815
 11
52.4223
 21
6.25104
  0
LINE
  8
0
 10
52.4223
 20
6.25104
 11
52.1734
 21
6.25386
  0
LINE
  8
0
 10
52.1734
 20
6.25386
 11
51.8999
 21
6.25674
  0
LINE
  8
0
 10
51.8999
 20
6.25674
 11
51.2737
 21
6.26312
  0
LINE
  8
0
 10
51.2737
 20
6.26312
 11
48.7732
 21
6.26312
  0
LINE
  8
0
 10
48.7732
 20
6.26312
 11
48.6336
 21
7.5912
  0
LINE
  8
0
 10
48.6336
 20
7.5912
 11
48.5184
 21
8.64757
  0
LINE
  8
0
 10
48.5184
 20
8.64757
 11
48.3959
 21
9.68762
  0
LINE
  8
0
 10
48.3959
 20
9.68762
 11
48.2648
 21
10.7124
  0
LINE
  8
0
 10
48.2648
 20
10.7124
 11
48.1238
 21
11.723
  0
LINE
  8
0
 10
48.1238
 20
11.723
 11
47.9714
 21
12.7205
  0
LINE
  8
0
 10
47.9714
 20
12.7205
 11
47.8064
 21
13.706
  0
LINE
  8
0
 10
47.8064
 20
13.706
 11
47.6273
 21
14.6805
  0
LINE
  8
0
 10
47.6273
 20
14.6805
 11
47.433
 21
15.6452
  0
LINE
  8
0
 10
47.433
 20
15.6452
 11
47.2219
 21
16.601
  0
LINE
  8
0
 10
47.2219
 20
16.601
 11
46.9928
 21
17.5491
  0
LINE
  8
0
 10
46.9928
 20
17.5491
 11
46.7444
 21
18.4906
  0
LINE
  8
0
 10
46.7444
 20
18.4906
 11
46.4752
 21
19.4265
  0
LINE
  8
0
 10
46.4752
 20
19.4265
 11
46.184
 21
20.3579
  0
LINE
  8
0
 10
46.184
 20
20.3579
 11
45.8694
 21
21.2859
  0
LINE
  8
0
 10
45.8694
 20
21.2859
 11
45.53
 21
22.2115
  0
LINE
  8
0
 10
45.53
 20
22.2115
 11
45.1646
 21
23.1359
  0
LINE
  8
0
 10
45.1646
 20
23.1359
 11
44.7717
 21
24.0601
  0
LINE
  8
0
 10
44.7717
 20
24.0601
 11
44.3501
 21
24.9852
  0
LINE
  8
0
 10
44.3501
 20
24.9852
 11
43.8983
 21
25.9122
  0
LINE
  8
0
 10
43.8983
 20
25.9122
 11
43.4151
 21
26.8422
  0
LINE
  8
0
 10
43.4151
 20
26.8422
 11
43.3522
 21
26.9573
  0
LINE
  8
0
 10
43.3522
 20
26.9573
 11
43.2748
 21
27.0948
  0
LINE
  8
0
 10
43.2748
 20
27.0948
 11
43.1838
 21
27.2534
  0
LINE
  8
0
 10
43.1838
 20
27.2534
 11
43.08
 21
27.432
  0
LINE
  8
0
 10
43.08
 20
27.432
 11
42.9642
 21
27.6291
  0
LINE
  8
0
 10
42.9642
 20
27.6291
 11
42.8371
 21
27.8435
  0
LINE
  8
0
 10
42.8371
 20
27.8435
 11
42.6997
 21
28.074
  0
LINE
  8
0
 10
42.6997
 20
28.074
 11
42.5528
 21
28.3192
  0
LINE
  8
0
 10
42.5528
 20
28.3192
 11
42.3971
 21
28.5778
  0
LINE
  8
0
 10
42.3971
 20
28.5778
 11
42.2335
 21
28.8486
  0
LINE
  8
0
 10
42.2335
 20
28.8486
 11
42.0627
 21
29.1302
  0
LINE
  8
0
 10
42.0627
 20
29.1302
 11
41.8857
 21
29.4215
  0
LINE
  8
0
 10
41.8857
 20
29.4215
 11
41.7032
 21
29.7211
  0
LINE
  8
0
 10
41.7032
 20
29.7211
 11
41.516
 21
30.0276
  0
LINE
  8
0
 10
41.516
 20
30.0276
 11
41.325
 21
30.34
  0
LINE
  8
0
 10
41.325
 20
30.34
 11
41.131
 21
30.6567
  0
LINE
  8
0
 10
41.131
 20
30.6567
 11
40.9347
 21
30.9767
  0
LINE
  8
0
 10
40.9347
 20
30.9767
 11
40.737
 21
31.2985
  0
LINE
  8
0
 10
40.737
 20
31.2985
 11
40.5388
 21
31.6209
  0
LINE
  8
0
 10
40.5388
 20
31.6209
 11
40.3407
 21
31.9426
  0
LINE
  8
0
 10
40.3407
 20
31.9426
 11
39.8947
 21
32.6689
  0
LINE
  8
0
 10
39.8947
 20
32.6689
 11
39.4841
 21
33.3423
  0
LINE
  8
0
 10
39.4841
 20
33.3423
 11
39.1072
 21
33.9661
  0
LINE
  8
0
 10
39.1072
 20
33.9661
 11
38.7621
 21
34.5437
  0
LINE
  8
0
 10
38.7621
 20
34.5437
 11
38.4471
 21
35.0785
  0
LINE
  8
0
 10
38.4471
 20
35.0785
 11
38.1604
 21
35.5739
  0
LINE
  8
0
 10
38.1604
 20
35.5739
 11
37.9003
 21
36.0333
  0
LINE
  8
0
 10
37.9003
 20
36.0333
 11
37.665
 21
36.46
  0
LINE
  8
0
 10
37.665
 20
36.46
 11
37.4528
 21
36.8574
  0
LINE
  8
0
 10
37.4528
 20
36.8574
 11
37.2618
 21
37.2289
  0
LINE
  8
0
 10
37.2618
 20
37.2289
 11
37.0903
 21
37.5779
  0
LINE
  8
0
 10
37.0903
 20
37.5779
 11
36.9366
 21
37.9077
  0
LINE
  8
0
 10
36.9366
 20
37.9077
 11
36.7988
 21
38.2218
  0
LINE
  8
0
 10
36.7988
 20
38.2218
 11
36.6753
 21
38.5235
  0
LINE
  8
0
 10
36.6753
 20
38.5235
 11
36.5642
 21
38.8163
  0
LINE
  8
0
 10
36.5642
 20
38.8163
 11
36.4637
 21
39.1033
  0
LINE
  8
0
 10
36.4637
 20
39.1033
 11
36.3722
 21
39.3882
  0
LINE
  8
0
 10
36.3722
 20
39.3882
 11
36.2878
 21
39.6742
  0
LINE
  8
0
 10
36.2878
 20
39.6742
 11
36.2088
 21
39.9648
  0
LINE
  8
0
 10
36.2088
 20
39.9648
 11
36.1334
 21
40.2632
  0
LINE
  8
0
 10
36.1334
 20
40.2632
 11
36.0943
 21
40.4757
  0
LINE
  8
0
 10
36.0943
 20
40.4757
 11
36.058
 21
40.6875
  0
LINE
  8
0
 10
36.058
 20
40.6875
 11
36.0247
 21
40.8986
  0
LINE
  8
0
 10
36.0247
 20
40.8986
 11
35.9947
 21
41.1089
  0
LINE
  8
0
 10
35.9947
 20
41.1089
 11
35.9681
 21
41.3183
  0
LINE
  8
0
 10
35.9681
 20
41.3183
 11
35.9451
 21
41.5266
  0
LINE
  8
0
 10
35.9451
 20
41.5266
 11
35.9259
 21
41.734
  0
LINE
  8
0
 10
35.9259
 20
41.734
 11
35.9108
 21
41.9402
  0
LINE
  8
0
 10
35.9108
 20
41.9402
 11
35.8998
 21
42.1452
  0
LINE
  8
0
 10
35.8998
 20
42.1452
 11
35.8933
 21
42.3489
  0
LINE
  8
0
 10
35.8933
 20
42.3489
 11
35.8913
 21
42.5513
  0
LINE
  8
0
 10
35.8913
 20
42.5513
 11
35.8941
 21
42.7522
  0
LINE
  8
0
 10
35.8941
 20
42.7522
 11
35.9018
 21
42.9517
  0
LINE
  8
0
 10
35.9018
 20
42.9517
 11
35.9148
 21
43.1495
  0
LINE
  8
0
 10
35.9148
 20
43.1495
 11
35.933
 21
43.3457
  0
LINE
  8
0
 10
35.933
 20
43.3457
 11
35.9569
 21
43.5402
  0
LINE
  8
0
 10
35.9569
 20
43.5402
 11
35.9864
 21
43.7328
  0
LINE
  8
0
 10
35.9864
 20
43.7328
 11
36.0219
 21
43.9236
  0
LINE
  8
0
 10
36.0219
 20
43.9236
 11
36.0636
 21
44.1124
  0
LINE
  8
0
 10
36.0636
 20
44.1124
 11
36.1115
 21
44.2992
  0
LINE
  8
0
 10
36.1115
 20
44.2992
 11
36.1829
 21
44.5417
  0
LINE
  8
0
 10
36.1829
 20
44.5417
 11
36.2609
 21
44.779
  0
LINE
  8
0
 10
36.2609
 20
44.779
 11
36.3463
 21
45.0127
  0
LINE
  8
0
 10
36.3463
 20
45.0127
 11
36.4398
 21
45.2443
  0
LINE
  8
0
 10
36.4398
 20
45.2443
 11
36.5424
 21
45.4753
  0
LINE
  8
0
 10
36.5424
 20
45.4753
 11
36.6547
 21
45.7075
  0
LINE
  8
0
 10
36.6547
 20
45.7075
 11
36.7777
 21
45.9423
  0
LINE
  8
0
 10
36.7777
 20
45.9423
 11
36.912
 21
46.1814
  0
LINE
  8
0
 10
36.912
 20
46.1814
 11
37.0586
 21
46.4263
  0
LINE
  8
0
 10
37.0586
 20
46.4263
 11
37.2182
 21
46.6785
  0
LINE
  8
0
 10
37.2182
 20
46.6785
 11
37.3915
 21
46.9398
  0
LINE
  8
0
 10
37.3915
 20
46.9398
 11
37.5795
 21
47.2116
  0
LINE
  8
0
 10
37.5795
 20
47.2116
 11
37.7829
 21
47.4956
  0
LINE
  8
0
 10
37.7829
 20
47.4956
 11
38.0025
 21
47.7933
  0
LINE
  8
0
 10
38.0025
 20
47.7933
 11
38.2392
 21
48.1063
  0
LINE
  8
0
 10
38.2392
 20
48.1063
 11
38.4936
 21
48.4362
  0
LINE
  8
0
 10
38.4936
 20
48.4362
 11
38.7667
 21
48.7845
  0
LINE
  8
0
 10
38.7667
 20
48.7845
 11
39.0591
 21
49.1529
  0
LINE
  8
0
 10
39.0591
 20
49.1529
 11
39.3719
 21
49.5429
  0
LINE
  8
0
 10
39.3719
 20
49.5429
 11
39.7056
 21
49.9561
  0
LINE
  8
0
 10
39.7056
 20
49.9561
 11
40.2524
 21
50.6381
  0
LINE
  8
0
 10
40.2524
 20
50.6381
 11
40.7674
 21
51.2947
  0
LINE
  8
0
 10
40.7674
 20
51.2947
 11
41.2521
 21
51.9287
  0
LINE
  8
0
 10
41.2521
 20
51.9287
 11
41.7082
 21
52.5426
  0
LINE
  8
0
 10
41.7082
 20
52.5426
 11
42.1373
 21
53.1389
  0
LINE
  8
0
 10
42.1373
 20
53.1389
 11
42.541
 21
53.7203
  0
LINE
  8
0
 10
42.541
 20
53.7203
 11
42.921
 21
54.2893
  0
LINE
  8
0
 10
42.921
 20
54.2893
 11
43.2788
 21
54.8485
  0
LINE
  8
0
 10
43.2788
 20
54.8485
 11
43.6162
 21
55.4006
  0
LINE
  8
0
 10
43.6162
 20
55.4006
 11
43.9346
 21
55.948
  0
LINE
  8
0
 10
43.9346
 20
55.948
 11
44.2358
 21
56.4934
  0
LINE
  8
0
 10
44.2358
 20
56.4934
 11
44.5213
 21
57.0393
  0
LINE
  8
0
 10
44.5213
 20
57.0393
 11
44.7929
 21
57.5884
  0
LINE
  8
0
 10
44.7929
 20
57.5884
 11
45.052
 21
58.1432
  0
LINE
  8
0
 10
45.052
 20
58.1432
 11
45.3004
 21
58.7063
  0
LINE
  8
0
 10
45.3004
 20
58.7063
 11
45.5396
 21
59.2803
  0
LINE
  8
0
 10
45.5396
 20
59.2803
 11
45.7714
 21
59.8678
  0
LINE
  8
0
 10
45.7714
 20
59.8678
 11
45.9972
 21
60.4713
  0
LINE
  8
0
 10
45.9972
 20
60.4713
 11
46.2187
 21
61.0934
  0
LINE
  8
0
 10
46.2187
 20
61.0934
 11
46.4376
 21
61.7368
  0
LINE
  8
0
 10
46.4376
 20
61.7368
 11
46.6428
 21
62.3768
  0
LINE
  8
0
 10
46.6428
 20
62.3768
 11
46.841
 21
63.0427
  0
LINE
  8
0
 10
46.841
 20
63.0427
 11
47.0317
 21
63.7323
  0
LINE
  8
0
 10
47.0317
 20
63.7323
 11
47.2146
 21
64.4437
  0
LINE
  8
0
 10
47.2146
 20
64.4437
 11
47.3893
 21
65.1748
  0
LINE
  8
0
 10
47.3893
 20
65.1748
 11
47.5555
 21
65.9235
  0
LINE
  8
0
 10
47.5555
 20
65.9235
 11
47.7127
 21
66.6877
  0
LINE
  8
0
 10
47.7127
 20
66.6877
 11
47.8606
 21
67.4653
  0
LINE
  8
0
 10
47.8606
 20
67.4653
 11
47.9988
 21
68.2544
  0
LINE
  8
0
 10
47.9988
 20
68.2544
 11
48.127
 21
69.0528
  0
LINE
  8
0
 10
48.127
 20
69.0528
 11
48.2447
 21
69.8585
  0
LINE
  8
0
 10
48.2447
 20
69.8585
 11
48.3516
 21
70.6694
  0
LINE
  8
0
 10
48.3516
 20
70.6694
 11
48.4474
 21
71.4834
  0
LINE
  8
0
 10
48.4474
 20
71.4834
 11
48.5316
 21
72.2985
  0
LINE
  8
0
 10
48.5316
 20
72.2985
 11
48.6038
 21
73.1127
  0
LINE
  8
0
 10
48.6038
 20
73.1127
 11
48.6638
 21
73.9238
  0
LINE
  8
0
 10
48.6638
 20
73.9238
 11
48.7111
 21
74.7298
  0
LINE
  8
0
 10
48.7111
 20
74.7298
 11
48.7453
 21
75.5286
  0
LINE
  8
0
 10
48.7453
 20
75.5286
 11
48.7661
 21
76.3182
  0
LINE
  8
0
 10
48.7661
 20
76.3182
 11
48.7732
 21
77.0965
  0
LINE
  8
0
 10
48.7732
 20
77.0965
 11
48.7732
 21
78.2894
  0
LINE
  8
0
 10
48.7732
 20
78.2894
 11
51.3119
 21
78.2894
  0
LINE
  8
0
 10
51.3119
 20
78.2894
 11
51.6347
 21
78.2896
  0
LINE
  8
0
 10
51.6347
 20
78.2896
 11
51.9306
 21
78.2901
  0
LINE
  8
0
 10
51.9306
 20
78.2901
 11
52.2007
 21
78.291
  0
LINE
  8
0
 10
52.2007
 20
78.291
 11
52.4464
 21
78.2925
  0
LINE
  8
0
 10
52.4464
 20
78.2925
 11
52.669
 21
78.2945
  0
LINE
  8
0
 10
52.669
 20
78.2945
 11
52.8699
 21
78.2971
  0
LINE
  8
0
 10
52.8699
 20
78.2971
 11
53.0503
 21
78.3005
  0
LINE
  8
0
 10
53.0503
 20
78.3005
 11
53.2115
 21
78.3046
  0
LINE
  8
0
 10
53.2115
 20
78.3046
 11
53.3549
 21
78.3096
  0
LINE
  8
0
 10
53.3549
 20
78.3096
 11
53.4819
 21
78.3154
  0
LINE
  8
0
 10
53.4819
 20
78.3154
 11
53.5936
 21
78.3223
  0
LINE
  8
0
 10
53.5936
 20
78.3223
 11
53.6914
 21
78.3301
  0
LINE
  8
0
 10
53.6914
 20
78.3301
 11
53.7766
 21
78.3391
  0
LINE
  8
0
 10
53.7766
 20
78.3391
 11
53.8506
 21
78.3492
  0
LINE
  8
0
 10
53.8506
 20
78.3492
 11
53.9146
 21
78.3606
  0
LINE
  8
0
 10
53.9146
 20
78.3606
 11
53.97
 21
78.3733
  0
LINE
  8
0
 10
53.97
 20
78.3733
 11
54.0181
 21
78.3874
  0
LINE
  8
0
 10
54.0181
 20
78.3874
 11
54.0601
 21
78.4029
  0
LINE
  8
0
 10
54.0601
 20
78.4029
 11
54.0974
 21
78.42
  0
LINE
  8
0
 10
54.0974
 20
78.42
 11
54.1314
 21
78.4386
  0
LINE
  8
0
 10
54.1314
 20
78.4386
 11
54.1819
 21
78.4706
  0
LINE
  8
0
 10
54.1819
 20
78.4706
 11
54.2317
 21
78.5062
  0
LINE
  8
0
 10
54.2317
 20
78.5062
 11
54.2808
 21
78.5451
  0
LINE
  8
0
 10
54.2808
 20
78.5451
 11
54.3289
 21
78.5871
  0
LINE
  8
0
 10
54.3289
 20
78.5871
 11
54.3761
 21
78.6319
  0
LINE
  8
0
 10
54.3761
 20
78.6319
 11
54.4221
 21
78.6794
  0
LINE
  8
0
 10
54.4221
 20
78.6794
 11
54.4668
 21
78.7292
  0
LINE
  8
0
 10
54.4668
 20
78.7292
 11
54.5101
 21
78.7811
  0
LINE
  8
0
 10
54.5101
 20
78.7811
 11
54.5519
 21
78.8349
  0
LINE
  8
0
 10
54.5519
 20
78.8349
 11
54.592
 21
78.8903
  0
LINE
  8
0
 10
54.592
 20
78.8903
 11
54.6303
 21
78.9472
  0
LINE
  8
0
 10
54.6303
 20
78.9472
 11
54.6667
 21
79.0052
  0
LINE
  8
0
 10
54.6667
 20
79.0052
 11
54.701
 21
79.0641
  0
LINE
  8
0
 10
54.701
 20
79.0641
 11
54.7332
 21
79.1238
  0
LINE
  8
0
 10
54.7332
 20
79.1238
 11
54.763
 21
79.1838
  0
LINE
  8
0
 10
54.763
 20
79.1838
 11
54.7905
 21
79.2441
  0
LINE
  8
0
 10
54.7905
 20
79.2441
 11
54.8154
 21
79.3044
  0
LINE
  8
0
 10
54.8154
 20
79.3044
 11
54.8375
 21
79.3643
  0
LINE
  8
0
 10
54.8375
 20
79.3643
 11
54.8569
 21
79.4238
  0
LINE
  8
0
 10
54.8569
 20
79.4238
 11
54.8733
 21
79.4825
  0
LINE
  8
0
 10
54.8733
 20
79.4825
 11
54.89
 21
79.7563
  0
LINE
  8
0
 10
54.89
 20
79.7563
 11
54.9045
 21
80.0291
  0
LINE
  8
0
 10
54.9045
 20
80.0291
 11
54.917
 21
80.3012
  0
LINE
  8
0
 10
54.917
 20
80.3012
 11
54.9275
 21
80.5728
  0
LINE
  8
0
 10
54.9275
 20
80.5728
 11
54.9363
 21
80.8439
  0
LINE
  8
0
 10
54.9363
 20
80.8439
 11
54.9435
 21
81.115
  0
LINE
  8
0
 10
54.9435
 20
81.115
 11
54.9492
 21
81.386
  0
LINE
  8
0
 10
54.9492
 20
81.386
 11
54.9536
 21
81.6573
  0
LINE
  8
0
 10
54.9536
 20
81.6573
 11
54.9569
 21
81.9289
  0
LINE
  8
0
 10
54.9569
 20
81.9289
 11
54.959
 21
82.2012
  0
LINE
  8
0
 10
54.959
 20
82.2012
 11
54.9603
 21
82.4743
  0
LINE
  8
0
 10
54.9603
 20
82.4743
 11
54.9609
 21
82.7484
  0
LINE
  8
0
 10
54.9609
 20
82.7484
 11
54.9608
 21
83.0236
  0
LINE
  8
0
 10
54.9608
 20
83.0236
 11
54.9603
 21
83.3003
  0
LINE
  8
0
 10
54.9603
 20
83.3003
 11
54.9595
 21
83.5785
  0
LINE
  8
0
 10
54.9595
 20
83.5785
 11
54.9575
 21
84.1404
  0
LINE
  8
0
 10
54.9575
 20
84.1404
 11
54.9566
 21
84.4246
  0
LINE
  8
0
 10
54.9566
 20
84.4246
 11
54.956
 21
84.711
  0
LINE
  8
0
 10
54.956
 20
84.711
 11
54.9558
 21
85
  0
LINE
  8
0
 10
54.9558
 20
85
 11
0.0442963
 21
85
  0
LINE
  8
0
 10
0.0442963
 20
85
 11
0.0440979
 21
84.711
  0
LINE
  8
0
 10
0.0440979
 20
84.711
 11
0.0434875
 21
84.4246
  0
LINE
  8
0
 10
0.0434875
 20
84.4246
 11
0.0425873
 21
84.1404
  0
LINE
  8
0
 10
0.0425873
 20
84.1404
 11
0.0405884
 21
83.5785
  0
LINE
  8
0
 10
0.0405884
 20
83.5785
 11
0.0397644
 21
83.3003
  0
LINE
  8
0
 10
0.0397644
 20
83.3003
 11
0.0392456
 21
83.0236
  0
LINE
  8
0
 10
0.0392456
 20
83.0236
 11
0.0391846
 21
82.7484
  0
LINE
  8
0
 10
0.0391846
 20
82.7484
 11
0.0397186
 21
82.4743
  0
LINE
  8
0
 10
0.0397186
 20
82.4743
 11
0.0410004
 21
82.2012
  0
LINE
  8
0
 10
0.0410004
 20
82.2012
 11
0.0431671
 21
81.9289
  0
LINE
  8
0
 10
0.0431671
 20
81.9289
 11
0.0463715
 21
81.6573
  0
LINE
  8
0
 10
0.0463715
 20
81.6573
 11
0.0507507
 21
81.386
  0
LINE
  8
0
 10
0.0507507
 20
81.386
 11
0.0564728
 21
81.115
  0
LINE
  8
0
 10
0.0564728
 20
81.115
 11
0.0636444
 21
80.8439
  0
LINE
  8
0
 10
0.0636444
 20
80.8439
 11
0.0724335
 21
80.5728
  0
LINE
  8
0
 10
0.0724335
 20
80.5728
 11
0.0829926
 21
80.3012
  0
LINE
  8
0
 10
0.0829926
 20
80.3012
 11
0.0954437
 21
80.0291
  0
LINE
  8
0
 10
0.0954437
 20
80.0291
 11
0.109955
 21
79.7563
  0
LINE
  8
0
 10
0.109955
 20
79.7563
 11
0.126663
 21
79.4825
  0
LINE
  8
0
 10
0.126663
 20
79.4825
 11
0.143066
 21
79.4238
  0
LINE
  8
0
 10
0.143066
 20
79.4238
 11
0.16243
 21
79.3643
  0
LINE
  8
0
 10
0.16243
 20
79.3643
 11
0.184616
 21
79.3044
  0
LINE
  8
0
 10
0.184616
 20
79.3044
 11
0.209488
 21
79.2441
  0
LINE
  8
0
 10
0.209488
 20
79.2441
 11
0.236908
 21
79.1838
  0
LINE
  8
0
 10
0.236908
 20
79.1838
 11
0.266769
 21
79.1238
  0
LINE
  8
0
 10
0.266769
 20
79.1238
 11
0.298935
 21
79.0641
  0
LINE
  8
0
 10
0.298935
 20
79.0641
 11
0.333282
 21
79.0052
  0
LINE
  8
0
 10
0.333282
 20
79.0052
 11
0.369675
 21
78.9472
  0
LINE
  8
0
 10
0.369675
 20
78.9472
 11
0.407974
 21
78.8903
  0
LINE
  8
0
 10
0.407974
 20
78.8903
 11
0.44809
 21
78.8349
  0
LINE
  8
0
 10
0.44809
 20
78.8349
 11
0.489853
 21
78.7811
  0
LINE
  8
0
 10
0.489853
 20
78.7811
 11
0.533157
 21
78.7292
  0
LINE
  8
0
 10
0.533157
 20
78.7292
 11
0.577881
 21
78.6794
  0
LINE
  8
0
 10
0.577881
 20
78.6794
 11
0.623871
 21
78.6319
  0
LINE
  8
0
 10
0.623871
 20
78.6319
 11
0.671021
 21
78.5871
  0
LINE
  8
0
 10
0.671021
 20
78.5871
 11
0.719193
 21
78.5451
  0
LINE
  8
0
 10
0.719193
 20
78.5451
 11
0.768265
 21
78.5062
  0
LINE
  8
0
 10
0.768265
 20
78.5062
 11
0.8181
 21
78.4706
  0
LINE
  8
0
 10
0.8181
 20
78.4706
 11
0.868591
 21
78.4386
  0
LINE
  8
0
 10
0.868591
 20
78.4386
 11
0.902542
 21
78.42
  0
LINE
  8
0
 10
0.902542
 20
78.42
 11
0.93988
 21
78.4029
  0
LINE
  8
0
 10
0.93988
 20
78.4029
 11
0.981918
 21
78.3874
  0
LINE
  8
0
 10
0.981918
 20
78.3874
 11
1.02997
 21
78.3733
  0
LINE
  8
0
 10
1.02997
 20
78.3733
 11
1.08534
 21
78.3606
  0
LINE
  8
0
 10
1.08534
 20
78.3606
 11
1.14937
 21
78.3492
  0
LINE
  8
0
 10
1.14937
 20
78.3492
 11
1.22334
 21
78.3391
  0
LINE
  8
0
 10
1.22334
 20
78.3391
 11
1.30858
 21
78.3301
  0
LINE
  8
0
 10
1.30858
 20
78.3301
 11
1.40639
 21
78.3223
  0
LINE
  8
0
 10
1.40639
 20
78.3223
 11
1.5181
 21
78.3154
  0
LINE
  8
0
 10
1.5181
 20
78.3154
 11
1.64502
 21
78.3096
  0
LINE
  8
0
 10
1.64502
 20
78.3096
 11
1.78844
 21
78.3046
  0
LINE
  8
0
 10
1.78844
 20
78.3046
 11
1.94971
 21
78.3005
  0
LINE
  8
0
 10
1.94971
 20
78.3005
 11
2.13011
 21
78.2971
  0
LINE
  8
0
 10
2.13011
 20
78.2971
 11
2.33096
 21
78.2945
  0
LINE
  8
0
 10
2.33096
 20
78.2945
 11
2.55359
 21
78.2925
  0
LINE
  8
0
 10
2.55359
 20
78.2925
 11
2.7993
 21
78.291
  0
LINE
  8
0
 10
2.7993
 20
78.291
 11
3.06941
 21
78.2901
  0
LINE
  8
0
 10
3.06941
 20
78.2901
 11
3.36522
 21
78.2896
  0
LINE
  8
0
 10
3.36522
 20
78.2896
 11
3.68805
 21
78.2894
  0
LINE
  8
0
 10
3.68805
 20
78.2894
 11
6.22681
 21
78.2894
  0
LINE
  8
0
 10
6.22681
 20
78.2894
 11
6.22681
 21
77.0965
  0
LINE
  8
0
 10
6.22681
 20
77.0965
 11
6.23383
 21
76.3182
  0
LINE
  8
0
 10
6.23383
 20
76.3182
 11
6.25464
 21
75.5286
  0
LINE
  8
0
 10
6.25464
 20
75.5286
 11
6.28888
 21
74.7298
  0
LINE
  8
0
 10
6.28888
 20
74.7298
 11
6.33617
 21
73.9238
  0
LINE
  8
0
 10
6.33617
 20
73.9238
 11
6.39613
 21
73.1127
  0
LINE
  8
0
 10
6.39613
 20
73.1127
 11
6.46838
 21
72.2985
  0
LINE
  8
0
 10
6.46838
 20
72.2985
 11
6.55258
 21
71.4834
  0
LINE
  8
0
 10
6.55258
 20
71.4834
 11
6.64833
 21
70.6694
  0
LINE
  8
0
 10
6.64833
 20
70.6694
 11
6.75525
 21
69.8585
  0
LINE
  8
0
 10
6.75525
 20
69.8585
 11
6.87297
 21
69.0528
  0
LINE
  8
0
 10
6.87297
 20
69.0528
 11
7.00113
 21
68.2544
  0
LINE
  8
0
 10
7.00113
 20
68.2544
 11
7.13936
 21
67.4653
  0
LINE
  8
0
 10
7.13936
 20
67.4653
 11
7.28725
 21
66.6877
  0
LINE
  8
0
 10
7.28725
 20
66.6877
 11
7.44447
 21
65.9235
  0
LINE
  8
0
 10
7.44447
 20
65.9235
 11
7.61061
 21
65.1748
  0
LINE
  8
0
 10
7.61061
 20
65.1748
 11
7.78534
 21
64.4437
  0
LINE
  8
0
 10
7.78534
 20
64.4437
 11
7.96823
 21
63.7323
  0
LINE
  8
0
 10
7.96823
 20
63.7323
 11
8.15895
 21
63.0427
  0
LINE
  8
0
 10
8.15895
 20
63.0427
 11
8.35712
 21
62.3768
  0
LINE
  8
0
 10
8.35712
 20
62.3768
 11
8.56235
 21
61.7368
  0
LINE
  8
0
 10
8.56235
 20
61.7368
 11
8.78123
 21
61.0934
  0
LINE
  8
0
 10
8.78123
 20
61.0934
 11
9.00279
 21
60.4713
  0
LINE
  8
0
 10
9.00279
 20
60.4713
 11
9.22861
 21
59.8678
  0
LINE
  8
0
 10
9.22861
 20
59.8678
 11
9.46033
 21
59.2803
  0
LINE
  8
0
 10
9.46033
 20
59.2803
 11
9.69957
 21
58.7063
  0
LINE
  8
0
 10
9.69957
 20
58.7063
 11
9.94797
 21
58.1432
  0
LINE
  8
0
 10
9.94797
 20
58.1432
 11
10.2071
 21
57.5884
  0
LINE
  8
0
 10
10.2071
 20
57.5884
 11
10.4787
 21
57.0393
  0
LINE
  8
0
 10
10.4787
 20
57.0393
 11
10.7642
 21
56.4934
  0
LINE
  8
0
 10
10.7642
 20
56.4934
 11
11.0654
 21
55.948
  0
LINE
  8
0
 10
11.0654
 20
55.948
 11
11.3839
 21
55.4006
  0
LINE
  8
0
 10
11.3839
 20
55.4006
 11
11.7212
 21
54.8485
  0
LINE
  8
0
 10
11.7212
 20
54.8485
 11
12.0791
 21
54.2893
  0
LINE
  8
0
 10
12.0791
 20
54.2893
 11
12.459
 21
53.7203
  0
LINE
  8
0
 10
12.459
 20
53.7203
 11
12.8628
 21
53.1389
  0
LINE
  8
0
 10
12.8628
 20
53.1389
 11
13.2919
 21
52.5426
  0
LINE
  8
0
 10
13.2919
 20
52.5426
 11
13.748
 21
51.9287
  0
LINE
  8
0
 10
13.748
 20
51.9287
 11
14.2327
 21
51.2947
  0
LINE
  8
0
 10
14.2327
 20
51.2947
 11
14.7477
 21
50.6381
  0
LINE
  8
0
 10
14.7477
 20
50.6381
 11
15.2945
 21
49.9561
  0
LINE
  8
0
 10
15.2945
 20
49.9561
 11
15.6283
 21
49.5429
  0
LINE
  8
0
 10
15.6283
 20
49.5429
 11
15.9409
 21
49.1529
  0
LINE
  8
0
 10
15.9409
 20
49.1529
 11
16.2334
 21
48.7845
  0
LINE
  8
0
 10
16.2334
 20
48.7845
 11
16.5065
 21
48.4362
  0
LINE
  8
0
 10
16.5065
 20
48.4362
 11
16.7609
 21
48.1063
  0
LINE
  8
0
 10
16.7609
 20
48.1063
 11
16.9975
 21
47.7933
  0
LINE
  8
0
 10
16.9975
 20
47.7933
 11
17.2171
 21
47.4956
  0
LINE
  8
0
 10
17.2171
 20
47.4956
 11
17.4205
 21
47.2116
  0
LINE
  8
0
 10
17.4205
 20
47.2116
 11
17.6085
 21
46.9398
  0
LINE
  8
0
 10
17.6085
 20
46.9398
 11
17.7819
 21
46.6785
  0
LINE
  8
0
 10
17.7819
 20
46.6785
 11
17.9414
 21
46.4263
  0
LINE
  8
0
 10
17.9414
 20
46.4263
 11
18.088
 21
46.1814
  0
LINE
  8
0
 10
18.088
 20
46.1814
 11
18.2223
 21
45.9423
  0
LINE
  8
0
 10
18.2223
 20
45.9423
 11
18.3452
 21
45.7075
  0
LINE
  8
0
 10
18.3452
 20
45.7075
 11
18.4576
 21
45.4753
  0
LINE
  8
0
 10
18.4576
 20
45.4753
 11
18.5602
 21
45.2443
  0
LINE
  8
0
 10
18.5602
 20
45.2443
 11
18.6537
 21
45.0127
  0
LINE
  8
0
 10
18.6537
 20
45.0127
 11
18.7391
 21
44.779
  0
LINE
  8
0
 10
18.7391
 20
44.779
 11
18.817
 21
44.5417
  0
LINE
  8
0
 10
18.817
 20
44.5417
 11
18.8884
 21
44.2992
  0
LINE
  8
0
 10
18.8884
 20
44.2992
 11
18.9364
 21
44.1124
  0
LINE
  8
0
 10
18.9364
 20
44.1124
 11
18.978
 21
43.9236
  0
LINE
  8
0
 10
18.978
 20
43.9236
 11
19.0135
 21
43.7328
  0
LINE
  8
0
 10
19.0135
 20
43.7328
 11
19.0431
 21
43.5402
  0
LINE
  8
0
 10
19.0431
 20
43.5402
 11
19.0669
 21
43.3457
  0
LINE
  8
0
 10
19.0669
 20
43.3457
 11
19.0852
 21
43.1495
  0
LINE
  8
0
 10
19.0852
 20
43.1495
 11
19.0981
 21
42.9517
  0
LINE
  8
0
 10
19.0981
 20
42.9517
 11
19.1059
 21
42.7522
  0
LINE
  8
0
 10
19.1059
 20
42.7522
 11
19.1087
 21
42.5513
  0
LINE
  8
0
 10
19.1087
 20
42.5513
 11
19.1067
 21
42.3489
  0
LINE
  8
0
 10
19.1067
 20
42.3489
 11
19.1001
 21
42.1452
  0
LINE
  8
0
 10
19.1001
 20
42.1452
 11
19.0892
 21
41.9402
  0
LINE
  8
0
 10
19.0892
 20
41.9402
 11
19.074
 21
41.734
  0
LINE
  8
0
 10
19.074
 20
41.734
 11
19.0549
 21
41.5266
  0
LINE
  8
0
 10
19.0549
 20
41.5266
 11
19.0319
 21
41.3183
  0
LINE
  8
0
 10
19.0319
 20
41.3183
 11
19.0053
 21
41.1089
  0
LINE
  8
0
 10
19.0053
 20
41.1089
 11
18.9753
 21
40.8986
  0
LINE
  8
0
 10
18.9753
 20
40.8986
 11
18.942
 21
40.6875
  0
LINE
  8
0
 10
18.942
 20
40.6875
 11
18.9057
 21
40.4757
  0
LINE
  8
0
 10
18.9057
 20
40.4757
 11
18.8666
 21
40.2632
  0
LINE
  8
0
 10
18.8666
 20
40.2632
 11
18.7912
 21
39.9648
  0
LINE
  8
0
 10
18.7912
 20
39.9648
 11
18.7122
 21
39.6742
  0
LINE
  8
0
 10
18.7122
 20
39.6742
 11
18.6278
 21
39.3882
  0
LINE
  8
0
 10
18.6278
 20
39.3882
 11
18.5362
 21
39.1033
  0
LINE
  8
0
 10
18.5362
 20
39.1033
 11
18.4358
 21
38.8163
  0
LINE
  8
0
 10
18.4358
 20
38.8163
 11
18.3247
 21
38.5235
  0
LINE
  8
0
 10
18.3247
 20
38.5235
 11
18.2011
 21
38.2218
  0
LINE
  8
0
 10
18.2011
 20
38.2218
 11
18.0634
 21
37.9077
  0
LINE
  8
0
 10
18.0634
 20
37.9077
 11
17.9096
 21
37.5779
  0
LINE
  8
0
 10
17.9096
 20
37.5779
 11
17.7382
 21
37.2289
  0
LINE
  8
0
 10
17.7382
 20
37.2289
 11
17.5472
 21
36.8574
  0
LINE
  8
0
 10
17.5472
 20
36.8574
 11
17.3349
 21
36.46
  0
LINE
  8
0
 10
17.3349
 20
36.46
 11
17.0996
 21
36.0333
  0
LINE
  8
0
 10
17.0996
 20
36.0333
 11
16.8395
 21
35.5739
  0
LINE
  8
0
 10
16.8395
 20
35.5739
 11
16.5529
 21
35.0785
  0
LINE
  8
0
 10
16.5529
 20
35.0785
 11
16.2379
 21
34.5437
  0
LINE
  8
0
 10
16.2379
 20
34.5437
 11
15.8928
 21
33.9661
  0
LINE
  8
0
 10
15.8928
 20
33.9661
 11
15.5158
 21
33.3423
  0
LINE
  8
0
 10
15.5158
 20
33.3423
 11
15.1052
 21
32.6689
  0
LINE
  8
0
 10
15.1052
 20
32.6689
 11
14.6592
 21
31.9426
  0
LINE
  8
0
 10
14.6592
 20
31.9426
 11
14.4612
 21
31.6209
  0
LINE
  8
0
 10
14.4612
 20
31.6209
 11
14.2629
 21
31.2985
  0
LINE
  8
0
 10
14.2629
 20
31.2985
 11
14.0653
 21
30.9767
  0
LINE
  8
0
 10
14.0653
 20
30.9767
 11
13.869
 21
30.6567
  0
LINE
  8
0
 10
13.869
 20
30.6567
 11
13.675
 21
30.34
  0
LINE
  8
0
 10
13.675
 20
30.34
 11
13.4839
 21
30.0276
  0
LINE
  8
0
 10
13.4839
 20
30.0276
 11
13.2968
 21
29.7211
  0
LINE
  8
0
 10
13.2968
 20
29.7211
 11
13.1143
 21
29.4215
  0
LINE
  8
0
 10
13.1143
 20
29.4215
 11
12.9373
 21
29.1302
  0
LINE
  8
0
 10
12.9373
 20
29.1302
 11
12.7666
 21
28.8486
  0
LINE
  8
0
 10
12.7666
 20
28.8486
 11
12.603
 21
28.5778
  0
LINE
  8
0
 10
12.603
 20
28.5778
 11
12.4473
 21
28.3192
  0
LINE
  8
0
 10
12.4473
 20
28.3192
 11
12.3003
 21
28.074
  0
LINE
  8
0
 10
12.3003
 20
28.074
 11
12.1629
 21
27.8435
  0
LINE
  8
0
 10
12.1629
 20
27.8435
 11
12.0359
 21
27.6291
  0
LINE
  8
0
 10
12.0359
 20
27.6291
 11
11.9201
 21
27.432
  0
LINE
  8
0
 10
11.9201
 20
27.432
 11
11.8163
 21
27.2534
  0
LINE
  8
0
 10
11.8163
 20
27.2534
 11
11.7253
 21
27.0948
  0
LINE
  8
0
 10
11.7253
 20
27.0948
 11
11.6479
 21
26.9573
  0
LINE
  8
0
 10
11.6479
 20
26.9573
 11
11.585
 21
26.8422
  0
LINE
  8
0
 10
11.585
 20
26.8422
 11
11.1018
 21
25.9122
  0
LINE
  8
0
 10
11.1018
 20
25.9122
 11
10.65
 21
24.9852
  0
LINE
  8
0
 10
10.65
 20
24.9852
 11
10.2284
 21
24.0601
  0
LINE
  8
0
 10
10.2284
 20
24.0601
 11
9.83549
 21
23.1359
  0
LINE
  8
0
 10
9.83549
 20
23.1359
 11
9.47005
 21
22.2115
  0
LINE
  8
0
 10
9.47005
 20
22.2115
 11
9.13068
 21
21.2859
  0
LINE
  8
0
 10
9.13068
 20
21.2859
 11
8.81606
 21
20.3579
  0
LINE
  8
0
 10
8.81606
 20
20.3579
 11
8.52483
 21
19.4265
  0
LINE
  8
0
 10
8.52483
 20
19.4265
 11
8.25566
 21
18.4906
  0
LINE
  8
0
 10
8.25566
 20
18.4906
 11
8.0072
 21
17.5491
  0
LINE
  8
0
 10
8.0072
 20
17.5491
 11
7.77811
 21
16.601
  0
LINE
  8
0
 10
7.77811
 20
16.601
 11
7.56705
 21
15.6452
  0
LINE
  8
0
 10
7.56705
 20
15.6452
 11
7.37267
 21
14.6805
  0
LINE
  8
0
 10
7.37267
 20
14.6805
 11
7.19363
 21
13.706
  0
LINE
  8
0
 10
7.19363
 20
13.706
 11
7.02859
 21
12.7205
  0
LINE
  8
0
 10
7.02859
 20
12.7205
 11
6.87622
 21
11.723
  0
LINE
  8
0
 10
6.87622
 20
11.723
 11
6.73515
 21
10.7124
  0
LINE
  8
0
 10
6.73515
 20
10.7124
 11
6.60405
 21
9.68762
  0
LINE
  8
0
 10
6.60405
 20
9.68762
 11
6.48157
 21
8.64757
  0
LINE
  8
0
 10
6.48157
 20
8.64757
 11
6.36638
 21
7.5912
  0
LINE
  8
0
 10
6.36638
 20
7.5912
 11
6.22681
 21
6.26312
  0
LINE
  8
0
 10
6.22681
 20
6.26312
 11
3.72626
 21
6.26312
  0
LINE
  8
0
 10
3.72626
 20
6.26312
 11
3.1001
 21
6.25674
  0
LINE
  8
0
 10
3.1001
 20
6.25674
 11
2.82657
 21
6.25386
  0
LINE
  8
0
 10
2.82657
 20
6.25386
 11
2.57765
 21
6.25104
  0
LINE
  8
0
 10
2.57765
 20
6.25104
 11
2.35204
 21
6.24815
  0
LINE
  8
0
 10
2.35204
 20
6.24815
 11
2.14841
 21
6.24507
  0
LINE
  8
0
 10
2.14841
 20
6.24507
 11
1.96542
 21
6.24167
  0
LINE
  8
0
 10
1.96542
 20
6.24167
 11
1.8018
 21
6.23784
  0
LINE
  8
0
 10
1.8018
 20
6.23784
 11
1.6562
 21
6.23346
  0
LINE
  8
0
 10
1.6562
 20
6.23346
 11
1.52734
 21
6.22841
  0
LINE
  8
0
 10
1.52734
 20
6.22841
 11
1.41386
 21
6.22255
  0
LINE
  8
0
 10
1.41386
 20
6.22255
 11
1.31448
 21
6.21579
  0
LINE
  8
0
 10
1.31448
 20
6.21579
 11
1.22786
 21
6.20798
  0
LINE
  8
0
 10
1.22786
 20
6.20798
 11
1.15269
 21
6.19901
  0
LINE
  8
0
 10
1.15269
 20
6.19901
 11
1.08768
 21
6.18877
  0
LINE
  8
0
 10
1.08768
 20
6.18877
 11
1.03148
 21
6.17711
  0
LINE
  8
0
 10
1.03148
 20
6.17711
 11
0.982773
 21
6.16394
  0
LINE
  8
0
 10
0.982773
 20
6.16394
 11
0.940277
 21
6.14912
  0
LINE
  8
0
 10
0.940277
 20
6.14912
 11
0.902649
 21
6.13255
  0
LINE
  8
0
 10
0.902649
 20
6.13255
 11
0.868591
 21
6.11409
  0
LINE
  8
0
 10
0.868591
 20
6.11409
 11
0.8181
 21
6.08206
  0
LINE
  8
0
 10
0.8181
 20
6.08206
 11
0.768265
 21
6.04648
  0
LINE
  8
0
 10
0.768265
 20
6.04648
 11
0.719193
 21
6.00757
  0
LINE
  8
0
 10
0.719193
 20
6.00757
 11
0.671021
 21
5.96559
  0
LINE
  8
0
 10
0.671021
 20
5.96559
 11
0.623871
 21
5.92076
  0
LINE
  8
0
 10
0.623871
 20
5.92076
 11
0.577881
 21
5.87332
  0
LINE
  8
0
 10
0.577881
 20
5.87332
 11
0.533157
 21
5.82352
  0
LINE
  8
0
 10
0.533157
 20
5.82352
 11
0.489853
 21
5.77161
  0
LINE
  8
0
 10
0.489853
 20
5.77161
 11
0.44809
 21
5.71779
  0
LINE
  8
0
 10
0.44809
 20
5.71779
 11
0.407974
 21
5.66235
  0
LINE
  8
0
 10
0.407974
 20
5.66235
 11
0.369675
 21
5.6055
  0
LINE
  8
0
 10
0.369675
 20
5.6055
 11
0.333282
 21
5.54749
  0
LINE
  8
0
 10
0.333282
 20
5.54749
 11
0.298935
 21
5.48854
  0
LINE
  8
0
 10
0.298935
 20
5.48854
 11
0.266769
 21
5.42891
  0
LINE
  8
0
 10
0.266769
 20
5.42891
 11
0.236908
 21
5.36885
  0
LINE
  8
0
 10
0.236908
 20
5.36885
 11
0.209488
 21
5.30856
  0
LINE
  8
0
 10
0.209488
 20
5.30856
 11
0.184616
 21
5.24834
  0
LINE
  8
0
 10
0.184616
 20
5.24834
 11
0.16243
 21
5.18837
  0
LINE
  8
0
 10
0.16243
 20
5.18837
 11
0.143066
 21
5.12892
  0
LINE
  8
0
 10
0.143066
 20
5.12892
 11
0.126663
 21
5.07022
  0
LINE
  8
0
 10
0.126663
 20
5.07022
 11
0.0850983
 21
4.84627
  0
LINE
  8
0
 10
0.0850983
 20
4.84627
 11
0.052948
 21
4.61406
  0
LINE
  8
0
 10
0.052948
 20
4.61406
 11
0.0292816
 21
4.37444
  0
LINE
  8
0
 10
0.0292816
 20
4.37444
 11
0.0131989
 21
4.12828
  0
LINE
  8
0
 10
0.0131989
 20
4.12828
 11
0.00378418
 21
3.87643
  0
LINE
  8
0
 10
0.00378418
 20
3.87643
 11
0.00012207
 21
3.61977
  0
LINE
  8
0
 10
0.00012207
 20
3.61977
 11
0.00131226
 21
3.35913
  0
LINE
  8
0
 10
0.00131226
 20
3.35913
 11
0.00643921
 21
3.09538
  0
LINE
  8
0
 10
0.00643921
 20
3.09538
 11
0.0146027
 21
2.82939
  0
LINE
  8
0
 10
0.0146027
 20
2.82939
 11
0.0248871
 21
2.562
  0
LINE
  8
0
 10
0.0248871
 20
2.562
 11
0.0363922
 21
2.29405
  0
LINE
  8
0
 10
0.0363922
 20
2.29405
 11
0.0481873
 21
2.02644
  0
LINE
  8
0
 10
0.0481873
 20
2.02644
 11
0.0593719
 21
1.76001
  0
LINE
  8
0
 10
0.0593719
 20
1.76001
 11
0.069046
 21
1.49562
  0
LINE
  8
0
 10
0.069046
 20
1.49562
 11
0.0762939
 21
1.23412
  0
LINE
  8
0
 10
0.0762939
 20
1.23412
 11
0.0802155
 21
0.976364
  0
LINE
  8
0
 10
0.0802155
 20
0.976364
 11
0.0798798
 21
0.723221
  0
LINE
  8
0
 10
0.0798798
 20
0.723221
 11
0.0743866
 21
0.475555
  0
LINE
  8
0
 10
0.0743866
 20
0.475555
 11
0.0628357
 21
0.234207
  0
LINE
  8
0
 10
0.0628357
 20
0.234207
 11
0.0442963
 21
4.57764e-05
  0
LINE
  8
0
 10
0.0442963
 20
4.57764e-05
 11
54.9558
 21
4.57764e-05
  0
LINE
  8
0
 10
54.9558
 20
4.57764e-05
 11
54.9373
 21
0.234207
  0
ENDSEC
  0
SECTION
  2
OBJECTS
  0
DICTIONARY
  0
ENDSEC
  0
EOF
