<?xml version="1.0" encoding="UTF-8" standalone="no"?>
<svg
   xmlns:dc="http://purl.org/dc/elements/1.1/"
   xmlns:cc="http://creativecommons.org/ns#"
   xmlns:rdf="http://www.w3.org/1999/02/22-rdf-syntax-ns#"
   xmlns:svg="http://www.w3.org/2000/svg"
   xmlns="http://www.w3.org/2000/svg"
   xmlns:sodipodi="http://sodipodi.sourceforge.net/DTD/sodipodi-0.dtd"
   xmlns:inkscape="http://www.inkscape.org/namespaces/inkscape"
   id="svg40861"
   version="1.1"
   viewBox="0 0 210 297"
   height="297mm"
   width="210mm"
   sodipodi:docname="hourglass.svg"
   inkscape:version="0.92.1 r15371">
  <sodipodi:namedview
     pagecolor="#ffffff"
     bordercolor="#666666"
     borderopacity="1"
     objecttolerance="10"
     gridtolerance="10"
     guidetolerance="10"
     inkscape:pageopacity="0"
     inkscape:pageshadow="2"
     inkscape:window-width="1920"
     inkscape:window-height="1027"
     id="namedview4491"
     showgrid="false"
     inkscape:zoom="0.75187991"
     inkscape:cx="171.41545"
     inkscape:cy="561.25984"
     inkscape:window-x="1912"
     inkscape:window-y="-8"
     inkscape:window-maximized="1"
     inkscape:current-layer="svg40861" />
  <title
     id="title41469">Hourglass</title>
  <defs
     id="defs40855" />
  <metadata
     id="metadata40858">
    <rdf:RDF>
      <cc:Work
         rdf:about="">
        <dc:format>image/svg+xml</dc:format>
        <dc:type
           rdf:resource="http://purl.org/dc/dcmitype/StillImage" />
        <dc:title>Hourglass</dc:title>
      </cc:Work>
    </rdf:RDF>
  </metadata>
  <g
     id="layer1"
     transform="matrix(0.37469834,0,0,0.42105239,3.370293e-6,171.94739)">
    <path
       id="path41417"
       transform="scale(0.26458333)"
       d="m 0.609375,45.353516 c 0.005012,24.530664 -0.50375842,46.744995 1.1328125,69.921874 1.3664672,4.9202 5.5506803,10.68034 10.2050785,13.22852 2.997979,1.64131 7.898877,1.89062 38.78125,1.89062 h 34.919922 v 15.11719 c 0,65.21675 12.992997,141.72573 32.125002,194.64648 20.0002,55.32242 40.94471,90.53694 92.59961,149.29102 31.59162,35.93348 43.16498,50.93116 49.43359,71.6875 4.69291,15.6909 3.41349,33.16655 -0.30078,51.14648 -6.80234,25.64247 -15.29671,41.74914 -57.87109,105.44336 -18.1235,27.11396 -37.20349,55.89797 -42.28516,64.63477 -45.79396,78.73156 -61.511292,153.993 -71.781251,243.95897 l -1.919921,16.8301 H 51.253906 c -31.247017,0.2981 -36.305804,0.2458 -39.30664,1.8887 -4.6543982,2.5482 -8.8386113,8.3083 -10.2050785,13.2285 -4.2690096,18.5474 0.913941,44.797 -1.1328125,64.2519 h 377.343745 0.60743 377.3457 c -2.04677,-19.455 3.13425,-45.7044 -1.13477,-64.2519 -1.36645,-4.9202 -5.55066,-10.6804 -10.20507,-13.2285 -3.00084,-1.6429 -8.05963,-1.5906 -39.30664,-1.8887 h -34.39454 l -1.91992,-16.8301 c -10.26996,-89.96597 -25.98533,-165.22741 -71.77929,-243.95897 -5.08165,-8.7368 -24.16364,-37.52081 -42.28711,-64.63477 -42.57438,-63.69422 -51.06874,-79.80089 -57.8711,-105.44336 -3.71425,-17.97993 -4.9937,-35.45558 -0.30078,-51.14648 6.26861,-20.75634 17.84391,-35.75402 49.43555,-71.6875 51.65491,-58.75408 72.59745,-93.96859 92.59765,-149.29102 19.13201,-52.92075 32.125,-129.42972 32.125,-194.64648 v -15.11719 h 34.91993 c 30.88236,0 35.78329,-0.24933 38.78125,-1.89062 4.65441,-2.54818 8.83862,-8.30832 10.20507,-13.22852 1.63658,-23.176879 1.12978,-45.39121 1.13477,-69.921874 h -377.3457 -0.60743 z"
       style="fill:#000000;fill-opacity:1;stroke-width:1.09551466"
       inkscape:connector-curvature="0" />
  </g>
</svg>
