<?xml version="1.0" encoding="UTF-8" standalone="no"?>
<svg
   xmlns:dc="http://purl.org/dc/elements/1.1/"
   xmlns:cc="http://creativecommons.org/ns#"
   xmlns:rdf="http://www.w3.org/1999/02/22-rdf-syntax-ns#"
   xmlns:svg="http://www.w3.org/2000/svg"
   xmlns="http://www.w3.org/2000/svg"
   id="svg40861"
   version="1.1"
   viewBox="0 0 210 297"
   height="297mm"
   width="210mm">
  <title
     id="title41469">Hourglass</title>
  <defs
     id="defs40855" />
  <metadata
     id="metadata40858">
    <rdf:RDF>
      <cc:Work
         rdf:about="">
        <dc:format>image/svg+xml</dc:format>
        <dc:type
           rdf:resource="http://purl.org/dc/dcmitype/StillImage" />
        <dc:title>Hourglass</dc:title>
      </cc:Work>
    </rdf:RDF>
  </metadata>
  <g
     id="layer1">
    <path
       id="path41417"
       transform="scale(0.26458333)"
       d="M 0.609375 45.353516 C 0.61438658 69.88418 0.10561658 92.098511 1.7421875 115.27539 C 3.1086547 120.19559 7.2928678 125.95573 11.947266 128.50391 C 14.945245 130.14522 19.846143 130.39453 50.728516 130.39453 L 85.648438 130.39453 L 85.648438 145.51172 C 85.648438 210.72847 98.641435 287.23745 117.77344 340.1582 C 137.77364 395.48062 158.71815 430.69514 210.37305 489.44922 C 241.96467 525.3827 253.53803 540.38038 259.80664 561.13672 C 264.49955 576.82762 263.22013 594.30327 259.50586 612.2832 C 252.70352 637.92567 244.20915 654.03234 201.63477 717.72656 C 183.51127 744.84052 164.43128 773.62453 159.34961 782.36133 C 113.55565 861.09289 97.838318 936.35433 87.568359 1026.3203 L 85.648438 1043.1504 L 51.253906 1043.1504 C 20.006889 1043.4485 14.948102 1043.3962 11.947266 1045.0391 C 7.2928678 1047.5873 3.1086547 1053.3474 1.7421875 1058.2676 C -2.5268221 1076.815 2.6561285 1103.0646 0.609375 1122.5195 L 377.95312 1122.5195 L 378.56055 1122.5195 L 755.90625 1122.5195 C 753.85948 1103.0645 759.0405 1076.8151 754.77148 1058.2676 C 753.40503 1053.3474 749.22082 1047.5872 744.56641 1045.0391 C 741.56557 1043.3962 736.50678 1043.4485 705.25977 1043.1504 L 670.86523 1043.1504 L 668.94531 1026.3203 C 658.67535 936.35433 642.95998 861.09289 597.16602 782.36133 C 592.08437 773.62453 573.00238 744.84052 554.87891 717.72656 C 512.30453 654.03234 503.81017 637.92567 497.00781 612.2832 C 493.29356 594.30327 492.01411 576.82762 496.70703 561.13672 C 502.97564 540.38038 514.55094 525.3827 546.14258 489.44922 C 597.79749 430.69514 618.74003 395.48063 638.74023 340.1582 C 657.87224 287.23745 670.86523 210.72848 670.86523 145.51172 L 670.86523 130.39453 L 705.78516 130.39453 C 736.66752 130.39453 741.56845 130.1452 744.56641 128.50391 C 749.22082 125.95573 753.40503 120.19559 754.77148 115.27539 C 756.40806 92.098511 755.90126 69.88418 755.90625 45.353516 L 378.56055 45.353516 L 377.95312 45.353516 L 0.609375 45.353516 z "
       style="fill:#000000;fill-opacity:1;stroke-width:1.09551466" />
  </g>
</svg>
