  0
SECTION
  2
BLOCKS
  0
ENDSEC
  0
SECTION
  2
ENTITIES
  0
LINE
  8
0
 10
199.933
 20
0.785172
 11
199.891
 21
1.59438
  0
LINE
  8
0
 10
199.891
 20
1.59438
 11
199.871
 21
2.4248
  0
LINE
  8
0
 10
199.871
 20
2.4248
 11
199.869
 21
3.27356
  0
LINE
  8
0
 10
199.869
 20
3.27356
 11
199.884
 21
4.13779
  0
LINE
  8
0
 10
199.884
 20
4.13779
 11
199.91
 21
5.01459
  0
LINE
  8
0
 10
199.91
 20
5.01459
 11
199.945
 21
5.90109
  0
LINE
  8
0
 10
199.945
 20
5.90109
 11
199.986
 21
6.79442
  0
LINE
  8
0
 10
199.986
 20
6.79442
 11
200.029
 21
7.69171
  0
LINE
  8
0
 10
200.029
 20
7.69171
 11
200.071
 21
8.59007
  0
LINE
  8
0
 10
200.071
 20
8.59007
 11
200.108
 21
9.48663
  0
LINE
  8
0
 10
200.108
 20
9.48663
 11
200.138
 21
10.3785
  0
LINE
  8
0
 10
200.138
 20
10.3785
 11
200.156
 21
11.2629
  0
LINE
  8
0
 10
200.156
 20
11.2629
 11
200.161
 21
12.1367
  0
LINE
  8
0
 10
200.161
 20
12.1367
 11
200.147
 21
12.9973
  0
LINE
  8
0
 10
200.147
 20
12.9973
 11
200.113
 21
13.8418
  0
LINE
  8
0
 10
200.113
 20
13.8418
 11
200.054
 21
14.6671
  0
LINE
  8
0
 10
200.054
 20
14.6671
 11
199.968
 21
15.4705
  0
LINE
  8
0
 10
199.968
 20
15.4705
 11
199.851
 21
16.2491
  0
LINE
  8
0
 10
199.851
 20
16.2491
 11
199.7
 21
17
  0
LINE
  8
0
 10
199.7
 20
17
 11
199.64
 21
17.1968
  0
LINE
  8
0
 10
199.64
 20
17.1968
 11
199.57
 21
17.3962
  0
LINE
  8
0
 10
199.57
 20
17.3962
 11
199.489
 21
17.5972
  0
LINE
  8
0
 10
199.489
 20
17.5972
 11
199.399
 21
17.7992
  0
LINE
  8
0
 10
199.399
 20
17.7992
 11
199.299
 21
18.0013
  0
LINE
  8
0
 10
199.299
 20
18.0013
 11
199.19
 21
18.2027
  0
LINE
  8
0
 10
199.19
 20
18.2027
 11
199.073
 21
18.4026
  0
LINE
  8
0
 10
199.073
 20
18.4026
 11
198.948
 21
18.6003
  0
LINE
  8
0
 10
198.948
 20
18.6003
 11
198.816
 21
18.7948
  0
LINE
  8
0
 10
198.816
 20
18.7948
 11
198.676
 21
18.9854
  0
LINE
  8
0
 10
198.676
 20
18.9854
 11
198.53
 21
19.1713
  0
LINE
  8
0
 10
198.53
 20
19.1713
 11
198.378
 21
19.3517
  0
LINE
  8
0
 10
198.378
 20
19.3517
 11
198.221
 21
19.5258
  0
LINE
  8
0
 10
198.221
 20
19.5258
 11
198.058
 21
19.6928
  0
LINE
  8
0
 10
198.058
 20
19.6928
 11
197.89
 21
19.8518
  0
LINE
  8
0
 10
197.89
 20
19.8518
 11
197.719
 21
20.0022
  0
LINE
  8
0
 10
197.719
 20
20.0022
 11
197.544
 21
20.1429
  0
LINE
  8
0
 10
197.544
 20
20.1429
 11
197.365
 21
20.2734
  0
LINE
  8
0
 10
197.365
 20
20.2734
 11
197.184
 21
20.3927
  0
LINE
  8
0
 10
197.184
 20
20.3927
 11
197
 21
20.5001
  0
LINE
  8
0
 10
197
 20
20.5001
 11
196.876
 21
20.562
  0
LINE
  8
0
 10
196.876
 20
20.562
 11
196.739
 21
20.6176
  0
LINE
  8
0
 10
196.739
 20
20.6176
 11
196.584
 21
20.6672
  0
LINE
  8
0
 10
196.584
 20
20.6672
 11
196.407
 21
20.7114
  0
LINE
  8
0
 10
196.407
 20
20.7114
 11
196.203
 21
20.7504
  0
LINE
  8
0
 10
196.203
 20
20.7504
 11
195.966
 21
20.7848
  0
LINE
  8
0
 10
195.966
 20
20.7848
 11
195.692
 21
20.8149
  0
LINE
  8
0
 10
195.692
 20
20.8149
 11
195.377
 21
20.841
  0
LINE
  8
0
 10
195.377
 20
20.841
 11
195.015
 21
20.8637
  0
LINE
  8
0
 10
195.015
 20
20.8637
 11
194.602
 21
20.8834
  0
LINE
  8
0
 10
194.602
 20
20.8834
 11
194.133
 21
20.9003
  0
LINE
  8
0
 10
194.133
 20
20.9003
 11
193.604
 21
20.915
  0
LINE
  8
0
 10
193.604
 20
20.915
 11
193.008
 21
20.9278
  0
LINE
  8
0
 10
193.008
 20
20.9278
 11
192.342
 21
20.9392
  0
LINE
  8
0
 10
192.342
 20
20.9392
 11
191.601
 21
20.9496
  0
LINE
  8
0
 10
191.601
 20
20.9496
 11
190.78
 21
20.9593
  0
LINE
  8
0
 10
190.78
 20
20.9593
 11
189.874
 21
20.9687
  0
LINE
  8
0
 10
189.874
 20
20.9687
 11
188.879
 21
20.9784
  0
LINE
  8
0
 10
188.879
 20
20.9784
 11
187.789
 21
20.9886
  0
LINE
  8
0
 10
187.789
 20
20.9886
 11
186.6
 21
20.9998
  0
LINE
  8
0
 10
186.6
 20
20.9998
 11
177.5
 21
20.9998
  0
LINE
  8
0
 10
177.5
 20
20.9998
 11
176.992
 21
25.4527
  0
LINE
  8
0
 10
176.992
 20
25.4527
 11
176.573
 21
28.9947
  0
LINE
  8
0
 10
176.573
 20
28.9947
 11
176.127
 21
32.4819
  0
LINE
  8
0
 10
176.127
 20
32.4819
 11
175.65
 21
35.9179
  0
LINE
  8
0
 10
175.65
 20
35.9179
 11
175.136
 21
39.3064
  0
LINE
  8
0
 10
175.136
 20
39.3064
 11
174.582
 21
42.651
  0
LINE
  8
0
 10
174.582
 20
42.651
 11
173.981
 21
45.9553
  0
LINE
  8
0
 10
173.981
 20
45.9553
 11
173.33
 21
49.2228
  0
LINE
  8
0
 10
173.33
 20
49.2228
 11
172.622
 21
52.4572
  0
LINE
  8
0
 10
172.622
 20
52.4572
 11
171.854
 21
55.6621
  0
LINE
  8
0
 10
171.854
 20
55.6621
 11
171.021
 21
58.8412
  0
LINE
  8
0
 10
171.021
 20
58.8412
 11
170.116
 21
61.9979
  0
LINE
  8
0
 10
170.116
 20
61.9979
 11
169.137
 21
65.1359
  0
LINE
  8
0
 10
169.137
 20
65.1359
 11
168.077
 21
68.2589
  0
LINE
  8
0
 10
168.077
 20
68.2589
 11
166.932
 21
71.3703
  0
LINE
  8
0
 10
166.932
 20
71.3703
 11
165.697
 21
74.474
  0
LINE
  8
0
 10
165.697
 20
74.474
 11
164.367
 21
77.5733
  0
LINE
  8
0
 10
164.367
 20
77.5733
 11
162.937
 21
80.672
  0
LINE
  8
0
 10
162.937
 20
80.672
 11
161.403
 21
83.7737
  0
LINE
  8
0
 10
161.403
 20
83.7737
 11
159.759
 21
86.8819
  0
LINE
  8
0
 10
159.759
 20
86.8819
 11
158
 21
90.0002
  0
LINE
  8
0
 10
158
 20
90.0002
 11
157.771
 21
90.386
  0
LINE
  8
0
 10
157.771
 20
90.386
 11
157.49
 21
90.8471
  0
LINE
  8
0
 10
157.49
 20
90.8471
 11
157.158
 21
91.3791
  0
LINE
  8
0
 10
157.158
 20
91.3791
 11
156.781
 21
91.9777
  0
LINE
  8
0
 10
156.781
 20
91.9777
 11
156.359
 21
92.6387
  0
LINE
  8
0
 10
156.359
 20
92.6387
 11
155.897
 21
93.3577
  0
LINE
  8
0
 10
155.897
 20
93.3577
 11
155.397
 21
94.1303
  0
LINE
  8
0
 10
155.397
 20
94.1303
 11
154.862
 21
94.9524
  0
LINE
  8
0
 10
154.862
 20
94.9524
 11
154.295
 21
95.8196
  0
LINE
  8
0
 10
154.295
 20
95.8196
 11
153.7
 21
96.7275
  0
LINE
  8
0
 10
153.7
 20
96.7275
 11
153.079
 21
97.6719
  0
LINE
  8
0
 10
153.079
 20
97.6719
 11
152.434
 21
98.6485
  0
LINE
  8
0
 10
152.434
 20
98.6485
 11
151.77
 21
99.6529
  0
LINE
  8
0
 10
151.77
 20
99.6529
 11
151.089
 21
100.681
  0
LINE
  8
0
 10
151.089
 20
100.681
 11
150.394
 21
101.728
  0
LINE
  8
0
 10
150.394
 20
101.728
 11
149.688
 21
102.79
  0
LINE
  8
0
 10
149.688
 20
102.79
 11
148.973
 21
103.863
  0
LINE
  8
0
 10
148.973
 20
103.863
 11
148.254
 21
104.942
  0
LINE
  8
0
 10
148.254
 20
104.942
 11
147.532
 21
106.023
  0
LINE
  8
0
 10
147.532
 20
106.023
 11
146.812
 21
107.102
  0
LINE
  8
0
 10
146.812
 20
107.102
 11
145.189
 21
109.537
  0
LINE
  8
0
 10
145.189
 20
109.537
 11
143.694
 21
111.795
  0
LINE
  8
0
 10
143.694
 20
111.795
 11
142.322
 21
113.886
  0
LINE
  8
0
 10
142.322
 20
113.886
 11
141.066
 21
115.823
  0
LINE
  8
0
 10
141.066
 20
115.823
 11
139.92
 21
117.616
  0
LINE
  8
0
 10
139.92
 20
117.616
 11
138.877
 21
119.277
  0
LINE
  8
0
 10
138.877
 20
119.277
 11
137.93
 21
120.817
  0
LINE
  8
0
 10
137.93
 20
120.817
 11
137.074
 21
122.248
  0
LINE
  8
0
 10
137.074
 20
122.248
 11
136.302
 21
123.581
  0
LINE
  8
0
 10
136.302
 20
123.581
 11
135.607
 21
124.826
  0
LINE
  8
0
 10
135.607
 20
124.826
 11
134.983
 21
125.996
  0
LINE
  8
0
 10
134.983
 20
125.996
 11
134.423
 21
127.102
  0
LINE
  8
0
 10
134.423
 20
127.102
 11
133.922
 21
128.155
  0
LINE
  8
0
 10
133.922
 20
128.155
 11
133.472
 21
129.167
  0
LINE
  8
0
 10
133.472
 20
129.167
 11
133.068
 21
130.149
  0
LINE
  8
0
 10
133.068
 20
130.149
 11
132.702
 21
131.111
  0
LINE
  8
0
 10
132.702
 20
131.111
 11
132.369
 21
132.066
  0
LINE
  8
0
 10
132.369
 20
132.066
 11
132.062
 21
133.025
  0
LINE
  8
0
 10
132.062
 20
133.025
 11
131.774
 21
133.999
  0
LINE
  8
0
 10
131.774
 20
133.999
 11
131.5
 21
135
  0
LINE
  8
0
 10
131.5
 20
135
 11
131.358
 21
135.713
  0
LINE
  8
0
 10
131.358
 20
135.713
 11
131.225
 21
136.423
  0
LINE
  8
0
 10
131.225
 20
136.423
 11
131.104
 21
137.131
  0
LINE
  8
0
 10
131.104
 20
137.131
 11
130.995
 21
137.836
  0
LINE
  8
0
 10
130.995
 20
137.836
 11
130.898
 21
138.538
  0
LINE
  8
0
 10
130.898
 20
138.538
 11
130.815
 21
139.236
  0
LINE
  8
0
 10
130.815
 20
139.236
 11
130.745
 21
139.932
  0
LINE
  8
0
 10
130.745
 20
139.932
 11
130.69
 21
140.623
  0
LINE
  8
0
 10
130.69
 20
140.623
 11
130.65
 21
141.31
  0
LINE
  8
0
 10
130.65
 20
141.31
 11
130.626
 21
141.993
  0
LINE
  8
0
 10
130.626
 20
141.993
 11
130.619
 21
142.672
  0
LINE
  8
0
 10
130.619
 20
142.672
 11
130.629
 21
143.346
  0
LINE
  8
0
 10
130.629
 20
143.346
 11
130.657
 21
144.014
  0
LINE
  8
0
 10
130.657
 20
144.014
 11
130.704
 21
144.678
  0
LINE
  8
0
 10
130.704
 20
144.678
 11
130.771
 21
145.336
  0
LINE
  8
0
 10
130.771
 20
145.336
 11
130.858
 21
145.988
  0
LINE
  8
0
 10
130.858
 20
145.988
 11
130.965
 21
146.634
  0
LINE
  8
0
 10
130.965
 20
146.634
 11
131.094
 21
147.273
  0
LINE
  8
0
 10
131.094
 20
147.273
 11
131.246
 21
147.906
  0
LINE
  8
0
 10
131.246
 20
147.906
 11
131.42
 21
148.533
  0
LINE
  8
0
 10
131.42
 20
148.533
 11
131.68
 21
149.346
  0
LINE
  8
0
 10
131.68
 20
149.346
 11
131.964
 21
150.141
  0
LINE
  8
0
 10
131.964
 20
150.141
 11
132.275
 21
150.925
  0
LINE
  8
0
 10
132.275
 20
150.925
 11
132.615
 21
151.701
  0
LINE
  8
0
 10
132.615
 20
151.701
 11
132.988
 21
152.476
  0
LINE
  8
0
 10
132.988
 20
152.476
 11
133.397
 21
153.254
  0
LINE
  8
0
 10
133.397
 20
153.254
 11
133.845
 21
154.042
  0
LINE
  8
0
 10
133.845
 20
154.042
 11
134.334
 21
154.843
  0
LINE
  8
0
 10
134.334
 20
154.843
 11
134.867
 21
155.664
  0
LINE
  8
0
 10
134.867
 20
155.664
 11
135.448
 21
156.51
  0
LINE
  8
0
 10
135.448
 20
156.51
 11
136.079
 21
157.386
  0
LINE
  8
0
 10
136.079
 20
157.386
 11
136.763
 21
158.298
  0
LINE
  8
0
 10
136.763
 20
158.298
 11
137.503
 21
159.25
  0
LINE
  8
0
 10
137.503
 20
159.25
 11
138.302
 21
160.248
  0
LINE
  8
0
 10
138.302
 20
160.248
 11
139.163
 21
161.298
  0
LINE
  8
0
 10
139.163
 20
161.298
 11
140.089
 21
162.404
  0
LINE
  8
0
 10
140.089
 20
162.404
 11
141.083
 21
163.572
  0
LINE
  8
0
 10
141.083
 20
163.572
 11
142.148
 21
164.807
  0
LINE
  8
0
 10
142.148
 20
164.807
 11
143.286
 21
166.114
  0
LINE
  8
0
 10
143.286
 20
166.114
 11
144.5
 21
167.5
  0
LINE
  8
0
 10
144.5
 20
167.5
 11
146.49
 21
169.786
  0
LINE
  8
0
 10
146.49
 20
169.786
 11
148.364
 21
171.988
  0
LINE
  8
0
 10
148.364
 20
171.988
 11
150.128
 21
174.114
  0
LINE
  8
0
 10
150.128
 20
174.114
 11
151.788
 21
176.172
  0
LINE
  8
0
 10
151.788
 20
176.172
 11
153.35
 21
178.172
  0
LINE
  8
0
 10
153.35
 20
178.172
 11
154.819
 21
180.121
  0
LINE
  8
0
 10
154.819
 20
180.121
 11
156.202
 21
182.029
  0
LINE
  8
0
 10
156.202
 20
182.029
 11
157.504
 21
183.904
  0
LINE
  8
0
 10
157.504
 20
183.904
 11
158.732
 21
185.755
  0
LINE
  8
0
 10
158.732
 20
185.755
 11
159.891
 21
187.59
  0
LINE
  8
0
 10
159.891
 20
187.59
 11
160.987
 21
189.419
  0
LINE
  8
0
 10
160.987
 20
189.419
 11
162.026
 21
191.25
  0
LINE
  8
0
 10
162.026
 20
191.25
 11
163.014
 21
193.091
  0
LINE
  8
0
 10
163.014
 20
193.091
 11
163.957
 21
194.951
  0
LINE
  8
0
 10
163.957
 20
194.951
 11
164.861
 21
196.839
  0
LINE
  8
0
 10
164.861
 20
196.839
 11
165.732
 21
198.763
  0
LINE
  8
0
 10
165.732
 20
198.763
 11
166.575
 21
200.733
  0
LINE
  8
0
 10
166.575
 20
200.733
 11
167.397
 21
202.757
  0
LINE
  8
0
 10
167.397
 20
202.757
 11
168.203
 21
204.843
  0
LINE
  8
0
 10
168.203
 20
204.843
 11
169
 21
207
  0
LINE
  8
0
 10
169
 20
207
 11
169.747
 21
209.146
  0
LINE
  8
0
 10
169.747
 20
209.146
 11
170.468
 21
211.378
  0
LINE
  8
0
 10
170.468
 20
211.378
 11
171.162
 21
213.691
  0
LINE
  8
0
 10
171.162
 20
213.691
 11
171.828
 21
216.076
  0
LINE
  8
0
 10
171.828
 20
216.076
 11
172.464
 21
218.527
  0
LINE
  8
0
 10
172.464
 20
218.527
 11
173.068
 21
221.037
  0
LINE
  8
0
 10
173.068
 20
221.037
 11
173.64
 21
223.6
  0
LINE
  8
0
 10
173.64
 20
223.6
 11
174.179
 21
226.207
  0
LINE
  8
0
 10
174.179
 20
226.207
 11
174.682
 21
228.853
  0
LINE
  8
0
 10
174.682
 20
228.853
 11
175.148
 21
231.53
  0
LINE
  8
0
 10
175.148
 20
231.53
 11
175.577
 21
234.231
  0
LINE
  8
0
 10
175.577
 20
234.231
 11
175.966
 21
236.95
  0
LINE
  8
0
 10
175.966
 20
236.95
 11
176.314
 21
239.68
  0
LINE
  8
0
 10
176.314
 20
239.68
 11
176.621
 21
242.413
  0
LINE
  8
0
 10
176.621
 20
242.413
 11
176.884
 21
245.143
  0
LINE
  8
0
 10
176.884
 20
245.143
 11
177.102
 21
247.862
  0
LINE
  8
0
 10
177.102
 20
247.862
 11
177.274
 21
250.565
  0
LINE
  8
0
 10
177.274
 20
250.565
 11
177.398
 21
253.243
  0
LINE
  8
0
 10
177.398
 20
253.243
 11
177.474
 21
255.89
  0
LINE
  8
0
 10
177.474
 20
255.89
 11
177.5
 21
258.5
  0
LINE
  8
0
 10
177.5
 20
258.5
 11
177.5
 21
262.5
  0
LINE
  8
0
 10
177.5
 20
262.5
 11
186.739
 21
262.5
  0
LINE
  8
0
 10
186.739
 20
262.5
 11
187.914
 21
262.5
  0
LINE
  8
0
 10
187.914
 20
262.5
 11
188.99
 21
262.502
  0
LINE
  8
0
 10
188.99
 20
262.502
 11
189.973
 21
262.505
  0
LINE
  8
0
 10
189.973
 20
262.505
 11
190.868
 21
262.51
  0
LINE
  8
0
 10
190.868
 20
262.51
 11
191.678
 21
262.517
  0
LINE
  8
0
 10
191.678
 20
262.517
 11
192.409
 21
262.526
  0
LINE
  8
0
 10
192.409
 20
262.526
 11
193.065
 21
262.537
  0
LINE
  8
0
 10
193.065
 20
262.537
 11
193.652
 21
262.551
  0
LINE
  8
0
 10
193.652
 20
262.551
 11
194.174
 21
262.567
  0
LINE
  8
0
 10
194.174
 20
262.567
 11
194.636
 21
262.587
  0
LINE
  8
0
 10
194.636
 20
262.587
 11
195.043
 21
262.61
  0
LINE
  8
0
 10
195.043
 20
262.61
 11
195.399
 21
262.636
  0
LINE
  8
0
 10
195.399
 20
262.636
 11
195.709
 21
262.666
  0
LINE
  8
0
 10
195.709
 20
262.666
 11
195.978
 21
262.7
  0
LINE
  8
0
 10
195.978
 20
262.7
 11
196.211
 21
262.739
  0
LINE
  8
0
 10
196.211
 20
262.739
 11
196.413
 21
262.781
  0
LINE
  8
0
 10
196.413
 20
262.781
 11
196.587
 21
262.828
  0
LINE
  8
0
 10
196.587
 20
262.828
 11
196.74
 21
262.88
  0
LINE
  8
0
 10
196.74
 20
262.88
 11
196.876
 21
262.938
  0
LINE
  8
0
 10
196.876
 20
262.938
 11
197
 21
263
  0
LINE
  8
0
 10
197
 20
263
 11
197.184
 21
263.107
  0
LINE
  8
0
 10
197.184
 20
263.107
 11
197.365
 21
263.227
  0
LINE
  8
0
 10
197.365
 20
263.227
 11
197.544
 21
263.357
  0
LINE
  8
0
 10
197.544
 20
263.357
 11
197.719
 21
263.498
  0
LINE
  8
0
 10
197.719
 20
263.498
 11
197.89
 21
263.648
  0
LINE
  8
0
 10
197.89
 20
263.648
 11
198.058
 21
263.807
  0
LINE
  8
0
 10
198.058
 20
263.807
 11
198.221
 21
263.974
  0
LINE
  8
0
 10
198.221
 20
263.974
 11
198.378
 21
264.148
  0
LINE
  8
0
 10
198.378
 20
264.148
 11
198.53
 21
264.329
  0
LINE
  8
0
 10
198.53
 20
264.329
 11
198.676
 21
264.515
  0
LINE
  8
0
 10
198.676
 20
264.515
 11
198.816
 21
264.705
  0
LINE
  8
0
 10
198.816
 20
264.705
 11
198.948
 21
264.9
  0
LINE
  8
0
 10
198.948
 20
264.9
 11
199.073
 21
265.097
  0
LINE
  8
0
 10
199.073
 20
265.097
 11
199.19
 21
265.297
  0
LINE
  8
0
 10
199.19
 20
265.297
 11
199.299
 21
265.499
  0
LINE
  8
0
 10
199.299
 20
265.499
 11
199.399
 21
265.701
  0
LINE
  8
0
 10
199.399
 20
265.701
 11
199.489
 21
265.903
  0
LINE
  8
0
 10
199.489
 20
265.903
 11
199.57
 21
266.104
  0
LINE
  8
0
 10
199.57
 20
266.104
 11
199.64
 21
266.303
  0
LINE
  8
0
 10
199.64
 20
266.303
 11
199.7
 21
266.5
  0
LINE
  8
0
 10
199.7
 20
266.5
 11
199.761
 21
267.418
  0
LINE
  8
0
 10
199.761
 20
267.418
 11
199.814
 21
268.333
  0
LINE
  8
0
 10
199.814
 20
268.333
 11
199.859
 21
269.245
  0
LINE
  8
0
 10
199.859
 20
269.245
 11
199.897
 21
270.156
  0
LINE
  8
0
 10
199.897
 20
270.156
 11
199.929
 21
271.065
  0
LINE
  8
0
 10
199.929
 20
271.065
 11
199.956
 21
271.974
  0
LINE
  8
0
 10
199.956
 20
271.974
 11
199.976
 21
272.882
  0
LINE
  8
0
 10
199.976
 20
272.882
 11
199.992
 21
273.792
  0
LINE
  8
0
 10
199.992
 20
273.792
 11
200.004
 21
274.703
  0
LINE
  8
0
 10
200.004
 20
274.703
 11
200.012
 21
275.616
  0
LINE
  8
0
 10
200.012
 20
275.616
 11
200.017
 21
276.531
  0
LINE
  8
0
 10
200.017
 20
276.531
 11
200.019
 21
277.45
  0
LINE
  8
0
 10
200.019
 20
277.45
 11
200.018
 21
278.373
  0
LINE
  8
0
 10
200.018
 20
278.373
 11
200.017
 21
279.301
  0
LINE
  8
0
 10
200.017
 20
279.301
 11
200.014
 21
280.234
  0
LINE
  8
0
 10
200.014
 20
280.234
 11
200.01
 21
281.173
  0
LINE
  8
0
 10
200.01
 20
281.173
 11
200.006
 21
282.118
  0
LINE
  8
0
 10
200.006
 20
282.118
 11
200.003
 21
283.071
  0
LINE
  8
0
 10
200.003
 20
283.071
 11
200.001
 21
284.031
  0
LINE
  8
0
 10
200.001
 20
284.031
 11
200
 21
285
  0
LINE
  8
0
 10
200
 20
285
 11
0.161224
 21
285
  0
LINE
  8
0
 10
0.161224
 20
285
 11
0.160492
 21
284.031
  0
LINE
  8
0
 10
0.160492
 20
284.031
 11
0.158249
 21
283.071
  0
LINE
  8
0
 10
0.158249
 20
283.071
 11
0.155014
 21
282.118
  0
LINE
  8
0
 10
0.155014
 20
282.118
 11
0.14772
 21
280.234
  0
LINE
  8
0
 10
0.14772
 20
280.234
 11
0.144714
 21
279.301
  0
LINE
  8
0
 10
0.144714
 20
279.301
 11
0.142822
 21
278.373
  0
LINE
  8
0
 10
0.142822
 20
278.373
 11
0.142593
 21
277.45
  0
LINE
  8
0
 10
0.142593
 20
277.45
 11
0.144547
 21
276.531
  0
LINE
  8
0
 10
0.144547
 20
276.531
 11
0.1492
 21
275.616
  0
LINE
  8
0
 10
0.1492
 20
275.616
 11
0.157104
 21
274.703
  0
LINE
  8
0
 10
0.157104
 20
274.703
 11
0.168762
 21
273.792
  0
LINE
  8
0
 10
0.168762
 20
273.792
 11
0.184723
 21
272.882
  0
LINE
  8
0
 10
0.184723
 20
272.882
 11
0.205505
 21
271.974
  0
LINE
  8
0
 10
0.205505
 20
271.974
 11
0.231628
 21
271.065
  0
LINE
  8
0
 10
0.231628
 20
271.065
 11
0.263626
 21
270.156
  0
LINE
  8
0
 10
0.263626
 20
270.156
 11
0.302032
 21
269.245
  0
LINE
  8
0
 10
0.302032
 20
269.245
 11
0.347366
 21
268.333
  0
LINE
  8
0
 10
0.347366
 20
268.333
 11
0.400162
 21
267.418
  0
LINE
  8
0
 10
0.400162
 20
267.418
 11
0.460953
 21
266.5
  0
LINE
  8
0
 10
0.460953
 20
266.5
 11
0.520691
 21
266.303
  0
LINE
  8
0
 10
0.520691
 20
266.303
 11
0.591156
 21
266.104
  0
LINE
  8
0
 10
0.591156
 20
266.104
 11
0.671875
 21
265.903
  0
LINE
  8
0
 10
0.671875
 20
265.903
 11
0.76236
 21
265.701
  0
LINE
  8
0
 10
0.76236
 20
265.701
 11
0.862183
 21
265.499
  0
LINE
  8
0
 10
0.862183
 20
265.499
 11
0.970856
 21
265.297
  0
LINE
  8
0
 10
0.970856
 20
265.297
 11
1.08792
 21
265.097
  0
LINE
  8
0
 10
1.08792
 20
265.097
 11
1.21291
 21
264.9
  0
LINE
  8
0
 10
1.21291
 20
264.9
 11
1.34534
 21
264.705
  0
LINE
  8
0
 10
1.34534
 20
264.705
 11
1.48477
 21
264.515
  0
LINE
  8
0
 10
1.48477
 20
264.515
 11
1.63072
 21
264.329
  0
LINE
  8
0
 10
1.63072
 20
264.329
 11
1.78273
 21
264.148
  0
LINE
  8
0
 10
1.78273
 20
264.148
 11
1.94034
 21
263.974
  0
LINE
  8
0
 10
1.94034
 20
263.974
 11
2.10307
 21
263.807
  0
LINE
  8
0
 10
2.10307
 20
263.807
 11
2.27046
 21
263.648
  0
LINE
  8
0
 10
2.27046
 20
263.648
 11
2.44205
 21
263.498
  0
LINE
  8
0
 10
2.44205
 20
263.498
 11
2.61737
 21
263.357
  0
LINE
  8
0
 10
2.61737
 20
263.357
 11
2.79594
 21
263.227
  0
LINE
  8
0
 10
2.79594
 20
263.227
 11
2.97733
 21
263.107
  0
LINE
  8
0
 10
2.97733
 20
263.107
 11
3.16104
 21
263
  0
LINE
  8
0
 10
3.16104
 20
263
 11
3.28459
 21
262.938
  0
LINE
  8
0
 10
3.28459
 20
262.938
 11
3.42049
 21
262.88
  0
LINE
  8
0
 10
3.42049
 20
262.88
 11
3.57347
 21
262.828
  0
LINE
  8
0
 10
3.57347
 20
262.828
 11
3.74835
 21
262.781
  0
LINE
  8
0
 10
3.74835
 20
262.781
 11
3.94989
 21
262.739
  0
LINE
  8
0
 10
3.94989
 20
262.739
 11
4.18289
 21
262.7
  0
LINE
  8
0
 10
4.18289
 20
262.7
 11
4.45209
 21
262.666
  0
LINE
  8
0
 10
4.45209
 20
262.666
 11
4.7623
 21
262.636
  0
LINE
  8
0
 10
4.7623
 20
262.636
 11
5.11829
 21
262.61
  0
LINE
  8
0
 10
5.11829
 20
262.61
 11
5.52483
 21
262.587
  0
LINE
  8
0
 10
5.52483
 20
262.587
 11
5.98669
 21
262.567
  0
LINE
  8
0
 10
5.98669
 20
262.567
 11
6.50868
 21
262.551
  0
LINE
  8
0
 10
6.50868
 20
262.551
 11
7.09555
 21
262.537
  0
LINE
  8
0
 10
7.09555
 20
262.537
 11
7.75209
 21
262.526
  0
LINE
  8
0
 10
7.75209
 20
262.526
 11
8.48308
 21
262.517
  0
LINE
  8
0
 10
8.48308
 20
262.517
 11
9.29327
 21
262.51
  0
LINE
  8
0
 10
9.29327
 20
262.51
 11
10.1875
 21
262.505
  0
LINE
  8
0
 10
10.1875
 20
262.505
 11
11.1705
 21
262.502
  0
LINE
  8
0
 10
11.1705
 20
262.502
 11
12.247
 21
262.5
  0
LINE
  8
0
 10
12.247
 20
262.5
 11
13.4219
 21
262.5
  0
LINE
  8
0
 10
13.4219
 20
262.5
 11
22.6611
 21
262.5
  0
LINE
  8
0
 10
22.6611
 20
262.5
 11
22.6611
 21
258.5
  0
LINE
  8
0
 10
22.6611
 20
258.5
 11
22.6867
 21
255.89
  0
LINE
  8
0
 10
22.6867
 20
255.89
 11
22.7625
 21
253.243
  0
LINE
  8
0
 10
22.7625
 20
253.243
 11
22.8871
 21
250.565
  0
LINE
  8
0
 10
22.8871
 20
250.565
 11
23.0592
 21
247.862
  0
LINE
  8
0
 10
23.0592
 20
247.862
 11
23.2774
 21
245.143
  0
LINE
  8
0
 10
23.2774
 20
245.143
 11
23.5404
 21
242.413
  0
LINE
  8
0
 10
23.5404
 20
242.413
 11
23.8468
 21
239.68
  0
LINE
  8
0
 10
23.8468
 20
239.68
 11
24.1952
 21
236.95
  0
LINE
  8
0
 10
24.1952
 20
236.95
 11
24.5843
 21
234.231
  0
LINE
  8
0
 10
24.5843
 20
234.231
 11
25.0128
 21
231.53
  0
LINE
  8
0
 10
25.0128
 20
231.53
 11
25.4792
 21
228.853
  0
LINE
  8
0
 10
25.4792
 20
228.853
 11
25.9822
 21
226.207
  0
LINE
  8
0
 10
25.9822
 20
226.207
 11
26.5204
 21
223.6
  0
LINE
  8
0
 10
26.5204
 20
223.6
 11
27.0926
 21
221.037
  0
LINE
  8
0
 10
27.0926
 20
221.037
 11
27.6973
 21
218.527
  0
LINE
  8
0
 10
27.6973
 20
218.527
 11
28.3331
 21
216.076
  0
LINE
  8
0
 10
28.3331
 20
216.076
 11
28.9987
 21
213.691
  0
LINE
  8
0
 10
28.9987
 20
213.691
 11
29.6928
 21
211.378
  0
LINE
  8
0
 10
29.6928
 20
211.378
 11
30.414
 21
209.146
  0
LINE
  8
0
 10
30.414
 20
209.146
 11
31.1609
 21
207
  0
LINE
  8
0
 10
31.1609
 20
207
 11
31.9575
 21
204.843
  0
LINE
  8
0
 10
31.9575
 20
204.843
 11
32.7638
 21
202.757
  0
LINE
  8
0
 10
32.7638
 20
202.757
 11
33.5856
 21
200.733
  0
LINE
  8
0
 10
33.5856
 20
200.733
 11
34.4289
 21
198.763
  0
LINE
  8
0
 10
34.4289
 20
198.763
 11
35.2996
 21
196.839
  0
LINE
  8
0
 10
35.2996
 20
196.839
 11
36.2035
 21
194.951
  0
LINE
  8
0
 10
36.2035
 20
194.951
 11
37.1467
 21
193.091
  0
LINE
  8
0
 10
37.1467
 20
193.091
 11
38.1349
 21
191.25
  0
LINE
  8
0
 10
38.1349
 20
191.25
 11
39.1741
 21
189.419
  0
LINE
  8
0
 10
39.1741
 20
189.419
 11
40.2703
 21
187.59
  0
LINE
  8
0
 10
40.2703
 20
187.59
 11
41.4293
 21
185.755
  0
LINE
  8
0
 10
41.4293
 20
185.755
 11
42.657
 21
183.904
  0
LINE
  8
0
 10
42.657
 20
183.904
 11
43.9593
 21
182.029
  0
LINE
  8
0
 10
43.9593
 20
182.029
 11
45.3421
 21
180.121
  0
LINE
  8
0
 10
45.3421
 20
180.121
 11
46.8114
 21
178.172
  0
LINE
  8
0
 10
46.8114
 20
178.172
 11
48.373
 21
176.172
  0
LINE
  8
0
 10
48.373
 20
176.172
 11
50.0329
 21
174.114
  0
LINE
  8
0
 10
50.0329
 20
174.114
 11
51.797
 21
171.988
  0
LINE
  8
0
 10
51.797
 20
171.988
 11
53.6711
 21
169.786
  0
LINE
  8
0
 10
53.6711
 20
169.786
 11
55.6612
 21
167.5
  0
LINE
  8
0
 10
55.6612
 20
167.5
 11
56.8757
 21
166.114
  0
LINE
  8
0
 10
56.8757
 20
166.114
 11
58.0138
 21
164.807
  0
LINE
  8
0
 10
58.0138
 20
164.807
 11
59.0782
 21
163.572
  0
LINE
  8
0
 10
59.0782
 20
163.572
 11
60.0719
 21
162.404
  0
LINE
  8
0
 10
60.0719
 20
162.404
 11
60.9979
 21
161.298
  0
LINE
  8
0
 10
60.9979
 20
161.298
 11
61.859
 21
160.248
  0
LINE
  8
0
 10
61.859
 20
160.248
 11
62.6582
 21
159.25
  0
LINE
  8
0
 10
62.6582
 20
159.25
 11
63.3984
 21
158.298
  0
LINE
  8
0
 10
63.3984
 20
158.298
 11
64.0824
 21
157.386
  0
LINE
  8
0
 10
64.0824
 20
157.386
 11
64.7134
 21
156.51
  0
LINE
  8
0
 10
64.7134
 20
156.51
 11
65.294
 21
155.664
  0
LINE
  8
0
 10
65.294
 20
155.664
 11
65.8274
 21
154.843
  0
LINE
  8
0
 10
65.8274
 20
154.843
 11
66.3163
 21
154.042
  0
LINE
  8
0
 10
66.3163
 20
154.042
 11
66.7637
 21
153.254
  0
LINE
  8
0
 10
66.7637
 20
153.254
 11
67.1726
 21
152.476
  0
LINE
  8
0
 10
67.1726
 20
152.476
 11
67.5458
 21
151.701
  0
LINE
  8
0
 10
67.5458
 20
151.701
 11
67.8863
 21
150.925
  0
LINE
  8
0
 10
67.8863
 20
150.925
 11
68.1969
 21
150.141
  0
LINE
  8
0
 10
68.1969
 20
150.141
 11
68.4807
 21
149.346
  0
LINE
  8
0
 10
68.4807
 20
149.346
 11
68.7405
 21
148.533
  0
LINE
  8
0
 10
68.7405
 20
148.533
 11
68.915
 21
147.906
  0
LINE
  8
0
 10
68.915
 20
147.906
 11
69.0665
 21
147.273
  0
LINE
  8
0
 10
69.0665
 20
147.273
 11
69.1957
 21
146.634
  0
LINE
  8
0
 10
69.1957
 20
146.634
 11
69.3034
 21
145.988
  0
LINE
  8
0
 10
69.3034
 20
145.988
 11
69.3901
 21
145.336
  0
LINE
  8
0
 10
69.3901
 20
145.336
 11
69.4566
 21
144.678
  0
LINE
  8
0
 10
69.4566
 20
144.678
 11
69.5037
 21
144.014
  0
LINE
  8
0
 10
69.5037
 20
144.014
 11
69.5319
 21
143.346
  0
LINE
  8
0
 10
69.5319
 20
143.346
 11
69.5421
 21
142.672
  0
LINE
  8
0
 10
69.5421
 20
142.672
 11
69.5349
 21
141.993
  0
LINE
  8
0
 10
69.5349
 20
141.993
 11
69.511
 21
141.31
  0
LINE
  8
0
 10
69.511
 20
141.31
 11
69.4711
 21
140.623
  0
LINE
  8
0
 10
69.4711
 20
140.623
 11
69.4159
 21
139.932
  0
LINE
  8
0
 10
69.4159
 20
139.932
 11
69.3462
 21
139.236
  0
LINE
  8
0
 10
69.3462
 20
139.236
 11
69.2626
 21
138.538
  0
LINE
  8
0
 10
69.2626
 20
138.538
 11
69.1658
 21
137.836
  0
LINE
  8
0
 10
69.1658
 20
137.836
 11
69.0565
 21
137.131
  0
LINE
  8
0
 10
69.0565
 20
137.131
 11
68.9355
 21
136.423
  0
LINE
  8
0
 10
68.9355
 20
136.423
 11
68.8034
 21
135.713
  0
LINE
  8
0
 10
68.8034
 20
135.713
 11
68.6609
 21
135
  0
LINE
  8
0
 10
68.6609
 20
135
 11
68.3865
 21
133.999
  0
LINE
  8
0
 10
68.3865
 20
133.999
 11
68.099
 21
133.025
  0
LINE
  8
0
 10
68.099
 20
133.025
 11
67.7919
 21
132.066
  0
LINE
  8
0
 10
67.7919
 20
132.066
 11
67.4588
 21
131.111
  0
LINE
  8
0
 10
67.4588
 20
131.111
 11
67.0932
 21
130.149
  0
LINE
  8
0
 10
67.0932
 20
130.149
 11
66.6889
 21
129.167
  0
LINE
  8
0
 10
66.6889
 20
129.167
 11
66.2392
 21
128.155
  0
LINE
  8
0
 10
66.2392
 20
128.155
 11
65.7379
 21
127.102
  0
LINE
  8
0
 10
65.7379
 20
127.102
 11
65.1784
 21
125.996
  0
LINE
  8
0
 10
65.1784
 20
125.996
 11
64.5543
 21
124.826
  0
LINE
  8
0
 10
64.5543
 20
124.826
 11
63.8593
 21
123.581
  0
LINE
  8
0
 10
63.8593
 20
123.581
 11
63.0868
 21
122.248
  0
LINE
  8
0
 10
63.0868
 20
122.248
 11
62.2305
 21
120.817
  0
LINE
  8
0
 10
62.2305
 20
120.817
 11
61.284
 21
119.277
  0
LINE
  8
0
 10
61.284
 20
119.277
 11
60.2408
 21
117.616
  0
LINE
  8
0
 10
60.2408
 20
117.616
 11
59.0944
 21
115.823
  0
LINE
  8
0
 10
59.0944
 20
115.823
 11
57.8385
 21
113.886
  0
LINE
  8
0
 10
57.8385
 20
113.886
 11
56.4666
 21
111.795
  0
LINE
  8
0
 10
56.4666
 20
111.795
 11
54.9723
 21
109.537
  0
LINE
  8
0
 10
54.9723
 20
109.537
 11
53.3492
 21
107.102
  0
LINE
  8
0
 10
53.3492
 20
107.102
 11
52.6285
 21
106.023
  0
LINE
  8
0
 10
52.6285
 20
106.023
 11
51.907
 21
104.942
  0
LINE
  8
0
 10
51.907
 20
104.942
 11
51.1876
 21
103.863
  0
LINE
  8
0
 10
51.1876
 20
103.863
 11
50.4734
 21
102.79
  0
LINE
  8
0
 10
50.4734
 20
102.79
 11
49.7672
 21
101.728
  0
LINE
  8
0
 10
49.7672
 20
101.728
 11
49.072
 21
100.681
  0
LINE
  8
0
 10
49.072
 20
100.681
 11
48.3909
 21
99.6529
  0
LINE
  8
0
 10
48.3909
 20
99.6529
 11
47.7267
 21
98.6485
  0
LINE
  8
0
 10
47.7267
 20
98.6485
 11
47.0825
 21
97.6719
  0
LINE
  8
0
 10
47.0825
 20
97.6719
 11
46.4612
 21
96.7275
  0
LINE
  8
0
 10
46.4612
 20
96.7275
 11
45.8658
 21
95.8196
  0
LINE
  8
0
 10
45.8658
 20
95.8196
 11
45.2992
 21
94.9524
  0
LINE
  8
0
 10
45.2992
 20
94.9524
 11
44.7645
 21
94.1303
  0
LINE
  8
0
 10
44.7645
 20
94.1303
 11
44.2645
 21
93.3577
  0
LINE
  8
0
 10
44.2645
 20
93.3577
 11
43.8023
 21
92.6387
  0
LINE
  8
0
 10
43.8023
 20
92.6387
 11
43.3808
 21
91.9777
  0
LINE
  8
0
 10
43.3808
 20
91.9777
 11
43.0029
 21
91.3791
  0
LINE
  8
0
 10
43.0029
 20
91.3791
 11
42.6718
 21
90.8471
  0
LINE
  8
0
 10
42.6718
 20
90.8471
 11
42.3902
 21
90.386
  0
LINE
  8
0
 10
42.3902
 20
90.386
 11
42.1612
 21
90.0002
  0
LINE
  8
0
 10
42.1612
 20
90.0002
 11
40.4027
 21
86.8819
  0
LINE
  8
0
 10
40.4027
 20
86.8819
 11
38.7586
 21
83.7737
  0
LINE
  8
0
 10
38.7586
 20
83.7737
 11
37.2241
 21
80.672
  0
LINE
  8
0
 10
37.2241
 20
80.672
 11
35.7943
 21
77.5733
  0
LINE
  8
0
 10
35.7943
 20
77.5733
 11
34.4643
 21
74.474
  0
LINE
  8
0
 10
34.4643
 20
74.474
 11
33.2292
 21
71.3703
  0
LINE
  8
0
 10
33.2292
 20
71.3703
 11
32.0842
 21
68.2589
  0
LINE
  8
0
 10
32.0842
 20
68.2589
 11
31.0243
 21
65.1359
  0
LINE
  8
0
 10
31.0243
 20
65.1359
 11
30.0447
 21
61.9979
  0
LINE
  8
0
 10
30.0447
 20
61.9979
 11
29.1405
 21
58.8412
  0
LINE
  8
0
 10
29.1405
 20
58.8412
 11
28.3068
 21
55.6621
  0
LINE
  8
0
 10
28.3068
 20
55.6621
 11
27.5387
 21
52.4572
  0
LINE
  8
0
 10
27.5387
 20
52.4572
 11
26.8313
 21
49.2228
  0
LINE
  8
0
 10
26.8313
 20
49.2228
 11
26.1797
 21
45.9553
  0
LINE
  8
0
 10
26.1797
 20
45.9553
 11
25.5791
 21
42.651
  0
LINE
  8
0
 10
25.5791
 20
42.651
 11
25.0246
 21
39.3064
  0
LINE
  8
0
 10
25.0246
 20
39.3064
 11
24.5112
 21
35.9179
  0
LINE
  8
0
 10
24.5112
 20
35.9179
 11
24.0341
 21
32.4819
  0
LINE
  8
0
 10
24.0341
 20
32.4819
 11
23.5883
 21
28.9947
  0
LINE
  8
0
 10
23.5883
 20
28.9947
 11
23.1691
 21
25.4527
  0
LINE
  8
0
 10
23.1691
 20
25.4527
 11
22.6611
 21
20.9998
  0
LINE
  8
0
 10
22.6611
 20
20.9998
 11
13.5609
 21
20.9998
  0
LINE
  8
0
 10
13.5609
 20
20.9998
 11
12.372
 21
20.9886
  0
LINE
  8
0
 10
12.372
 20
20.9886
 11
11.2822
 21
20.9784
  0
LINE
  8
0
 10
11.2822
 20
20.9784
 11
10.2867
 21
20.9687
  0
LINE
  8
0
 10
10.2867
 20
20.9687
 11
9.38086
 21
20.9593
  0
LINE
  8
0
 10
9.38086
 20
20.9593
 11
8.55977
 21
20.9496
  0
LINE
  8
0
 10
8.55977
 20
20.9496
 11
7.81866
 21
20.9392
  0
LINE
  8
0
 10
7.81866
 20
20.9392
 11
7.15277
 21
20.9278
  0
LINE
  8
0
 10
7.15277
 20
20.9278
 11
6.5573
 21
20.915
  0
LINE
  8
0
 10
6.5573
 20
20.915
 11
6.02744
 21
20.9003
  0
LINE
  8
0
 10
6.02744
 20
20.9003
 11
5.55843
 21
20.8834
  0
LINE
  8
0
 10
5.55843
 20
20.8834
 11
5.14546
 21
20.8637
  0
LINE
  8
0
 10
5.14546
 20
20.8637
 11
4.78377
 21
20.841
  0
LINE
  8
0
 10
4.78377
 20
20.841
 11
4.46855
 21
20.8149
  0
LINE
  8
0
 10
4.46855
 20
20.8149
 11
4.19501
 21
20.7848
  0
LINE
  8
0
 10
4.19501
 20
20.7848
 11
3.95837
 21
20.7504
  0
LINE
  8
0
 10
3.95837
 20
20.7504
 11
3.75385
 21
20.7114
  0
LINE
  8
0
 10
3.75385
 20
20.7114
 11
3.57663
 21
20.6672
  0
LINE
  8
0
 10
3.57663
 20
20.6672
 11
3.42195
 21
20.6176
  0
LINE
  8
0
 10
3.42195
 20
20.6176
 11
3.28502
 21
20.562
  0
LINE
  8
0
 10
3.28502
 20
20.562
 11
3.16104
 21
20.5001
  0
LINE
  8
0
 10
3.16104
 20
20.5001
 11
2.97733
 21
20.3927
  0
LINE
  8
0
 10
2.97733
 20
20.3927
 11
2.79594
 21
20.2734
  0
LINE
  8
0
 10
2.79594
 20
20.2734
 11
2.61737
 21
20.1429
  0
LINE
  8
0
 10
2.61737
 20
20.1429
 11
2.44205
 21
20.0021
  0
LINE
  8
0
 10
2.44205
 20
20.0021
 11
2.27046
 21
19.8518
  0
LINE
  8
0
 10
2.27046
 20
19.8518
 11
2.10307
 21
19.6928
  0
LINE
  8
0
 10
2.10307
 20
19.6928
 11
1.94034
 21
19.5258
  0
LINE
  8
0
 10
1.94034
 20
19.5258
 11
1.78273
 21
19.3517
  0
LINE
  8
0
 10
1.78273
 20
19.3517
 11
1.63072
 21
19.1713
  0
LINE
  8
0
 10
1.63072
 20
19.1713
 11
1.48477
 21
18.9854
  0
LINE
  8
0
 10
1.48477
 20
18.9854
 11
1.34534
 21
18.7948
  0
LINE
  8
0
 10
1.34534
 20
18.7948
 11
1.21291
 21
18.6003
  0
LINE
  8
0
 10
1.21291
 20
18.6003
 11
1.08792
 21
18.4026
  0
LINE
  8
0
 10
1.08792
 20
18.4026
 11
0.970856
 21
18.2027
  0
LINE
  8
0
 10
0.970856
 20
18.2027
 11
0.862183
 21
18.0013
  0
LINE
  8
0
 10
0.862183
 20
18.0013
 11
0.76236
 21
17.7992
  0
LINE
  8
0
 10
0.76236
 20
17.7992
 11
0.671875
 21
17.5972
  0
LINE
  8
0
 10
0.671875
 20
17.5972
 11
0.591156
 21
17.3962
  0
LINE
  8
0
 10
0.591156
 20
17.3962
 11
0.520691
 21
17.1968
  0
LINE
  8
0
 10
0.520691
 20
17.1968
 11
0.460953
 21
17
  0
LINE
  8
0
 10
0.460953
 20
17
 11
0.309723
 21
16.2491
  0
LINE
  8
0
 10
0.309723
 20
16.2491
 11
0.192703
 21
15.4705
  0
LINE
  8
0
 10
0.192703
 20
15.4705
 11
0.106583
 21
14.6671
  0
LINE
  8
0
 10
0.106583
 20
14.6671
 11
0.0480347
 21
13.8418
  0
LINE
  8
0
 10
0.0480347
 20
13.8418
 11
0.0137634
 21
12.9974
  0
LINE
  8
0
 10
0.0137634
 20
12.9974
 11
0.000442505
 21
12.1368
  0
LINE
  8
0
 10
0.000442505
 20
12.1368
 11
0.004776
 21
11.2629
  0
LINE
  8
0
 10
0.004776
 20
11.2629
 11
0.0234528
 21
10.3785
  0
LINE
  8
0
 10
0.0234528
 20
10.3785
 11
0.0531616
 21
9.48665
  0
LINE
  8
0
 10
0.0531616
 20
9.48665
 11
0.0905914
 21
8.59007
  0
LINE
  8
0
 10
0.0905914
 20
8.59007
 11
0.132431
 21
7.69171
  0
LINE
  8
0
 10
0.132431
 20
7.69171
 11
0.175369
 21
6.79442
  0
LINE
  8
0
 10
0.175369
 20
6.79442
 11
0.216095
 21
5.90108
  0
LINE
  8
0
 10
0.216095
 20
5.90108
 11
0.251297
 21
5.01457
  0
LINE
  8
0
 10
0.251297
 20
5.01457
 11
0.277679
 21
4.13777
  0
LINE
  8
0
 10
0.277679
 20
4.13777
 11
0.291916
 21
3.27356
  0
LINE
  8
0
 10
0.291916
 20
3.27356
 11
0.290695
 21
2.4248
  0
LINE
  8
0
 10
0.290695
 20
2.4248
 11
0.270706
 21
1.59438
  0
LINE
  8
0
 10
0.270706
 20
1.59438
 11
0.228653
 21
0.785172
  0
LINE
  8
0
 10
0.228653
 20
0.785172
 11
0.161224
 21
4.57764e-05
  0
LINE
  8
0
 10
0.161224
 20
4.57764e-05
 11
200
 21
4.57764e-05
  0
LINE
  8
0
 10
200
 20
4.57764e-05
 11
199.933
 21
0.785172
  0
ENDSEC
  0
SECTION
  2
OBJECTS
  0
DICTIONARY
  0
ENDSEC
  0
EOF
