  0
SECTION
  2
BLOCKS
  0
ENDSEC
  0
SECTION
  2
ENTITIES
  0
LINE
  8
0
 10
74.9145
 20
0.330643
 11
74.8987
 21
0.671356
  0
LINE
  8
0
 10
74.8987
 20
0.671356
 11
74.8912
 21
1.02101
  0
LINE
  8
0
 10
74.8912
 20
1.02101
 11
74.8907
 21
1.37839
  0
LINE
  8
0
 10
74.8907
 20
1.37839
 11
74.8961
 21
1.74226
  0
LINE
  8
0
 10
74.8961
 20
1.74226
 11
74.9059
 21
2.11145
  0
LINE
  8
0
 10
74.9059
 20
2.11145
 11
74.9191
 21
2.48471
  0
LINE
  8
0
 10
74.9191
 20
2.48471
 11
74.9344
 21
2.86086
  0
LINE
  8
0
 10
74.9344
 20
2.86086
 11
74.9504
 21
3.23866
  0
LINE
  8
0
 10
74.9504
 20
3.23866
 11
74.9661
 21
3.61691
  0
LINE
  8
0
 10
74.9661
 20
3.61691
 11
74.9801
 21
3.99442
  0
LINE
  8
0
 10
74.9801
 20
3.99442
 11
74.9912
 21
4.36995
  0
LINE
  8
0
 10
74.9912
 20
4.36995
 11
74.9982
 21
4.74229
  0
LINE
  8
0
 10
74.9982
 20
4.74229
 11
74.9998
 21
5.11026
  0
LINE
  8
0
 10
74.9998
 20
5.11026
 11
74.9948
 21
5.47261
  0
LINE
  8
0
 10
74.9948
 20
5.47261
 11
74.982
 21
5.82816
  0
LINE
  8
0
 10
74.982
 20
5.82816
 11
74.96
 21
6.17567
  0
LINE
  8
0
 10
74.96
 20
6.17567
 11
74.9277
 21
6.51395
  0
LINE
  8
0
 10
74.9277
 20
6.51395
 11
74.8839
 21
6.84178
  0
LINE
  8
0
 10
74.8839
 20
6.84178
 11
74.8272
 21
7.15794
  0
LINE
  8
0
 10
74.8272
 20
7.15794
 11
74.8049
 21
7.24081
  0
LINE
  8
0
 10
74.8049
 20
7.24081
 11
74.7784
 21
7.32474
  0
LINE
  8
0
 10
74.7784
 20
7.32474
 11
74.7482
 21
7.40939
  0
LINE
  8
0
 10
74.7482
 20
7.40939
 11
74.7143
 21
7.49445
  0
LINE
  8
0
 10
74.7143
 20
7.49445
 11
74.6769
 21
7.57953
  0
LINE
  8
0
 10
74.6769
 20
7.57953
 11
74.6362
 21
7.66434
  0
LINE
  8
0
 10
74.6362
 20
7.66434
 11
74.5923
 21
7.74852
  0
LINE
  8
0
 10
74.5923
 20
7.74852
 11
74.5455
 21
7.83173
  0
LINE
  8
0
 10
74.5455
 20
7.83173
 11
74.4958
 21
7.91364
  0
LINE
  8
0
 10
74.4958
 20
7.91364
 11
74.4436
 21
7.9939
  0
LINE
  8
0
 10
74.4436
 20
7.9939
 11
74.3889
 21
8.07217
  0
LINE
  8
0
 10
74.3889
 20
8.07217
 11
74.332
 21
8.14813
  0
LINE
  8
0
 10
74.332
 20
8.14813
 11
74.2729
 21
8.22144
  0
LINE
  8
0
 10
74.2729
 20
8.22144
 11
74.2119
 21
8.29173
  0
LINE
  8
0
 10
74.2119
 20
8.29173
 11
74.1492
 21
8.3587
  0
LINE
  8
0
 10
74.1492
 20
8.3587
 11
74.0849
 21
8.422
  0
LINE
  8
0
 10
74.0849
 20
8.422
 11
74.0192
 21
8.48128
  0
LINE
  8
0
 10
74.0192
 20
8.48128
 11
73.9523
 21
8.53621
  0
LINE
  8
0
 10
73.9523
 20
8.53621
 11
73.8844
 21
8.58644
  0
LINE
  8
0
 10
73.8844
 20
8.58644
 11
73.8155
 21
8.63165
  0
LINE
  8
0
 10
73.8155
 20
8.63165
 11
73.7691
 21
8.65771
  0
LINE
  8
0
 10
73.7691
 20
8.65771
 11
73.7178
 21
8.68112
  0
LINE
  8
0
 10
73.7178
 20
8.68112
 11
73.6598
 21
8.70203
  0
LINE
  8
0
 10
73.6598
 20
8.70203
 11
73.5934
 21
8.72063
  0
LINE
  8
0
 10
73.5934
 20
8.72063
 11
73.5168
 21
8.73706
  0
LINE
  8
0
 10
73.5168
 20
8.73706
 11
73.4281
 21
8.75153
  0
LINE
  8
0
 10
73.4281
 20
8.75153
 11
73.3256
 21
8.76419
  0
LINE
  8
0
 10
73.3256
 20
8.76419
 11
73.2075
 21
8.77521
  0
LINE
  8
0
 10
73.2075
 20
8.77521
 11
73.072
 21
8.78477
  0
LINE
  8
0
 10
73.072
 20
8.78477
 11
72.9172
 21
8.79303
  0
LINE
  8
0
 10
72.9172
 20
8.79303
 11
72.7415
 21
8.80017
  0
LINE
  8
0
 10
72.7415
 20
8.80017
 11
72.5429
 21
8.80635
  0
LINE
  8
0
 10
72.5429
 20
8.80635
 11
72.3198
 21
8.81177
  0
LINE
  8
0
 10
72.3198
 20
8.81177
 11
72.0703
 21
8.81656
  0
LINE
  8
0
 10
72.0703
 20
8.81656
 11
71.7926
 21
8.82091
  0
LINE
  8
0
 10
71.7926
 20
8.82091
 11
71.485
 21
8.825
  0
LINE
  8
0
 10
71.485
 20
8.825
 11
71.1455
 21
8.82898
  0
LINE
  8
0
 10
71.1455
 20
8.82898
 11
70.7725
 21
8.83304
  0
LINE
  8
0
 10
70.7725
 20
8.83304
 11
69.9187
 21
8.84206
  0
LINE
  8
0
 10
69.9187
 20
8.84206
 11
66.5089
 21
8.84206
  0
LINE
  8
0
 10
66.5089
 20
8.84206
 11
66.3185
 21
10.717
  0
LINE
  8
0
 10
66.3185
 20
10.717
 11
66.1614
 21
12.2083
  0
LINE
  8
0
 10
66.1614
 20
12.2083
 11
65.9944
 21
13.6766
  0
LINE
  8
0
 10
65.9944
 20
13.6766
 11
65.8157
 21
15.1234
  0
LINE
  8
0
 10
65.8157
 20
15.1234
 11
65.6233
 21
16.5501
  0
LINE
  8
0
 10
65.6233
 20
16.5501
 11
65.4155
 21
17.9584
  0
LINE
  8
0
 10
65.4155
 20
17.9584
 11
65.1905
 21
19.3496
  0
LINE
  8
0
 10
65.1905
 20
19.3496
 11
64.9464
 21
20.7254
  0
LINE
  8
0
 10
64.9464
 20
20.7254
 11
64.6813
 21
22.0873
  0
LINE
  8
0
 10
64.6813
 20
22.0873
 11
64.3935
 21
23.4367
  0
LINE
  8
0
 10
64.3935
 20
23.4367
 11
64.0811
 21
24.7753
  0
LINE
  8
0
 10
64.0811
 20
24.7753
 11
63.7423
 21
26.1044
  0
LINE
  8
0
 10
63.7423
 20
26.1044
 11
63.3753
 21
27.4257
  0
LINE
  8
0
 10
63.3753
 20
27.4257
 11
62.9782
 21
28.7406
  0
LINE
  8
0
 10
62.9782
 20
28.7406
 11
62.5492
 21
30.0507
  0
LINE
  8
0
 10
62.5492
 20
30.0507
 11
62.0864
 21
31.3575
  0
LINE
  8
0
 10
62.0864
 20
31.3575
 11
61.5881
 21
32.6625
  0
LINE
  8
0
 10
61.5881
 20
32.6625
 11
61.0523
 21
33.9672
  0
LINE
  8
0
 10
61.0523
 20
33.9672
 11
60.4774
 21
35.2731
  0
LINE
  8
0
 10
60.4774
 20
35.2731
 11
59.8613
 21
36.5819
  0
LINE
  8
0
 10
59.8613
 20
36.5819
 11
59.2024
 21
37.8949
  0
LINE
  8
0
 10
59.2024
 20
37.8949
 11
59.1166
 21
38.0573
  0
LINE
  8
0
 10
59.1166
 20
38.0573
 11
59.0111
 21
38.2514
  0
LINE
  8
0
 10
59.0111
 20
38.2514
 11
58.887
 21
38.4754
  0
LINE
  8
0
 10
58.887
 20
38.4754
 11
58.7454
 21
38.7275
  0
LINE
  8
0
 10
58.7454
 20
38.7275
 11
58.5875
 21
39.0058
  0
LINE
  8
0
 10
58.5875
 20
39.0058
 11
58.4143
 21
39.3085
  0
LINE
  8
0
 10
58.4143
 20
39.3085
 11
58.2269
 21
39.6339
  0
LINE
  8
0
 10
58.2269
 20
39.6339
 11
58.0265
 21
39.98
  0
LINE
  8
0
 10
58.0265
 20
39.98
 11
57.8142
 21
40.3451
  0
LINE
  8
0
 10
57.8142
 20
40.3451
 11
57.5911
 21
40.7274
  0
LINE
  8
0
 10
57.5911
 20
40.7274
 11
57.3583
 21
41.125
  0
LINE
  8
0
 10
57.3583
 20
41.125
 11
57.1169
 21
41.5362
  0
LINE
  8
0
 10
57.1169
 20
41.5362
 11
56.868
 21
41.9591
  0
LINE
  8
0
 10
56.868
 20
41.9591
 11
56.6128
 21
42.392
  0
LINE
  8
0
 10
56.6128
 20
42.392
 11
56.3523
 21
42.8329
  0
LINE
  8
0
 10
56.3523
 20
42.8329
 11
56.0877
 21
43.2801
  0
LINE
  8
0
 10
56.0877
 20
43.2801
 11
55.82
 21
43.7317
  0
LINE
  8
0
 10
55.82
 20
43.7317
 11
55.5505
 21
44.1861
  0
LINE
  8
0
 10
55.5505
 20
44.1861
 11
55.2801
 21
44.6412
  0
LINE
  8
0
 10
55.2801
 20
44.6412
 11
55.0101
 21
45.0954
  0
LINE
  8
0
 10
55.0101
 20
45.0954
 11
54.4019
 21
46.1208
  0
LINE
  8
0
 10
54.4019
 20
46.1208
 11
53.842
 21
47.0714
  0
LINE
  8
0
 10
53.842
 20
47.0714
 11
53.328
 21
47.9521
  0
LINE
  8
0
 10
53.328
 20
47.9521
 11
52.8574
 21
48.7676
  0
LINE
  8
0
 10
52.8574
 20
48.7676
 11
52.4278
 21
49.5226
  0
LINE
  8
0
 10
52.4278
 20
49.5226
 11
52.0369
 21
50.222
  0
LINE
  8
0
 10
52.0369
 20
50.222
 11
51.6823
 21
50.8705
  0
LINE
  8
0
 10
51.6823
 20
50.8705
 11
51.3614
 21
51.4729
  0
LINE
  8
0
 10
51.3614
 20
51.4729
 11
51.072
 21
52.034
  0
LINE
  8
0
 10
51.072
 20
52.034
 11
50.8116
 21
52.5584
  0
LINE
  8
0
 10
50.8116
 20
52.5584
 11
50.5777
 21
53.0511
  0
LINE
  8
0
 10
50.5777
 20
53.0511
 11
50.3681
 21
53.5168
  0
LINE
  8
0
 10
50.3681
 20
53.5168
 11
50.1802
 21
53.9602
  0
LINE
  8
0
 10
50.1802
 20
53.9602
 11
50.0117
 21
54.3862
  0
LINE
  8
0
 10
50.0117
 20
54.3862
 11
49.8602
 21
54.7994
  0
LINE
  8
0
 10
49.8602
 20
54.7994
 11
49.7233
 21
55.2047
  0
LINE
  8
0
 10
49.7233
 20
55.2047
 11
49.5984
 21
55.6069
  0
LINE
  8
0
 10
49.5984
 20
55.6069
 11
49.4834
 21
56.0107
  0
LINE
  8
0
 10
49.4834
 20
56.0107
 11
49.3756
 21
56.4208
  0
LINE
  8
0
 10
49.3756
 20
56.4208
 11
49.2728
 21
56.8421
  0
LINE
  8
0
 10
49.2728
 20
56.8421
 11
49.2194
 21
57.1422
  0
LINE
  8
0
 10
49.2194
 20
57.1422
 11
49.1699
 21
57.4412
  0
LINE
  8
0
 10
49.1699
 20
57.4412
 11
49.1246
 21
57.7392
  0
LINE
  8
0
 10
49.1246
 20
57.7392
 11
49.0836
 21
58.0361
  0
LINE
  8
0
 10
49.0836
 20
58.0361
 11
49.0474
 21
58.3316
  0
LINE
  8
0
 10
49.0474
 20
58.3316
 11
49.0161
 21
58.6259
  0
LINE
  8
0
 10
49.0161
 20
58.6259
 11
48.9899
 21
58.9186
  0
LINE
  8
0
 10
48.9899
 20
58.9186
 11
48.9693
 21
59.2097
  0
LINE
  8
0
 10
48.9693
 20
59.2097
 11
48.9543
 21
59.4991
  0
LINE
  8
0
 10
48.9543
 20
59.4991
 11
48.9454
 21
59.7867
  0
LINE
  8
0
 10
48.9454
 20
59.7867
 11
48.9427
 21
60.0724
  0
LINE
  8
0
 10
48.9427
 20
60.0724
 11
48.9465
 21
60.3561
  0
LINE
  8
0
 10
48.9465
 20
60.3561
 11
48.957
 21
60.6377
  0
LINE
  8
0
 10
48.957
 20
60.6377
 11
48.9747
 21
60.917
  0
LINE
  8
0
 10
48.9747
 20
60.917
 11
48.9996
 21
61.194
  0
LINE
  8
0
 10
48.9996
 20
61.194
 11
49.0321
 21
61.4685
  0
LINE
  8
0
 10
49.0321
 20
61.4685
 11
49.0724
 21
61.7405
  0
LINE
  8
0
 10
49.0724
 20
61.7405
 11
49.1208
 21
62.0098
  0
LINE
  8
0
 10
49.1208
 20
62.0098
 11
49.1776
 21
62.2764
  0
LINE
  8
0
 10
49.1776
 20
62.2764
 11
49.243
 21
62.54
  0
LINE
  8
0
 10
49.243
 20
62.54
 11
49.3403
 21
62.8824
  0
LINE
  8
0
 10
49.3403
 20
62.8824
 11
49.4467
 21
63.2175
  0
LINE
  8
0
 10
49.4467
 20
63.2175
 11
49.5631
 21
63.5473
  0
LINE
  8
0
 10
49.5631
 20
63.5473
 11
49.6907
 21
63.8742
  0
LINE
  8
0
 10
49.6907
 20
63.8742
 11
49.8305
 21
64.2005
  0
LINE
  8
0
 10
49.8305
 20
64.2005
 11
49.9837
 21
64.5282
  0
LINE
  8
0
 10
49.9837
 20
64.5282
 11
50.1514
 21
64.8597
  0
LINE
  8
0
 10
50.1514
 20
64.8597
 11
50.3346
 21
65.1972
  0
LINE
  8
0
 10
50.3346
 20
65.1972
 11
50.5345
 21
65.5429
  0
LINE
  8
0
 10
50.5345
 20
65.5429
 11
50.7521
 21
65.8991
  0
LINE
  8
0
 10
50.7521
 20
65.8991
 11
50.9885
 21
66.268
  0
LINE
  8
0
 10
50.9885
 20
66.268
 11
51.2448
 21
66.6517
  0
LINE
  8
0
 10
51.2448
 20
66.6517
 11
51.5222
 21
67.0526
  0
LINE
  8
0
 10
51.5222
 20
67.0526
 11
51.8216
 21
67.4729
  0
LINE
  8
0
 10
51.8216
 20
67.4729
 11
52.1443
 21
67.9148
  0
LINE
  8
0
 10
52.1443
 20
67.9148
 11
52.4913
 21
68.3805
  0
LINE
  8
0
 10
52.4913
 20
68.3805
 11
52.8636
 21
68.8723
  0
LINE
  8
0
 10
52.8636
 20
68.8723
 11
53.2625
 21
69.3923
  0
LINE
  8
0
 10
53.2625
 20
69.3923
 11
53.6889
 21
69.9429
  0
LINE
  8
0
 10
53.6889
 20
69.9429
 11
54.144
 21
70.5263
  0
LINE
  8
0
 10
54.144
 20
70.5263
 11
54.8897
 21
71.489
  0
LINE
  8
0
 10
54.8897
 20
71.489
 11
55.5919
 21
72.4161
  0
LINE
  8
0
 10
55.5919
 20
72.4161
 11
56.2529
 21
73.3111
  0
LINE
  8
0
 10
56.2529
 20
73.3111
 11
56.8748
 21
74.1777
  0
LINE
  8
0
 10
56.8748
 20
74.1777
 11
57.46
 21
75.0196
  0
LINE
  8
0
 10
57.46
 20
75.0196
 11
58.0105
 21
75.8404
  0
LINE
  8
0
 10
58.0105
 20
75.8404
 11
58.5286
 21
76.6437
  0
LINE
  8
0
 10
58.5286
 20
76.6437
 11
59.0166
 21
77.4332
  0
LINE
  8
0
 10
59.0166
 20
77.4332
 11
59.4766
 21
78.2126
  0
LINE
  8
0
 10
59.4766
 20
78.2126
 11
59.9108
 21
78.9854
  0
LINE
  8
0
 10
59.9108
 20
78.9854
 11
60.3215
 21
79.7554
  0
LINE
  8
0
 10
60.3215
 20
79.7554
 11
60.7109
 21
80.5261
  0
LINE
  8
0
 10
60.7109
 20
80.5261
 11
61.0812
 21
81.3013
  0
LINE
  8
0
 10
61.0812
 20
81.3013
 11
61.4346
 21
82.0845
  0
LINE
  8
0
 10
61.4346
 20
82.0845
 11
61.7733
 21
82.8795
  0
LINE
  8
0
 10
61.7733
 20
82.8795
 11
62.0995
 21
83.6898
  0
LINE
  8
0
 10
62.0995
 20
83.6898
 11
62.4155
 21
84.5192
  0
LINE
  8
0
 10
62.4155
 20
84.5192
 11
62.7234
 21
85.3712
  0
LINE
  8
0
 10
62.7234
 20
85.3712
 11
63.0255
 21
86.2495
  0
LINE
  8
0
 10
63.0255
 20
86.2495
 11
63.324
 21
87.1578
  0
LINE
  8
0
 10
63.324
 20
87.1578
 11
63.6039
 21
88.0614
  0
LINE
  8
0
 10
63.6039
 20
88.0614
 11
63.8741
 21
89.0014
  0
LINE
  8
0
 10
63.8741
 20
89.0014
 11
64.1342
 21
89.9751
  0
LINE
  8
0
 10
64.1342
 20
89.9751
 11
64.3836
 21
90.9794
  0
LINE
  8
0
 10
64.3836
 20
90.9794
 11
64.6218
 21
92.0115
  0
LINE
  8
0
 10
64.6218
 20
92.0115
 11
64.8484
 21
93.0684
  0
LINE
  8
0
 10
64.8484
 20
93.0684
 11
65.0628
 21
94.1473
  0
LINE
  8
0
 10
65.0628
 20
94.1473
 11
65.2645
 21
95.2451
  0
LINE
  8
0
 10
65.2645
 20
95.2451
 11
65.453
 21
96.3591
  0
LINE
  8
0
 10
65.453
 20
96.3591
 11
65.6277
 21
97.4863
  0
LINE
  8
0
 10
65.6277
 20
97.4863
 11
65.7883
 21
98.6237
  0
LINE
  8
0
 10
65.7883
 20
98.6237
 11
65.9341
 21
99.7685
  0
LINE
  8
0
 10
65.9341
 20
99.7685
 11
66.0646
 21
100.918
  0
LINE
  8
0
 10
66.0646
 20
100.918
 11
66.1794
 21
102.069
  0
LINE
  8
0
 10
66.1794
 20
102.069
 11
66.278
 21
103.218
  0
LINE
  8
0
 10
66.278
 20
103.218
 11
66.3597
 21
104.363
  0
LINE
  8
0
 10
66.3597
 20
104.363
 11
66.4242
 21
105.501
  0
LINE
  8
0
 10
66.4242
 20
105.501
 11
66.4709
 21
106.629
  0
LINE
  8
0
 10
66.4709
 20
106.629
 11
66.4993
 21
107.743
  0
LINE
  8
0
 10
66.4993
 20
107.743
 11
66.5089
 21
108.842
  0
LINE
  8
0
 10
66.5089
 20
108.842
 11
66.5089
 21
110.526
  0
LINE
  8
0
 10
66.5089
 20
110.526
 11
69.9708
 21
110.526
  0
LINE
  8
0
 10
69.9708
 20
110.526
 11
70.411
 21
110.526
  0
LINE
  8
0
 10
70.411
 20
110.526
 11
70.8144
 21
110.527
  0
LINE
  8
0
 10
70.8144
 20
110.527
 11
71.1827
 21
110.529
  0
LINE
  8
0
 10
71.1827
 20
110.529
 11
71.5178
 21
110.531
  0
LINE
  8
0
 10
71.5178
 20
110.531
 11
71.8214
 21
110.533
  0
LINE
  8
0
 10
71.8214
 20
110.533
 11
72.0953
 21
110.537
  0
LINE
  8
0
 10
72.0953
 20
110.537
 11
72.3413
 21
110.542
  0
LINE
  8
0
 10
72.3413
 20
110.542
 11
72.5612
 21
110.548
  0
LINE
  8
0
 10
72.5612
 20
110.548
 11
72.7567
 21
110.555
  0
LINE
  8
0
 10
72.7567
 20
110.555
 11
72.9298
 21
110.563
  0
LINE
  8
0
 10
72.9298
 20
110.563
 11
73.0821
 21
110.573
  0
LINE
  8
0
 10
73.0821
 20
110.573
 11
73.2155
 21
110.584
  0
LINE
  8
0
 10
73.2155
 20
110.584
 11
73.3318
 21
110.596
  0
LINE
  8
0
 10
73.3318
 20
110.596
 11
73.4326
 21
110.611
  0
LINE
  8
0
 10
73.4326
 20
110.611
 11
73.5199
 21
110.627
  0
LINE
  8
0
 10
73.5199
 20
110.627
 11
73.5955
 21
110.645
  0
LINE
  8
0
 10
73.5955
 20
110.645
 11
73.661
 21
110.665
  0
LINE
  8
0
 10
73.661
 20
110.665
 11
73.7183
 21
110.686
  0
LINE
  8
0
 10
73.7183
 20
110.686
 11
73.7692
 21
110.711
  0
LINE
  8
0
 10
73.7692
 20
110.711
 11
73.8155
 21
110.737
  0
LINE
  8
0
 10
73.8155
 20
110.737
 11
73.8844
 21
110.782
  0
LINE
  8
0
 10
73.8844
 20
110.782
 11
73.9523
 21
110.832
  0
LINE
  8
0
 10
73.9523
 20
110.832
 11
74.0192
 21
110.887
  0
LINE
  8
0
 10
74.0192
 20
110.887
 11
74.0849
 21
110.946
  0
LINE
  8
0
 10
74.0849
 20
110.946
 11
74.1492
 21
111.01
  0
LINE
  8
0
 10
74.1492
 20
111.01
 11
74.2119
 21
111.077
  0
LINE
  8
0
 10
74.2119
 20
111.077
 11
74.2729
 21
111.147
  0
LINE
  8
0
 10
74.2729
 20
111.147
 11
74.332
 21
111.22
  0
LINE
  8
0
 10
74.332
 20
111.22
 11
74.3889
 21
111.296
  0
LINE
  8
0
 10
74.3889
 20
111.296
 11
74.4436
 21
111.375
  0
LINE
  8
0
 10
74.4436
 20
111.375
 11
74.4958
 21
111.455
  0
LINE
  8
0
 10
74.4958
 20
111.455
 11
74.5455
 21
111.537
  0
LINE
  8
0
 10
74.5455
 20
111.537
 11
74.5923
 21
111.62
  0
LINE
  8
0
 10
74.5923
 20
111.62
 11
74.6362
 21
111.704
  0
LINE
  8
0
 10
74.6362
 20
111.704
 11
74.6769
 21
111.789
  0
LINE
  8
0
 10
74.6769
 20
111.789
 11
74.7143
 21
111.874
  0
LINE
  8
0
 10
74.7143
 20
111.874
 11
74.7482
 21
111.959
  0
LINE
  8
0
 10
74.7482
 20
111.959
 11
74.7784
 21
112.044
  0
LINE
  8
0
 10
74.7784
 20
112.044
 11
74.8049
 21
112.128
  0
LINE
  8
0
 10
74.8049
 20
112.128
 11
74.8272
 21
112.211
  0
LINE
  8
0
 10
74.8272
 20
112.211
 11
74.85
 21
112.597
  0
LINE
  8
0
 10
74.85
 20
112.597
 11
74.8698
 21
112.982
  0
LINE
  8
0
 10
74.8698
 20
112.982
 11
74.8868
 21
113.366
  0
LINE
  8
0
 10
74.8868
 20
113.366
 11
74.9012
 21
113.75
  0
LINE
  8
0
 10
74.9012
 20
113.75
 11
74.9132
 21
114.133
  0
LINE
  8
0
 10
74.9132
 20
114.133
 11
74.923
 21
114.515
  0
LINE
  8
0
 10
74.923
 20
114.515
 11
74.9308
 21
114.898
  0
LINE
  8
0
 10
74.9308
 20
114.898
 11
74.9368
 21
115.281
  0
LINE
  8
0
 10
74.9368
 20
115.281
 11
74.9412
 21
115.664
  0
LINE
  8
0
 10
74.9412
 20
115.664
 11
74.9441
 21
116.049
  0
LINE
  8
0
 10
74.9441
 20
116.049
 11
74.9459
 21
116.434
  0
LINE
  8
0
 10
74.9459
 20
116.434
 11
74.9467
 21
116.821
  0
LINE
  8
0
 10
74.9467
 20
116.821
 11
74.9466
 21
117.21
  0
LINE
  8
0
 10
74.9466
 20
117.21
 11
74.9459
 21
117.6
  0
LINE
  8
0
 10
74.9459
 20
117.6
 11
74.9448
 21
117.993
  0
LINE
  8
0
 10
74.9448
 20
117.993
 11
74.942
 21
118.786
  0
LINE
  8
0
 10
74.942
 20
118.786
 11
74.9408
 21
119.188
  0
LINE
  8
0
 10
74.9408
 20
119.188
 11
74.94
 21
119.592
  0
LINE
  8
0
 10
74.94
 20
119.592
 11
74.9397
 21
120
  0
LINE
  8
0
 10
74.9397
 20
120
 11
0.0604095
 21
120
  0
LINE
  8
0
 10
0.0604095
 20
120
 11
0.0601349
 21
119.592
  0
LINE
  8
0
 10
0.0601349
 20
119.592
 11
0.0592957
 21
119.188
  0
LINE
  8
0
 10
0.0592957
 20
119.188
 11
0.0580902
 21
118.786
  0
LINE
  8
0
 10
0.0580902
 20
118.786
 11
0.0553436
 21
117.993
  0
LINE
  8
0
 10
0.0553436
 20
117.993
 11
0.0542145
 21
117.6
  0
LINE
  8
0
 10
0.0542145
 20
117.6
 11
0.0535126
 21
117.21
  0
LINE
  8
0
 10
0.0535126
 20
117.21
 11
0.053421
 21
116.821
  0
LINE
  8
0
 10
0.053421
 20
116.821
 11
0.0541534
 21
116.434
  0
LINE
  8
0
 10
0.0541534
 20
116.434
 11
0.0559082
 21
116.049
  0
LINE
  8
0
 10
0.0559082
 20
116.049
 11
0.0588684
 21
115.664
  0
LINE
  8
0
 10
0.0588684
 20
115.664
 11
0.0632324
 21
115.281
  0
LINE
  8
0
 10
0.0632324
 20
115.281
 11
0.0692139
 21
114.898
  0
LINE
  8
0
 10
0.0692139
 20
114.898
 11
0.0769958
 21
114.515
  0
LINE
  8
0
 10
0.0769958
 20
114.515
 11
0.086792
 21
114.133
  0
LINE
  8
0
 10
0.086792
 20
114.133
 11
0.0987854
 21
113.75
  0
LINE
  8
0
 10
0.0987854
 20
113.75
 11
0.113174
 21
113.366
  0
LINE
  8
0
 10
0.113174
 20
113.366
 11
0.130157
 21
112.982
  0
LINE
  8
0
 10
0.130157
 20
112.982
 11
0.149933
 21
112.597
  0
LINE
  8
0
 10
0.149933
 20
112.597
 11
0.172714
 21
112.211
  0
LINE
  8
0
 10
0.172714
 20
112.211
 11
0.195099
 21
112.128
  0
LINE
  8
0
 10
0.195099
 20
112.128
 11
0.221497
 21
112.044
  0
LINE
  8
0
 10
0.221497
 20
112.044
 11
0.25174
 21
111.959
  0
LINE
  8
0
 10
0.25174
 20
111.959
 11
0.28566
 21
111.874
  0
LINE
  8
0
 10
0.28566
 20
111.874
 11
0.323059
 21
111.789
  0
LINE
  8
0
 10
0.323059
 20
111.789
 11
0.363785
 21
111.704
  0
LINE
  8
0
 10
0.363785
 20
111.704
 11
0.407639
 21
111.62
  0
LINE
  8
0
 10
0.407639
 20
111.62
 11
0.454468
 21
111.537
  0
LINE
  8
0
 10
0.454468
 20
111.537
 11
0.504089
 21
111.455
  0
LINE
  8
0
 10
0.504089
 20
111.455
 11
0.556335
 21
111.375
  0
LINE
  8
0
 10
0.556335
 20
111.375
 11
0.611023
 21
111.296
  0
LINE
  8
0
 10
0.611023
 20
111.296
 11
0.667984
 21
111.22
  0
LINE
  8
0
 10
0.667984
 20
111.22
 11
0.727036
 21
111.147
  0
LINE
  8
0
 10
0.727036
 20
111.147
 11
0.78801
 21
111.077
  0
LINE
  8
0
 10
0.78801
 20
111.077
 11
0.850739
 21
111.01
  0
LINE
  8
0
 10
0.850739
 20
111.01
 11
0.915024
 21
110.946
  0
LINE
  8
0
 10
0.915024
 20
110.946
 11
0.980728
 21
110.887
  0
LINE
  8
0
 10
0.980728
 20
110.887
 11
1.04764
 21
110.832
  0
LINE
  8
0
 10
1.04764
 20
110.832
 11
1.1156
 21
110.782
  0
LINE
  8
0
 10
1.1156
 20
110.782
 11
1.18443
 21
110.737
  0
LINE
  8
0
 10
1.18443
 20
110.737
 11
1.23073
 21
110.711
  0
LINE
  8
0
 10
1.23073
 20
110.711
 11
1.28165
 21
110.686
  0
LINE
  8
0
 10
1.28165
 20
110.686
 11
1.33897
 21
110.665
  0
LINE
  8
0
 10
1.33897
 20
110.665
 11
1.4045
 21
110.645
  0
LINE
  8
0
 10
1.4045
 20
110.645
 11
1.48001
 21
110.627
  0
LINE
  8
0
 10
1.48001
 20
110.627
 11
1.56732
 21
110.611
  0
LINE
  8
0
 10
1.56732
 20
110.611
 11
1.6682
 21
110.596
  0
LINE
  8
0
 10
1.6682
 20
110.596
 11
1.78442
 21
110.584
  0
LINE
  8
0
 10
1.78442
 20
110.584
 11
1.91782
 21
110.573
  0
LINE
  8
0
 10
1.91782
 20
110.573
 11
2.07014
 21
110.563
  0
LINE
  8
0
 10
2.07014
 20
110.563
 11
2.24321
 21
110.555
  0
LINE
  8
0
 10
2.24321
 20
110.555
 11
2.43878
 21
110.548
  0
LINE
  8
0
 10
2.43878
 20
110.548
 11
2.65869
 21
110.542
  0
LINE
  8
0
 10
2.65869
 20
110.542
 11
2.90469
 21
110.537
  0
LINE
  8
0
 10
2.90469
 20
110.537
 11
3.17859
 21
110.533
  0
LINE
  8
0
 10
3.17859
 20
110.533
 11
3.48218
 21
110.531
  0
LINE
  8
0
 10
3.48218
 20
110.531
 11
3.81723
 21
110.529
  0
LINE
  8
0
 10
3.81723
 20
110.529
 11
4.18556
 21
110.527
  0
LINE
  8
0
 10
4.18556
 20
110.527
 11
4.58894
 21
110.526
  0
LINE
  8
0
 10
4.58894
 20
110.526
 11
5.02916
 21
110.526
  0
LINE
  8
0
 10
5.02916
 20
110.526
 11
8.49109
 21
110.526
  0
LINE
  8
0
 10
8.49109
 20
110.526
 11
8.49109
 21
108.842
  0
LINE
  8
0
 10
8.49109
 20
108.842
 11
8.50067
 21
107.743
  0
LINE
  8
0
 10
8.50067
 20
107.743
 11
8.52905
 21
106.629
  0
LINE
  8
0
 10
8.52905
 20
106.629
 11
8.57574
 21
105.501
  0
LINE
  8
0
 10
8.57574
 20
105.501
 11
8.64023
 21
104.363
  0
LINE
  8
0
 10
8.64023
 20
104.363
 11
8.722
 21
103.218
  0
LINE
  8
0
 10
8.722
 20
103.218
 11
8.82054
 21
102.069
  0
LINE
  8
0
 10
8.82054
 20
102.069
 11
8.93533
 21
100.918
  0
LINE
  8
0
 10
8.93533
 20
100.918
 11
9.0659
 21
99.7685
  0
LINE
  8
0
 10
9.0659
 20
99.7685
 11
9.2117
 21
98.6237
  0
LINE
  8
0
 10
9.2117
 20
98.6237
 11
9.37224
 21
97.4863
  0
LINE
  8
0
 10
9.37224
 20
97.4863
 11
9.547
 21
96.3591
  0
LINE
  8
0
 10
9.547
 20
96.3591
 11
9.73547
 21
95.2451
  0
LINE
  8
0
 10
9.73547
 20
95.2451
 11
9.93716
 21
94.1473
  0
LINE
  8
0
 10
9.93716
 20
94.1473
 11
10.1516
 21
93.0684
  0
LINE
  8
0
 10
10.1516
 20
93.0684
 11
10.3781
 21
92.0115
  0
LINE
  8
0
 10
10.3781
 20
92.0115
 11
10.6164
 21
90.9794
  0
LINE
  8
0
 10
10.6164
 20
90.9794
 11
10.8658
 21
89.9751
  0
LINE
  8
0
 10
10.8658
 20
89.9751
 11
11.1259
 21
89.0014
  0
LINE
  8
0
 10
11.1259
 20
89.0014
 11
11.3961
 21
88.0614
  0
LINE
  8
0
 10
11.3961
 20
88.0614
 11
11.6759
 21
87.1578
  0
LINE
  8
0
 10
11.6759
 20
87.1578
 11
11.9744
 21
86.2495
  0
LINE
  8
0
 10
11.9744
 20
86.2495
 11
12.2765
 21
85.3712
  0
LINE
  8
0
 10
12.2765
 20
85.3712
 11
12.5845
 21
84.5192
  0
LINE
  8
0
 10
12.5845
 20
84.5192
 11
12.9005
 21
83.6898
  0
LINE
  8
0
 10
12.9005
 20
83.6898
 11
13.2267
 21
82.8795
  0
LINE
  8
0
 10
13.2267
 20
82.8795
 11
13.5654
 21
82.0845
  0
LINE
  8
0
 10
13.5654
 20
82.0845
 11
13.9188
 21
81.3013
  0
LINE
  8
0
 10
13.9188
 20
81.3013
 11
14.2891
 21
80.5261
  0
LINE
  8
0
 10
14.2891
 20
80.5261
 11
14.6785
 21
79.7554
  0
LINE
  8
0
 10
14.6785
 20
79.7554
 11
15.0892
 21
78.9854
  0
LINE
  8
0
 10
15.0892
 20
78.9854
 11
15.5235
 21
78.2126
  0
LINE
  8
0
 10
15.5235
 20
78.2126
 11
15.9835
 21
77.4332
  0
LINE
  8
0
 10
15.9835
 20
77.4332
 11
16.4715
 21
76.6437
  0
LINE
  8
0
 10
16.4715
 20
76.6437
 11
16.9896
 21
75.8404
  0
LINE
  8
0
 10
16.9896
 20
75.8404
 11
17.5401
 21
75.0196
  0
LINE
  8
0
 10
17.5401
 20
75.0196
 11
18.1253
 21
74.1777
  0
LINE
  8
0
 10
18.1253
 20
74.1777
 11
18.7473
 21
73.3111
  0
LINE
  8
0
 10
18.7473
 20
73.3111
 11
19.4082
 21
72.4161
  0
LINE
  8
0
 10
19.4082
 20
72.4161
 11
20.1105
 21
71.489
  0
LINE
  8
0
 10
20.1105
 20
71.489
 11
20.8562
 21
70.5263
  0
LINE
  8
0
 10
20.8562
 20
70.5263
 11
21.3112
 21
69.9429
  0
LINE
  8
0
 10
21.3112
 20
69.9429
 11
21.7377
 21
69.3923
  0
LINE
  8
0
 10
21.7377
 20
69.3923
 11
22.1365
 21
68.8723
  0
LINE
  8
0
 10
22.1365
 20
68.8723
 11
22.5089
 21
68.3805
  0
LINE
  8
0
 10
22.5089
 20
68.3805
 11
22.8558
 21
67.9148
  0
LINE
  8
0
 10
22.8558
 20
67.9148
 11
23.1785
 21
67.4729
  0
LINE
  8
0
 10
23.1785
 20
67.4729
 11
23.4779
 21
67.0526
  0
LINE
  8
0
 10
23.4779
 20
67.0526
 11
23.7553
 21
66.6517
  0
LINE
  8
0
 10
23.7553
 20
66.6517
 11
24.0116
 21
66.268
  0
LINE
  8
0
 10
24.0116
 20
66.268
 11
24.248
 21
65.8991
  0
LINE
  8
0
 10
24.248
 20
65.8991
 11
24.4656
 21
65.5429
  0
LINE
  8
0
 10
24.4656
 20
65.5429
 11
24.6654
 21
65.1972
  0
LINE
  8
0
 10
24.6654
 20
65.1972
 11
24.8486
 21
64.8597
  0
LINE
  8
0
 10
24.8486
 20
64.8597
 11
25.0163
 21
64.5282
  0
LINE
  8
0
 10
25.0163
 20
64.5282
 11
25.1694
 21
64.2005
  0
LINE
  8
0
 10
25.1694
 20
64.2005
 11
25.3093
 21
63.8742
  0
LINE
  8
0
 10
25.3093
 20
63.8742
 11
25.4369
 21
63.5473
  0
LINE
  8
0
 10
25.4369
 20
63.5473
 11
25.5533
 21
63.2175
  0
LINE
  8
0
 10
25.5533
 20
63.2175
 11
25.6596
 21
62.8824
  0
LINE
  8
0
 10
25.6596
 20
62.8824
 11
25.7569
 21
62.54
  0
LINE
  8
0
 10
25.7569
 20
62.54
 11
25.8223
 21
62.2764
  0
LINE
  8
0
 10
25.8223
 20
62.2764
 11
25.8791
 21
62.0098
  0
LINE
  8
0
 10
25.8791
 20
62.0098
 11
25.9275
 21
61.7405
  0
LINE
  8
0
 10
25.9275
 20
61.7405
 11
25.9678
 21
61.4685
  0
LINE
  8
0
 10
25.9678
 20
61.4685
 11
26.0004
 21
61.194
  0
LINE
  8
0
 10
26.0004
 20
61.194
 11
26.0253
 21
60.917
  0
LINE
  8
0
 10
26.0253
 20
60.917
 11
26.0429
 21
60.6377
  0
LINE
  8
0
 10
26.0429
 20
60.6377
 11
26.0535
 21
60.3561
  0
LINE
  8
0
 10
26.0535
 20
60.3561
 11
26.0573
 21
60.0724
  0
LINE
  8
0
 10
26.0573
 20
60.0724
 11
26.0546
 21
59.7867
  0
LINE
  8
0
 10
26.0546
 20
59.7867
 11
26.0456
 21
59.4991
  0
LINE
  8
0
 10
26.0456
 20
59.4991
 11
26.0307
 21
59.2097
  0
LINE
  8
0
 10
26.0307
 20
59.2097
 11
26.01
 21
58.9186
  0
LINE
  8
0
 10
26.01
 20
58.9186
 11
25.9839
 21
58.6259
  0
LINE
  8
0
 10
25.9839
 20
58.6259
 11
25.9526
 21
58.3316
  0
LINE
  8
0
 10
25.9526
 20
58.3316
 11
25.9163
 21
58.0361
  0
LINE
  8
0
 10
25.9163
 20
58.0361
 11
25.8754
 21
57.7392
  0
LINE
  8
0
 10
25.8754
 20
57.7392
 11
25.83
 21
57.4412
  0
LINE
  8
0
 10
25.83
 20
57.4412
 11
25.7805
 21
57.1422
  0
LINE
  8
0
 10
25.7805
 20
57.1422
 11
25.7271
 21
56.8421
  0
LINE
  8
0
 10
25.7271
 20
56.8421
 11
25.6243
 21
56.4208
  0
LINE
  8
0
 10
25.6243
 20
56.4208
 11
25.5166
 21
56.0107
  0
LINE
  8
0
 10
25.5166
 20
56.0107
 11
25.4015
 21
55.6069
  0
LINE
  8
0
 10
25.4015
 20
55.6069
 11
25.2767
 21
55.2047
  0
LINE
  8
0
 10
25.2767
 20
55.2047
 11
25.1397
 21
54.7994
  0
LINE
  8
0
 10
25.1397
 20
54.7994
 11
24.9882
 21
54.3862
  0
LINE
  8
0
 10
24.9882
 20
54.3862
 11
24.8197
 21
53.9602
  0
LINE
  8
0
 10
24.8197
 20
53.9602
 11
24.6319
 21
53.5168
  0
LINE
  8
0
 10
24.6319
 20
53.5168
 11
24.4222
 21
53.0511
  0
LINE
  8
0
 10
24.4222
 20
53.0511
 11
24.1884
 21
52.5584
  0
LINE
  8
0
 10
24.1884
 20
52.5584
 11
23.928
 21
52.034
  0
LINE
  8
0
 10
23.928
 20
52.034
 11
23.6385
 21
51.4729
  0
LINE
  8
0
 10
23.6385
 20
51.4729
 11
23.3177
 21
50.8705
  0
LINE
  8
0
 10
23.3177
 20
50.8705
 11
22.963
 21
50.222
  0
LINE
  8
0
 10
22.963
 20
50.222
 11
22.5721
 21
49.5226
  0
LINE
  8
0
 10
22.5721
 20
49.5226
 11
22.1426
 21
48.7676
  0
LINE
  8
0
 10
22.1426
 20
48.7676
 11
21.672
 21
47.9521
  0
LINE
  8
0
 10
21.672
 20
47.9521
 11
21.1579
 21
47.0714
  0
LINE
  8
0
 10
21.1579
 20
47.0714
 11
20.598
 21
46.1208
  0
LINE
  8
0
 10
20.598
 20
46.1208
 11
19.9899
 21
45.0954
  0
LINE
  8
0
 10
19.9899
 20
45.0954
 11
19.7198
 21
44.6412
  0
LINE
  8
0
 10
19.7198
 20
44.6412
 11
19.4495
 21
44.1861
  0
LINE
  8
0
 10
19.4495
 20
44.1861
 11
19.1799
 21
43.7317
  0
LINE
  8
0
 10
19.1799
 20
43.7317
 11
18.9123
 21
43.2801
  0
LINE
  8
0
 10
18.9123
 20
43.2801
 11
18.6477
 21
42.8329
  0
LINE
  8
0
 10
18.6477
 20
42.8329
 11
18.3872
 21
42.392
  0
LINE
  8
0
 10
18.3872
 20
42.392
 11
18.132
 21
41.9591
  0
LINE
  8
0
 10
18.132
 20
41.9591
 11
17.8831
 21
41.5362
  0
LINE
  8
0
 10
17.8831
 20
41.5362
 11
17.6417
 21
41.125
  0
LINE
  8
0
 10
17.6417
 20
41.125
 11
17.4089
 21
40.7274
  0
LINE
  8
0
 10
17.4089
 20
40.7274
 11
17.1858
 21
40.3451
  0
LINE
  8
0
 10
17.1858
 20
40.3451
 11
16.9735
 21
39.98
  0
LINE
  8
0
 10
16.9735
 20
39.98
 11
16.7732
 21
39.6339
  0
LINE
  8
0
 10
16.7732
 20
39.6339
 11
16.5858
 21
39.3085
  0
LINE
  8
0
 10
16.5858
 20
39.3085
 11
16.4126
 21
39.0058
  0
LINE
  8
0
 10
16.4126
 20
39.0058
 11
16.2547
 21
38.7275
  0
LINE
  8
0
 10
16.2547
 20
38.7275
 11
16.1131
 21
38.4754
  0
LINE
  8
0
 10
16.1131
 20
38.4754
 11
15.989
 21
38.2514
  0
LINE
  8
0
 10
15.989
 20
38.2514
 11
15.8835
 21
38.0573
  0
LINE
  8
0
 10
15.8835
 20
38.0573
 11
15.7977
 21
37.8949
  0
LINE
  8
0
 10
15.7977
 20
37.8949
 11
15.1388
 21
36.5819
  0
LINE
  8
0
 10
15.1388
 20
36.5819
 11
14.5228
 21
35.2731
  0
LINE
  8
0
 10
14.5228
 20
35.2731
 11
13.9478
 21
33.9672
  0
LINE
  8
0
 10
13.9478
 20
33.9672
 11
13.412
 21
32.6625
  0
LINE
  8
0
 10
13.412
 20
32.6625
 11
12.9137
 21
31.3575
  0
LINE
  8
0
 10
12.9137
 20
31.3575
 11
12.4509
 21
30.0507
  0
LINE
  8
0
 10
12.4509
 20
30.0507
 11
12.0219
 21
28.7406
  0
LINE
  8
0
 10
12.0219
 20
28.7406
 11
11.6248
 21
27.4257
  0
LINE
  8
0
 10
11.6248
 20
27.4257
 11
11.2577
 21
26.1044
  0
LINE
  8
0
 10
11.2577
 20
26.1044
 11
10.9189
 21
24.7753
  0
LINE
  8
0
 10
10.9189
 20
24.7753
 11
10.6065
 21
23.4367
  0
LINE
  8
0
 10
10.6065
 20
23.4367
 11
10.3187
 21
22.0873
  0
LINE
  8
0
 10
10.3187
 20
22.0873
 11
10.0536
 21
20.7254
  0
LINE
  8
0
 10
10.0536
 20
20.7254
 11
9.80951
 21
19.3496
  0
LINE
  8
0
 10
9.80951
 20
19.3496
 11
9.58446
 21
17.9584
  0
LINE
  8
0
 10
9.58446
 20
17.9584
 11
9.37666
 21
16.5501
  0
LINE
  8
0
 10
9.37666
 20
16.5501
 11
9.1843
 21
15.1234
  0
LINE
  8
0
 10
9.1843
 20
15.1234
 11
9.00552
 21
13.6766
  0
LINE
  8
0
 10
9.00552
 20
13.6766
 11
8.8385
 21
12.2083
  0
LINE
  8
0
 10
8.8385
 20
12.2083
 11
8.68143
 21
10.717
  0
LINE
  8
0
 10
8.68143
 20
10.717
 11
8.49109
 21
8.84206
  0
LINE
  8
0
 10
8.49109
 20
8.84206
 11
5.08125
 21
8.84206
  0
LINE
  8
0
 10
5.08125
 20
8.84206
 11
4.22742
 21
8.83304
  0
LINE
  8
0
 10
4.22742
 20
8.83304
 11
3.85442
 21
8.82898
  0
LINE
  8
0
 10
3.85442
 20
8.82898
 11
3.51498
 21
8.825
  0
LINE
  8
0
 10
3.51498
 20
8.825
 11
3.20732
 21
8.82091
  0
LINE
  8
0
 10
3.20732
 20
8.82091
 11
2.92964
 21
8.81656
  0
LINE
  8
0
 10
2.92964
 20
8.81656
 11
2.68013
 21
8.81177
  0
LINE
  8
0
 10
2.68013
 20
8.81177
 11
2.457
 21
8.80635
  0
LINE
  8
0
 10
2.457
 20
8.80635
 11
2.25847
 21
8.80017
  0
LINE
  8
0
 10
2.25847
 20
8.80017
 11
2.08273
 21
8.79303
  0
LINE
  8
0
 10
2.08273
 20
8.79303
 11
1.92799
 21
8.78477
  0
LINE
  8
0
 10
1.92799
 20
8.78477
 11
1.79247
 21
8.77521
  0
LINE
  8
0
 10
1.79247
 20
8.77521
 11
1.67436
 21
8.76419
  0
LINE
  8
0
 10
1.67436
 20
8.76419
 11
1.57187
 21
8.75153
  0
LINE
  8
0
 10
1.57187
 20
8.75153
 11
1.4832
 21
8.73706
  0
LINE
  8
0
 10
1.4832
 20
8.73706
 11
1.40656
 21
8.72063
  0
LINE
  8
0
 10
1.40656
 20
8.72063
 11
1.34015
 21
8.70203
  0
LINE
  8
0
 10
1.34015
 20
8.70203
 11
1.2822
 21
8.68112
  0
LINE
  8
0
 10
1.2822
 20
8.68112
 11
1.2309
 21
8.65771
  0
LINE
  8
0
 10
1.2309
 20
8.65771
 11
1.18443
 21
8.63165
  0
LINE
  8
0
 10
1.18443
 20
8.63165
 11
1.1156
 21
8.58644
  0
LINE
  8
0
 10
1.1156
 20
8.58644
 11
1.04764
 21
8.53621
  0
LINE
  8
0
 10
1.04764
 20
8.53621
 11
0.980728
 21
8.48128
  0
LINE
  8
0
 10
0.980728
 20
8.48128
 11
0.915024
 21
8.422
  0
LINE
  8
0
 10
0.915024
 20
8.422
 11
0.850739
 21
8.3587
  0
LINE
  8
0
 10
0.850739
 20
8.3587
 11
0.78801
 21
8.29173
  0
LINE
  8
0
 10
0.78801
 20
8.29173
 11
0.727036
 21
8.22144
  0
LINE
  8
0
 10
0.727036
 20
8.22144
 11
0.667984
 21
8.14813
  0
LINE
  8
0
 10
0.667984
 20
8.14813
 11
0.611023
 21
8.07217
  0
LINE
  8
0
 10
0.611023
 20
8.07217
 11
0.556335
 21
7.9939
  0
LINE
  8
0
 10
0.556335
 20
7.9939
 11
0.504089
 21
7.91364
  0
LINE
  8
0
 10
0.504089
 20
7.91364
 11
0.454468
 21
7.83173
  0
LINE
  8
0
 10
0.454468
 20
7.83173
 11
0.407639
 21
7.74852
  0
LINE
  8
0
 10
0.407639
 20
7.74852
 11
0.363785
 21
7.66434
  0
LINE
  8
0
 10
0.363785
 20
7.66434
 11
0.323059
 21
7.57953
  0
LINE
  8
0
 10
0.323059
 20
7.57953
 11
0.28566
 21
7.49445
  0
LINE
  8
0
 10
0.28566
 20
7.49445
 11
0.25174
 21
7.40939
  0
LINE
  8
0
 10
0.25174
 20
7.40939
 11
0.221497
 21
7.32474
  0
LINE
  8
0
 10
0.221497
 20
7.32474
 11
0.195099
 21
7.24081
  0
LINE
  8
0
 10
0.195099
 20
7.24081
 11
0.172714
 21
7.15794
  0
LINE
  8
0
 10
0.172714
 20
7.15794
 11
0.116058
 21
6.84178
  0
LINE
  8
0
 10
0.116058
 20
6.84178
 11
0.0722046
 21
6.51395
  0
LINE
  8
0
 10
0.0722046
 20
6.51395
 11
0.0399323
 21
6.17567
  0
LINE
  8
0
 10
0.0399323
 20
6.17567
 11
0.0179901
 21
5.82816
  0
LINE
  8
0
 10
0.0179901
 20
5.82816
 11
0.00515747
 21
5.47261
  0
LINE
  8
0
 10
0.00515747
 20
5.47261
 11
0.000167847
 21
5.11026
  0
LINE
  8
0
 10
0.000167847
 20
5.11026
 11
0.00178528
 21
4.74229
  0
LINE
  8
0
 10
0.00178528
 20
4.74229
 11
0.00878906
 21
4.36995
  0
LINE
  8
0
 10
0.00878906
 20
4.36995
 11
0.0199127
 21
3.99442
  0
LINE
  8
0
 10
0.0199127
 20
3.99442
 11
0.0339508
 21
3.61691
  0
LINE
  8
0
 10
0.0339508
 20
3.61691
 11
0.0496216
 21
3.23866
  0
LINE
  8
0
 10
0.0496216
 20
3.23866
 11
0.0657043
 21
2.86086
  0
LINE
  8
0
 10
0.0657043
 20
2.86086
 11
0.0809631
 21
2.48471
  0
LINE
  8
0
 10
0.0809631
 20
2.48471
 11
0.094162
 21
2.11145
  0
LINE
  8
0
 10
0.094162
 20
2.11145
 11
0.10405
 21
1.74226
  0
LINE
  8
0
 10
0.10405
 20
1.74226
 11
0.109375
 21
1.37839
  0
LINE
  8
0
 10
0.109375
 20
1.37839
 11
0.108917
 21
1.02101
  0
LINE
  8
0
 10
0.108917
 20
1.02101
 11
0.10144
 21
0.671356
  0
LINE
  8
0
 10
0.10144
 20
0.671356
 11
0.0856781
 21
0.330643
  0
LINE
  8
0
 10
0.0856781
 20
0.330643
 11
0.0604095
 21
6.10352e-05
  0
LINE
  8
0
 10
0.0604095
 20
6.10352e-05
 11
74.9397
 21
6.10352e-05
  0
LINE
  8
0
 10
74.9397
 20
6.10352e-05
 11
74.9145
 21
0.330643
  0
ENDSEC
  0
SECTION
  2
OBJECTS
  0
DICTIONARY
  0
ENDSEC
  0
EOF
