%FSLAX33Y33*%
%MOMM*%
%AMRect-W1500000-H900001-RO0.500*
21,1,1.5,0.900001,0.,0.,270*%
%AMRect-W670710-H870710-RO1.500*
21,1,0.67071,0.87071,0.,0.,90*%
%AMRect-W1500000-H900001-RO1.500*
21,1,1.5,0.900001,0.,0.,90*%
%AMRect-W670710-H870710-RO0.500*
21,1,0.67071,0.87071,0.,0.,270*%
%AMRect-W670710-H870710-RO1.000*
21,1,0.67071,0.87071,0.,0.,180*%
%ADD10Rect-W1500000-H900001-RO0.500*%
%ADD11Rect-W670710-H870710-RO1.500*%
%ADD12Rect-W1500000-H900001-RO1.500*%
%ADD13Rect-W670710-H870710-RO0.500*%
%ADD14Rect-W670710-H870710-RO1.000*%
D10*
%LNtop paste_traces*%
%LNtop paste component 78bb79f4d4ef9cef*%
G01*
X29150Y89950D03*
X25850Y89950D03*
X25850Y85050D03*
X29150Y85050D03*
%LNtop paste component 9632a9442b6f89ac*%
D11*
X44000Y30150D03*
X44000Y31850D03*
%LNtop paste component edf55b786bae4c0b*%
D12*
X25850Y10050D03*
X29150Y10050D03*
X29150Y14950D03*
X25850Y14950D03*
%LNtop paste component b33a798229717f8e*%
D13*
X31000Y89850D03*
X31000Y88150D03*
%LNtop paste component 46774e9bea70c1fc*%
D10*
X49150Y109950D03*
X45850Y109950D03*
X45850Y105050D03*
X49150Y105050D03*
%LNtop paste component 729c25ffeae60cb0*%
D13*
X46000Y24850D03*
X46000Y23150D03*
%LNtop paste component 643cfa0a4a7bc55f*%
D10*
X34150Y44950D03*
X30850Y44950D03*
X30850Y40050D03*
X34150Y40050D03*
%LNtop paste component 546bbab6ddddc770*%
X19150Y109950D03*
X15850Y109950D03*
X15850Y105050D03*
X19150Y105050D03*
%LNtop paste component 6ded99d0cd2cfa52*%
D13*
X26000Y24850D03*
X26000Y23150D03*
%LNtop paste component 857b3b82146560ee*%
D12*
X35850Y30050D03*
X39150Y30050D03*
X39150Y34950D03*
X35850Y34950D03*
%LNtop paste component b99354407231f660*%
D13*
X36000Y24850D03*
X36000Y23150D03*
%LNtop paste component 8249a1827e869ee2*%
D12*
X25850Y30050D03*
X29150Y30050D03*
X29150Y34950D03*
X25850Y34950D03*
%LNtop paste component 68a65879f30d7429*%
D13*
X51000Y109850D03*
X51000Y108150D03*
%LNtop paste component 0d8c712de75aca83*%
D12*
X55850Y10050D03*
X59150Y10050D03*
X59150Y14950D03*
X55850Y14950D03*
%LNtop paste component b3ec8871af24f4f4*%
D13*
X41000Y109850D03*
X41000Y108150D03*
%LNtop paste component 661c3b5780ec5454*%
D11*
X34000Y30150D03*
X34000Y31850D03*
%LNtop paste component 81ca5487265ac11e*%
D13*
X41000Y69850D03*
X41000Y68150D03*
%LNtop paste component 0f473c77d03db9fb*%
D10*
X34150Y24950D03*
X30850Y24950D03*
X30850Y20050D03*
X34150Y20050D03*
%LNtop paste component 3a4a5948c1242726*%
X59150Y109950D03*
X55850Y109950D03*
X55850Y105050D03*
X59150Y105050D03*
%LNtop paste component 45417e48d4a3e197*%
D13*
X61000Y109850D03*
X61000Y108150D03*
%LNtop paste component e93c99a5b9833e13*%
D11*
X19000Y95150D03*
X19000Y96850D03*
%LNtop paste component 411ac85afb4589cd*%
D13*
X41000Y89850D03*
X41000Y88150D03*
%LNtop paste component 0e697a7ae22fa1e0*%
X21000Y109850D03*
X21000Y108150D03*
%LNtop paste component 4ebe4228d95732ea*%
D10*
X29150Y109950D03*
X25850Y109950D03*
X25850Y105050D03*
X29150Y105050D03*
%LNtop paste component febd756eba52ac16*%
D11*
X49000Y95150D03*
X49000Y96850D03*
%LNtop paste component 8250fd88380224d0*%
X54000Y10150D03*
X54000Y11850D03*
%LNtop paste component 5fd2942f328f80f7*%
X44000Y10150D03*
X44000Y11850D03*
%LNtop paste component 4616a50962192eb1*%
D10*
X39150Y109950D03*
X35850Y109950D03*
X35850Y105050D03*
X39150Y105050D03*
%LNtop paste component 3a791e676872c054*%
D11*
X34000Y50150D03*
X34000Y51850D03*
%LNtop paste component be40e38a7e9e29ab*%
D10*
X49150Y89950D03*
X45850Y89950D03*
X45850Y85050D03*
X49150Y85050D03*
%LNtop paste component 0386275a9febfab0*%
D13*
X51000Y89850D03*
X51000Y88150D03*
%LNtop paste component 24e988c1ab7b5fe1*%
D12*
X50850Y95050D03*
X54150Y95050D03*
X54150Y99950D03*
X50850Y99950D03*
%LNtop paste component 1a0c10d2cb5ce9b2*%
X15850Y10050D03*
X19150Y10050D03*
X19150Y14950D03*
X15850Y14950D03*
%LNtop paste component 1230953a1325c7b6*%
D10*
X44150Y24950D03*
X40850Y24950D03*
X40850Y20050D03*
X44150Y20050D03*
%LNtop paste component c546d080e5253e50*%
D12*
X30850Y95050D03*
X34150Y95050D03*
X34150Y99950D03*
X30850Y99950D03*
%LNtop paste component 1672a6f31d68ebfc*%
D11*
X39000Y95150D03*
X39000Y96850D03*
%LNtop paste component 05a2ec1c39ae8332*%
X14000Y10150D03*
X14000Y11850D03*
%LNtop paste component a004df87628ed95d*%
X29000Y95150D03*
X29000Y96850D03*
%LNtop paste component 06e1d416e6af600f*%
D10*
X54150Y24950D03*
X50850Y24950D03*
X50850Y20050D03*
X54150Y20050D03*
%LNtop paste component 954dc7e4fe74de73*%
D12*
X20850Y95050D03*
X24150Y95050D03*
X24150Y99950D03*
X20850Y99950D03*
%LNtop paste component 049475186770646f*%
X45850Y30050D03*
X49150Y30050D03*
X49150Y34950D03*
X45850Y34950D03*
%LNtop paste component 2aedb32cce5b9a51*%
X40850Y75050D03*
X44150Y75050D03*
X44150Y79950D03*
X40850Y79950D03*
%LNtop paste component 293159294aa54013*%
X30850Y75050D03*
X34150Y75050D03*
X34150Y79950D03*
X30850Y79950D03*
%LNtop paste component 42c45311f44bc17e*%
D13*
X31000Y109850D03*
X31000Y108150D03*
%LNtop paste component f611d0786dd54d51*%
D12*
X35850Y10050D03*
X39150Y10050D03*
X39150Y14950D03*
X35850Y14950D03*
%LNtop paste component aa6302b4ba39b99d*%
D11*
X24000Y30150D03*
X24000Y31850D03*
%LNtop paste component 91c791b21d69f68b*%
D10*
X44150Y44950D03*
X40850Y44950D03*
X40850Y40050D03*
X44150Y40050D03*
%LNtop paste component 2ed0b43c9060ed38*%
X39150Y89950D03*
X35850Y89950D03*
X35850Y85050D03*
X39150Y85050D03*
%LNtop paste component 299cb54b3b6ddb08*%
D13*
X46000Y44850D03*
X46000Y43150D03*
%LNtop paste component d915b7c9a9f9847b*%
D14*
X22850Y4500D03*
X21150Y4500D03*
%LNtop paste component 61d66c6bbd872657*%
D13*
X36000Y44850D03*
X36000Y43150D03*
%LNtop paste component d0de1577bf64b631*%
D11*
X29000Y75150D03*
X29000Y76850D03*
%LNtop paste component 189c51c64346b73c*%
D10*
X39150Y69950D03*
X35850Y69950D03*
X35850Y65050D03*
X39150Y65050D03*
%LNtop paste component 397ee49d7888836d*%
D11*
X39000Y75150D03*
X39000Y76850D03*
%LNtop paste component 1ae4372f29743ef0*%
X34000Y10150D03*
X34000Y11850D03*
%LNtop paste component 1ac4cb5dd5c5e79f*%
X24000Y10150D03*
X24000Y11850D03*
%LNtop paste component 116fb4f1640668f6*%
D12*
X35850Y50050D03*
X39150Y50050D03*
X39150Y54950D03*
X35850Y54950D03*
%LNtop paste component 0b8db6a9cdcf23f7*%
X40850Y95050D03*
X44150Y95050D03*
X44150Y99950D03*
X40850Y99950D03*
%LNtop paste component c18dd666ca29a8b1*%
D13*
X56000Y24850D03*
X56000Y23150D03*
%LNtop paste component 0603967911728634*%
D10*
X24150Y24950D03*
X20850Y24950D03*
X20850Y20050D03*
X24150Y20050D03*
%LNtop paste component bce8d5df9eeefa2e*%
D12*
X45850Y10050D03*
X49150Y10050D03*
X49150Y14950D03*
X45850Y14950D03*
M02*