%FSLAX33Y33*%
%MOMM*%
%ADD10C,1.*%
D10*
%LNpath-1*%
G01*
X36500Y84750D02*
X26500Y84750D01*
X26500Y83750*
X36500Y83750*
X36500Y84750*
X36500Y84750*
%LNpath-2*%
X36500Y81750D02*
X26500Y81750D01*
X26500Y80750*
X36500Y80750*
X36500Y81750*
X36500Y81750*
%LNbottom silkscreen_traces*%
%LNtext*%
G36*
X43500Y5116D02*
X43500Y5312D01*
X43694Y5312D01*
X43694Y5394D01*
X43500Y5394D01*
X43500Y5589D01*
X43417Y5589D01*
X43417Y5394D01*
X43222Y5394D01*
X43222Y5312D01*
X43417Y5312D01*
X43417Y5116D01*
X43500Y5116D01*
X43500Y5116D01*
X43124Y5188D02*
X43032Y5195D01*
X43025Y5164D01*
X43015Y5136D01*
X43002Y5113D01*
X42985Y5094D01*
X42965Y5079D01*
X42943Y5069D01*
X42920Y5062D01*
X42895Y5060D01*
X42864Y5063D01*
X42836Y5072D01*
X42810Y5087D01*
X42787Y5108D01*
X42768Y5134D01*
X42754Y5164D01*
X42746Y5197D01*
X42743Y5235D01*
X42746Y5270D01*
X42754Y5302D01*
X42767Y5330D01*
X42785Y5354D01*
X42808Y5373D01*
X42834Y5386D01*
X42863Y5394D01*
X42896Y5397D01*
X42917Y5396D01*
X42936Y5392D01*
X42955Y5386D01*
X42973Y5378D01*
X42989Y5367D01*
X43003Y5356D01*
X43016Y5342D01*
X43026Y5328D01*
X43109Y5338D01*
X43040Y5706D01*
X42684Y5706D01*
X42684Y5622D01*
X42969Y5622D01*
X43008Y5430D01*
X42975Y5449D01*
X42942Y5463D01*
X42908Y5472D01*
X42873Y5475D01*
X42828Y5471D01*
X42786Y5458D01*
X42748Y5438D01*
X42714Y5410D01*
X42686Y5375D01*
X42666Y5335D01*
X42654Y5291D01*
X42650Y5243D01*
X42653Y5196D01*
X42664Y5152D01*
X42682Y5112D01*
X42707Y5075D01*
X42744Y5037D01*
X42788Y5010D01*
X42838Y4993D01*
X42895Y4988D01*
X42941Y4991D01*
X42983Y5001D01*
X43021Y5019D01*
X43054Y5042D01*
X43082Y5072D01*
X43102Y5106D01*
X43117Y5145D01*
X43124Y5188D01*
X43124Y5188D01*
X42328Y5000D02*
X42605Y5716D01*
X42503Y5716D01*
X42317Y5196D01*
X42306Y5165D01*
X42296Y5135D01*
X42287Y5106D01*
X42279Y5079D01*
X42271Y5108D01*
X42261Y5137D01*
X42251Y5167D01*
X42241Y5196D01*
X42047Y5716D01*
X41951Y5716D01*
X42231Y5000D01*
X42328Y5000D01*
X42328Y5000D01*
X38173Y5000D02*
X38173Y5716D01*
X37928Y5716D01*
X37928Y5631D01*
X38078Y5631D01*
X38078Y5084D01*
X38078Y5084D01*
X37925Y5084D01*
X37892Y5085D01*
X37862Y5088D01*
X37836Y5092D01*
X37814Y5098D01*
X37795Y5105D01*
X37778Y5114D01*
X37763Y5123D01*
X37750Y5135D01*
X37734Y5153D01*
X37720Y5174D01*
X37708Y5198D01*
X37698Y5225D01*
X37689Y5255D01*
X37683Y5288D01*
X37680Y5324D01*
X37679Y5363D01*
X37681Y5416D01*
X37688Y5463D01*
X37699Y5502D01*
X37716Y5536D01*
X37735Y5564D01*
X37756Y5586D01*
X37780Y5604D01*
X37805Y5617D01*
X37827Y5623D01*
X37855Y5628D01*
X37888Y5630D01*
X37928Y5631D01*
X37928Y5716D01*
X37926Y5716D01*
X37887Y5715D01*
X37853Y5713D01*
X37823Y5710D01*
X37799Y5706D01*
X37769Y5697D01*
X37742Y5686D01*
X37717Y5671D01*
X37694Y5654D01*
X37667Y5629D01*
X37644Y5600D01*
X37625Y5568D01*
X37609Y5532D01*
X37597Y5493D01*
X37588Y5452D01*
X37583Y5408D01*
X37581Y5362D01*
X37582Y5322D01*
X37586Y5285D01*
X37592Y5250D01*
X37600Y5217D01*
X37610Y5187D01*
X37622Y5160D01*
X37635Y5135D01*
X37649Y5113D01*
X37664Y5094D01*
X37680Y5076D01*
X37697Y5061D01*
X37714Y5048D01*
X37733Y5037D01*
X37753Y5027D01*
X37775Y5019D01*
X37800Y5012D01*
X37826Y5007D01*
X37853Y5003D01*
X37883Y5001D01*
X37915Y5000D01*
X38173Y5000D01*
X38173Y5000D01*
X37435Y5000D02*
X37435Y5716D01*
X37340Y5716D01*
X37340Y5000D01*
X37435Y5000D01*
X37435Y5000D01*
X37174Y5000D02*
X37174Y5716D01*
X37077Y5716D01*
X36701Y5154D01*
X36701Y5716D01*
X36610Y5716D01*
X36610Y5000D01*
X36707Y5000D01*
X37083Y5563D01*
X37083Y5000D01*
X37174Y5000D01*
X37174Y5000D01*
X61856Y98219D02*
X61856Y103588D01*
X61146Y103588D01*
X61146Y98853D01*
X58502Y98853D01*
X58502Y98219D01*
X61856Y98219D01*
X61856Y98219D01*
X57641Y98219D02*
X57641Y103588D01*
X53759Y103588D01*
X53759Y102954D01*
X56931Y102954D01*
X56931Y101310D01*
X53961Y101310D01*
X53961Y100680D01*
X56931Y100680D01*
X56931Y98853D01*
X53635Y98853D01*
X53635Y98219D01*
X57641Y98219D01*
X57641Y98219D01*
X52653Y98219D02*
X52653Y103588D01*
X50815Y103588D01*
X50815Y102954D01*
X51943Y102954D01*
X51943Y98853D01*
X51943Y98853D01*
X50796Y98853D01*
X50545Y98859D01*
X50323Y98878D01*
X50129Y98909D01*
X49963Y98952D01*
X49820Y99006D01*
X49692Y99071D01*
X49579Y99145D01*
X49482Y99230D01*
X49362Y99367D01*
X49257Y99526D01*
X49165Y99707D01*
X49088Y99909D01*
X49026Y100134D01*
X48982Y100381D01*
X48956Y100651D01*
X48947Y100944D01*
X48964Y101341D01*
X49016Y101689D01*
X49103Y101988D01*
X49223Y102239D01*
X49369Y102446D01*
X49530Y102616D01*
X49705Y102749D01*
X49895Y102845D01*
X50060Y102893D01*
X50268Y102927D01*
X50520Y102948D01*
X50815Y102954D01*
X50815Y103588D01*
X50804Y103588D01*
X50509Y103583D01*
X50252Y103569D01*
X50031Y103545D01*
X49848Y103511D01*
X49626Y103447D01*
X49420Y103362D01*
X49232Y103255D01*
X49061Y103127D01*
X48862Y102935D01*
X48689Y102718D01*
X48544Y102476D01*
X48425Y102209D01*
X48333Y101920D01*
X48267Y101611D01*
X48228Y101282D01*
X48215Y100933D01*
X48223Y100636D01*
X48250Y100356D01*
X48295Y100094D01*
X48357Y99849D01*
X48434Y99623D01*
X48520Y99417D01*
X48617Y99232D01*
X48724Y99067D01*
X48838Y98921D01*
X48958Y98791D01*
X49082Y98677D01*
X49212Y98580D01*
X49352Y98497D01*
X49505Y98424D01*
X49673Y98362D01*
X49853Y98311D01*
X50048Y98271D01*
X50257Y98242D01*
X50479Y98225D01*
X50716Y98219D01*
X52653Y98219D01*
X52653Y98219D01*
X45131Y98219D02*
X45131Y103588D01*
X44421Y103588D01*
X44421Y101383D01*
X41630Y101383D01*
X41630Y103588D01*
X40920Y103588D01*
X40920Y98219D01*
X41630Y98219D01*
X41630Y100750D01*
X44421Y100750D01*
X44421Y98219D01*
X45131Y98219D01*
X45131Y98219D01*
X40066Y100164D02*
X40029Y100669D01*
X39916Y101104D01*
X39728Y101469D01*
X39466Y101764D01*
X39201Y101953D01*
X38909Y102088D01*
X38590Y102169D01*
X38243Y102196D01*
X37860Y102164D01*
X37514Y102065D01*
X37204Y101901D01*
X36932Y101671D01*
X36709Y101383D01*
X36550Y101045D01*
X36454Y100657D01*
X36423Y100219D01*
X36437Y99864D01*
X36479Y99548D01*
X36549Y99273D01*
X36648Y99038D01*
X36773Y98835D01*
X36924Y98656D01*
X37101Y98501D01*
X37303Y98370D01*
X37523Y98265D01*
X37753Y98191D01*
X37993Y98146D01*
X38243Y98131D01*
X38288Y98135D01*
X38243Y98673D01*
X38008Y98697D01*
X37793Y98767D01*
X37599Y98884D01*
X37426Y99047D01*
X37283Y99258D01*
X37181Y99519D01*
X37120Y99828D01*
X37100Y100186D01*
X37120Y100525D01*
X37182Y100820D01*
X37284Y101071D01*
X37428Y101279D01*
X37602Y101442D01*
X37795Y101558D01*
X38009Y101628D01*
X38243Y101651D01*
X38479Y101628D01*
X38695Y101558D01*
X38889Y101443D01*
X39063Y101281D01*
X39205Y101072D01*
X39307Y100817D01*
X39368Y100514D01*
X39389Y100164D01*
X39389Y100164D01*
X39368Y99814D01*
X39307Y99511D01*
X39205Y99255D01*
X39063Y99045D01*
X38889Y98883D01*
X38695Y98766D01*
X38479Y98697D01*
X38243Y98673D01*
X38288Y98135D01*
X38631Y98164D01*
X38981Y98262D01*
X39291Y98426D01*
X39563Y98655D01*
X39783Y98946D01*
X39940Y99294D01*
X40035Y99700D01*
X40066Y100164D01*
X40066Y100164D01*
X33101Y98219D02*
X33101Y98791D01*
X33348Y98502D01*
X33637Y98296D01*
X33965Y98173D01*
X34335Y98131D01*
X34504Y98140D01*
X34668Y98164D01*
X34826Y98206D01*
X34978Y98263D01*
X35117Y98333D01*
X35238Y98412D01*
X35339Y98499D01*
X35421Y98595D01*
X35488Y98700D01*
X35544Y98817D01*
X35589Y98945D01*
X35624Y99084D01*
X35642Y99195D01*
X35654Y99334D01*
X35662Y99502D01*
X35664Y99699D01*
X35664Y102109D01*
X35005Y102109D01*
X35005Y99952D01*
X35003Y99714D01*
X34995Y99519D01*
X34983Y99367D01*
X34965Y99256D01*
X34925Y99133D01*
X34868Y99024D01*
X34793Y98929D01*
X34701Y98847D01*
X34595Y98783D01*
X34476Y98736D01*
X34346Y98708D01*
X34203Y98699D01*
X34057Y98709D01*
X33916Y98737D01*
X33779Y98785D01*
X33647Y98851D01*
X33526Y98934D01*
X33425Y99031D01*
X33342Y99141D01*
X33279Y99265D01*
X33231Y99411D01*
X33198Y99586D01*
X33177Y99791D01*
X33171Y100025D01*
X33171Y102109D01*
X32511Y102109D01*
X32511Y98219D01*
X33101Y98219D01*
X33101Y98219D01*
X31486Y98219D02*
X31486Y102109D01*
X30893Y102109D01*
X30893Y101519D01*
X30781Y101708D01*
X30674Y101862D01*
X30572Y101981D01*
X30473Y102065D01*
X30375Y102122D01*
X30271Y102163D01*
X30163Y102188D01*
X30050Y102196D01*
X29883Y102183D01*
X29714Y102143D01*
X29544Y102077D01*
X29373Y101984D01*
X29600Y101372D01*
X29721Y101435D01*
X29842Y101480D01*
X29962Y101506D01*
X30083Y101515D01*
X30189Y101507D01*
X30288Y101483D01*
X30383Y101442D01*
X30471Y101385D01*
X30551Y101314D01*
X30619Y101230D01*
X30674Y101134D01*
X30717Y101025D01*
X30765Y100845D01*
X30799Y100657D01*
X30820Y100460D01*
X30827Y100256D01*
X30827Y98219D01*
X31486Y98219D01*
X31486Y98219D01*
X29102Y97897D02*
X28461Y97802D01*
X28432Y97664D01*
X28385Y97546D01*
X28320Y97448D01*
X28238Y97370D01*
X28104Y97290D01*
X27947Y97232D01*
X27769Y97198D01*
X27568Y97187D01*
X27352Y97198D01*
X27162Y97232D01*
X26998Y97290D01*
X26861Y97370D01*
X26746Y97470D01*
X26652Y97590D01*
X26578Y97727D01*
X26524Y97882D01*
X26502Y98011D01*
X26486Y98195D01*
X26478Y98434D01*
X26476Y98728D01*
X26787Y99060D01*
X26729Y99115D01*
X26594Y99314D01*
X26498Y99564D01*
X26441Y99863D01*
X26421Y100212D01*
X26441Y100547D01*
X26500Y100838D01*
X26599Y101085D01*
X26738Y101288D01*
X26905Y101447D01*
X27087Y101560D01*
X27286Y101628D01*
X27502Y101651D01*
X27713Y101628D01*
X27908Y101562D01*
X28087Y101450D01*
X28249Y101294D01*
X28383Y101094D01*
X28479Y100850D01*
X28537Y100563D01*
X28556Y100234D01*
X28556Y100234D01*
X28537Y99877D01*
X28480Y99572D01*
X28385Y99318D01*
X28252Y99117D01*
X28091Y98963D01*
X27910Y98853D01*
X27710Y98787D01*
X27491Y98765D01*
X27273Y98787D01*
X27073Y98852D01*
X26892Y98962D01*
X26787Y99060D01*
X26476Y98728D01*
X26706Y98506D01*
X26961Y98347D01*
X27244Y98251D01*
X27553Y98219D01*
X27931Y98256D01*
X28264Y98364D01*
X28552Y98545D01*
X28794Y98798D01*
X28987Y99102D01*
X29124Y99434D01*
X29206Y99796D01*
X29234Y100186D01*
X29221Y100459D01*
X29183Y100721D01*
X29120Y100972D01*
X29032Y101213D01*
X28920Y101435D01*
X28786Y101630D01*
X28628Y101799D01*
X28448Y101940D01*
X28249Y102052D01*
X28032Y102132D01*
X27799Y102180D01*
X27549Y102196D01*
X27220Y102162D01*
X26921Y102057D01*
X26652Y101883D01*
X26414Y101640D01*
X26414Y102109D01*
X25806Y102109D01*
X25806Y98747D01*
X25818Y98326D01*
X25852Y97971D01*
X25910Y97682D01*
X25991Y97459D01*
X26097Y97280D01*
X26230Y97120D01*
X26390Y96981D01*
X26577Y96861D01*
X26789Y96765D01*
X27024Y96696D01*
X27282Y96655D01*
X27564Y96641D01*
X27895Y96661D01*
X28193Y96719D01*
X28457Y96817D01*
X28688Y96954D01*
X28875Y97130D01*
X29006Y97346D01*
X29082Y97602D01*
X29102Y97897D01*
X29102Y97897D01*
X24825Y98219D02*
X24825Y103588D01*
X24165Y103588D01*
X24165Y98219D01*
X24825Y98219D01*
X24825Y98219D01*
X20606Y98699D02*
X20787Y98555D01*
X20813Y98537D01*
X21064Y98905D01*
X20946Y99012D01*
X20847Y99133D01*
X20767Y99270D01*
X20721Y99395D01*
X20687Y99547D01*
X20668Y99725D01*
X20661Y99930D01*
X20661Y100171D01*
X20661Y100171D01*
X20863Y100101D01*
X21110Y100036D01*
X21401Y99976D01*
X21738Y99922D01*
X21926Y99892D01*
X22085Y99860D01*
X22213Y99826D01*
X22313Y99790D01*
X22392Y99750D01*
X22462Y99700D01*
X22522Y99642D01*
X22573Y99576D01*
X22613Y99504D01*
X22641Y99427D01*
X22658Y99347D01*
X22664Y99263D01*
X22652Y99137D01*
X22614Y99021D01*
X22552Y98917D01*
X22465Y98824D01*
X22353Y98747D01*
X22219Y98692D01*
X22061Y98659D01*
X21880Y98648D01*
X21695Y98658D01*
X21521Y98690D01*
X21356Y98742D01*
X21203Y98814D01*
X21064Y98905D01*
X20813Y98537D01*
X20965Y98434D01*
X21140Y98335D01*
X21311Y98260D01*
X21483Y98204D01*
X21662Y98164D01*
X21847Y98140D01*
X22038Y98131D01*
X22340Y98151D01*
X22605Y98210D01*
X22832Y98308D01*
X23023Y98445D01*
X23174Y98612D01*
X23281Y98801D01*
X23346Y99012D01*
X23367Y99245D01*
X23359Y99385D01*
X23335Y99518D01*
X23294Y99645D01*
X23237Y99767D01*
X23167Y99879D01*
X23087Y99979D01*
X22997Y100068D01*
X22897Y100146D01*
X22788Y100213D01*
X22673Y100271D01*
X22551Y100321D01*
X22422Y100362D01*
X22313Y100387D01*
X22179Y100412D01*
X22020Y100437D01*
X21836Y100461D01*
X21464Y100510D01*
X21143Y100565D01*
X20876Y100624D01*
X20661Y100688D01*
X20659Y100749D01*
X20658Y100798D01*
X20657Y100835D01*
X20657Y100860D01*
X20669Y101046D01*
X20704Y101203D01*
X20762Y101330D01*
X20844Y101427D01*
X20986Y101525D01*
X21158Y101595D01*
X21361Y101637D01*
X21595Y101651D01*
X21812Y101641D01*
X21999Y101610D01*
X22155Y101559D01*
X22281Y101488D01*
X22385Y101391D01*
X22474Y101262D01*
X22549Y101102D01*
X22609Y100911D01*
X23254Y100999D01*
X23203Y101196D01*
X23137Y101373D01*
X23058Y101530D01*
X22964Y101667D01*
X22852Y101787D01*
X22718Y101892D01*
X22561Y101983D01*
X22382Y102059D01*
X22184Y102119D01*
X21971Y102162D01*
X21743Y102188D01*
X21500Y102196D01*
X21262Y102189D01*
X21048Y102167D01*
X20858Y102131D01*
X20690Y102079D01*
X20545Y102017D01*
X20420Y101947D01*
X20316Y101869D01*
X20232Y101784D01*
X20165Y101690D01*
X20108Y101583D01*
X20062Y101465D01*
X20027Y101336D01*
X20013Y101235D01*
X20003Y101100D01*
X19996Y100931D01*
X19994Y100728D01*
X19994Y99849D01*
X19992Y99432D01*
X19984Y99099D01*
X19971Y98850D01*
X19952Y98686D01*
X19926Y98566D01*
X19890Y98448D01*
X19843Y98332D01*
X19786Y98219D01*
X20474Y98219D01*
X20521Y98326D01*
X20558Y98442D01*
X20587Y98566D01*
X20606Y98699D01*
X20606Y98699D01*
X19236Y99380D02*
X18584Y99483D01*
X18545Y99298D01*
X18481Y99137D01*
X18392Y98998D01*
X18279Y98882D01*
X18141Y98791D01*
X17978Y98726D01*
X17790Y98687D01*
X17577Y98673D01*
X17365Y98685D01*
X17182Y98720D01*
X17028Y98778D01*
X16904Y98858D01*
X16807Y98955D01*
X16739Y99059D01*
X16698Y99172D01*
X16684Y99292D01*
X16696Y99398D01*
X16732Y99492D01*
X16793Y99574D01*
X16878Y99644D01*
X16971Y99691D01*
X17114Y99744D01*
X17308Y99803D01*
X17552Y99867D01*
X17886Y99956D01*
X18166Y100038D01*
X18389Y100114D01*
X18557Y100184D01*
X18689Y100257D01*
X18803Y100343D01*
X18901Y100442D01*
X18982Y100554D01*
X19045Y100675D01*
X19090Y100803D01*
X19117Y100936D01*
X19126Y101076D01*
X19119Y101203D01*
X19097Y101326D01*
X19059Y101444D01*
X19007Y101557D01*
X18943Y101663D01*
X18867Y101760D01*
X18780Y101848D01*
X18683Y101925D01*
X18599Y101980D01*
X18502Y102030D01*
X18390Y102076D01*
X18264Y102118D01*
X18129Y102152D01*
X17989Y102177D01*
X17844Y102192D01*
X17695Y102196D01*
X17473Y102188D01*
X17265Y102163D01*
X17071Y102122D01*
X16891Y102065D01*
X16729Y101993D01*
X16590Y101909D01*
X16474Y101814D01*
X16380Y101708D01*
X16304Y101585D01*
X16241Y101444D01*
X16190Y101284D01*
X16153Y101105D01*
X16797Y101017D01*
X16830Y101159D01*
X16883Y101285D01*
X16957Y101394D01*
X17052Y101486D01*
X17168Y101560D01*
X17306Y101612D01*
X17466Y101644D01*
X17647Y101654D01*
X17858Y101645D01*
X18036Y101617D01*
X18182Y101570D01*
X18295Y101504D01*
X18380Y101426D01*
X18441Y101341D01*
X18477Y101250D01*
X18489Y101153D01*
X18484Y101090D01*
X18469Y101031D01*
X18444Y100975D01*
X18409Y100922D01*
X18363Y100871D01*
X18305Y100825D01*
X18236Y100783D01*
X18156Y100746D01*
X18083Y100722D01*
X17961Y100686D01*
X17791Y100638D01*
X17574Y100578D01*
X17250Y100489D01*
X16980Y100408D01*
X16762Y100336D01*
X16598Y100272D01*
X16467Y100206D01*
X16351Y100126D01*
X16250Y100033D01*
X16164Y99926D01*
X16095Y99806D01*
X16046Y99671D01*
X16016Y99524D01*
X16006Y99362D01*
X16018Y99200D01*
X16054Y99042D01*
X16114Y98889D01*
X16199Y98741D01*
X16305Y98604D01*
X16433Y98483D01*
X16583Y98379D01*
X16753Y98291D01*
X16941Y98221D01*
X17140Y98171D01*
X17351Y98141D01*
X17574Y98131D01*
X17930Y98151D01*
X18242Y98210D01*
X18508Y98309D01*
X18729Y98446D01*
X18910Y98623D01*
X19055Y98837D01*
X19163Y99090D01*
X19236Y99380D01*
X19236Y99380D01*
X15486Y99380D02*
X14834Y99483D01*
X14794Y99298D01*
X14730Y99137D01*
X14642Y98998D01*
X14528Y98882D01*
X14391Y98791D01*
X14228Y98726D01*
X14040Y98687D01*
X13827Y98673D01*
X13615Y98685D01*
X13432Y98720D01*
X13278Y98778D01*
X13153Y98858D01*
X13057Y98955D01*
X12989Y99059D01*
X12947Y99172D01*
X12934Y99292D01*
X12946Y99398D01*
X12982Y99492D01*
X13043Y99574D01*
X13128Y99644D01*
X13221Y99691D01*
X13364Y99744D01*
X13558Y99803D01*
X13801Y99867D01*
X14136Y99956D01*
X14415Y100038D01*
X14639Y100114D01*
X14807Y100184D01*
X14938Y100257D01*
X15053Y100343D01*
X15151Y100442D01*
X15232Y100554D01*
X15295Y100675D01*
X15340Y100803D01*
X15367Y100936D01*
X15376Y101076D01*
X15369Y101203D01*
X15346Y101326D01*
X15309Y101444D01*
X15257Y101557D01*
X15192Y101663D01*
X15117Y101760D01*
X15030Y101848D01*
X14933Y101925D01*
X14849Y101980D01*
X14751Y102030D01*
X14640Y102076D01*
X14514Y102118D01*
X14379Y102152D01*
X14239Y102177D01*
X14094Y102192D01*
X13944Y102196D01*
X13722Y102188D01*
X13514Y102163D01*
X13320Y102122D01*
X13140Y102065D01*
X12979Y101993D01*
X12840Y101909D01*
X12723Y101814D01*
X12630Y101708D01*
X12554Y101585D01*
X12490Y101444D01*
X12440Y101284D01*
X12403Y101105D01*
X13047Y101017D01*
X13079Y101159D01*
X13133Y101285D01*
X13207Y101394D01*
X13302Y101486D01*
X13418Y101560D01*
X13556Y101612D01*
X13715Y101644D01*
X13897Y101654D01*
X14108Y101645D01*
X14286Y101617D01*
X14432Y101570D01*
X14545Y101504D01*
X14630Y101426D01*
X14690Y101341D01*
X14727Y101250D01*
X14739Y101153D01*
X14734Y101090D01*
X14719Y101031D01*
X14694Y100975D01*
X14658Y100922D01*
X14612Y100871D01*
X14555Y100825D01*
X14486Y100783D01*
X14406Y100746D01*
X14332Y100722D01*
X14211Y100686D01*
X14041Y100638D01*
X13823Y100578D01*
X13500Y100489D01*
X13230Y100408D01*
X13012Y100336D01*
X12848Y100272D01*
X12717Y100206D01*
X12601Y100126D01*
X12500Y100033D01*
X12414Y99926D01*
X12345Y99806D01*
X12295Y99671D01*
X12266Y99524D01*
X12256Y99362D01*
X12268Y99200D01*
X12304Y99042D01*
X12364Y98889D01*
X12448Y98741D01*
X12555Y98604D01*
X12683Y98483D01*
X12833Y98379D01*
X13003Y98291D01*
X13190Y98221D01*
X13390Y98171D01*
X13601Y98141D01*
X13823Y98131D01*
X14180Y98151D01*
X14491Y98210D01*
X14758Y98309D01*
X14979Y98446D01*
X15160Y98623D01*
X15304Y98837D01*
X15413Y99090D01*
X15486Y99380D01*
X15486Y99380D01*
X49910Y81110D02*
X49731Y81126D01*
X49723Y81074D01*
X49710Y81028D01*
X49693Y80986D01*
X49672Y80949D01*
X49646Y80917D01*
X49613Y80887D01*
X49574Y80861D01*
X49528Y80838D01*
X49478Y80819D01*
X49425Y80806D01*
X49368Y80798D01*
X49309Y80796D01*
X49256Y80798D01*
X49207Y80804D01*
X49160Y80814D01*
X49117Y80828D01*
X49078Y80845D01*
X49045Y80866D01*
X49017Y80890D01*
X48994Y80916D01*
X48976Y80945D01*
X48963Y80975D01*
X48956Y81006D01*
X48953Y81039D01*
X48956Y81071D01*
X48963Y81102D01*
X48975Y81130D01*
X48992Y81156D01*
X49015Y81180D01*
X49044Y81203D01*
X49079Y81223D01*
X49121Y81241D01*
X49159Y81254D01*
X49214Y81270D01*
X49286Y81289D01*
X49376Y81311D01*
X49467Y81334D01*
X49544Y81357D01*
X49605Y81379D01*
X49652Y81400D01*
X49700Y81428D01*
X49742Y81460D01*
X49777Y81495D01*
X49805Y81533D01*
X49827Y81574D01*
X49843Y81618D01*
X49852Y81663D01*
X49855Y81712D01*
X49852Y81765D01*
X49840Y81816D01*
X49821Y81866D01*
X49794Y81914D01*
X49760Y81958D01*
X49718Y81997D01*
X49670Y82030D01*
X49614Y82057D01*
X49554Y82079D01*
X49490Y82094D01*
X49422Y82103D01*
X49352Y82106D01*
X49274Y82103D01*
X49202Y82093D01*
X49134Y82077D01*
X49071Y82055D01*
X49014Y82026D01*
X48963Y81991D01*
X48920Y81951D01*
X48884Y81904D01*
X48855Y81852D01*
X48833Y81798D01*
X48820Y81740D01*
X48813Y81678D01*
X48995Y81665D01*
X49007Y81728D01*
X49027Y81784D01*
X49056Y81831D01*
X49094Y81870D01*
X49142Y81900D01*
X49199Y81922D01*
X49266Y81935D01*
X49344Y81939D01*
X49424Y81935D01*
X49492Y81923D01*
X49549Y81904D01*
X49594Y81876D01*
X49629Y81843D01*
X49653Y81807D01*
X49668Y81767D01*
X49673Y81724D01*
X49669Y81687D01*
X49659Y81654D01*
X49642Y81624D01*
X49617Y81597D01*
X49579Y81572D01*
X49518Y81547D01*
X49436Y81521D01*
X49332Y81495D01*
X49225Y81470D01*
X49137Y81446D01*
X49067Y81424D01*
X49015Y81404D01*
X48956Y81373D01*
X48906Y81339D01*
X48864Y81300D01*
X48830Y81258D01*
X48804Y81212D01*
X48785Y81163D01*
X48774Y81110D01*
X48771Y81054D01*
X48775Y80998D01*
X48787Y80943D01*
X48807Y80890D01*
X48836Y80839D01*
X48872Y80791D01*
X48916Y80749D01*
X48966Y80713D01*
X49024Y80682D01*
X49087Y80657D01*
X49154Y80640D01*
X49225Y80629D01*
X49300Y80626D01*
X49393Y80629D01*
X49478Y80640D01*
X49556Y80657D01*
X49625Y80682D01*
X49688Y80714D01*
X49743Y80753D01*
X49791Y80799D01*
X49832Y80853D01*
X49864Y80911D01*
X49889Y80974D01*
X49904Y81040D01*
X49910Y81110D01*
X49910Y81110D01*
X47824Y80984D02*
X47643Y80962D01*
X47669Y80886D01*
X47704Y80820D01*
X47748Y80763D01*
X47802Y80714D01*
X47864Y80676D01*
X47934Y80649D01*
X48012Y80632D01*
X48099Y80627D01*
X48206Y80635D01*
X48303Y80662D01*
X48387Y80705D01*
X48459Y80767D01*
X48518Y80844D01*
X48559Y80935D01*
X48584Y81040D01*
X48593Y81160D01*
X48584Y81283D01*
X48559Y81392D01*
X48517Y81486D01*
X48458Y81566D01*
X48386Y81629D01*
X48303Y81674D01*
X48211Y81702D01*
X48108Y81711D01*
X48094Y81709D01*
X48106Y81566D01*
X48165Y81561D01*
X48218Y81546D01*
X48266Y81520D01*
X48310Y81485D01*
X48347Y81441D01*
X48374Y81390D01*
X48392Y81333D01*
X48401Y81268D01*
X48401Y81268D01*
X47822Y81268D01*
X47831Y81330D01*
X47845Y81383D01*
X47864Y81428D01*
X47889Y81464D01*
X47934Y81509D01*
X47985Y81541D01*
X48043Y81560D01*
X48106Y81566D01*
X48094Y81709D01*
X48009Y81702D01*
X47919Y81675D01*
X47839Y81631D01*
X47769Y81569D01*
X47711Y81491D01*
X47670Y81399D01*
X47645Y81292D01*
X47637Y81171D01*
X47637Y81162D01*
X47637Y81151D01*
X47637Y81138D01*
X47638Y81124D01*
X48411Y81124D01*
X48401Y81043D01*
X48382Y80973D01*
X48353Y80912D01*
X48314Y80862D01*
X48268Y80822D01*
X48217Y80794D01*
X48160Y80777D01*
X48098Y80771D01*
X48051Y80774D01*
X48008Y80784D01*
X47969Y80800D01*
X47933Y80822D01*
X47900Y80851D01*
X47871Y80888D01*
X47846Y80932D01*
X47824Y80984D01*
X47824Y80984D01*
X47424Y80650D02*
X47424Y81687D01*
X47266Y81687D01*
X47266Y81530D01*
X47236Y81580D01*
X47207Y81621D01*
X47180Y81653D01*
X47154Y81675D01*
X47127Y81691D01*
X47100Y81702D01*
X47071Y81708D01*
X47041Y81711D01*
X46996Y81707D01*
X46951Y81696D01*
X46906Y81679D01*
X46860Y81654D01*
X46921Y81491D01*
X46953Y81507D01*
X46985Y81519D01*
X47018Y81527D01*
X47050Y81529D01*
X47078Y81527D01*
X47104Y81520D01*
X47130Y81509D01*
X47153Y81494D01*
X47175Y81475D01*
X47193Y81453D01*
X47207Y81427D01*
X47219Y81398D01*
X47232Y81350D01*
X47241Y81300D01*
X47246Y81248D01*
X47248Y81193D01*
X47248Y80650D01*
X47424Y80650D01*
X47424Y80650D01*
X46755Y80650D02*
X46755Y81687D01*
X46579Y81687D01*
X46579Y80650D01*
X46755Y80650D01*
X46755Y80650D01*
X46755Y81879D02*
X46755Y82082D01*
X46579Y82082D01*
X46579Y81879D01*
X46755Y81879D01*
X46755Y81879D01*
X45635Y80778D02*
X45683Y80739D01*
X45690Y80735D01*
X45757Y80833D01*
X45725Y80861D01*
X45699Y80894D01*
X45678Y80930D01*
X45665Y80964D01*
X45657Y81004D01*
X45651Y81051D01*
X45649Y81106D01*
X45649Y81171D01*
X45649Y81171D01*
X45703Y81152D01*
X45769Y81134D01*
X45847Y81119D01*
X45937Y81104D01*
X45987Y81096D01*
X46029Y81087D01*
X46063Y81078D01*
X46090Y81069D01*
X46111Y81058D01*
X46130Y81045D01*
X46146Y81029D01*
X46159Y81012D01*
X46170Y80992D01*
X46178Y80972D01*
X46182Y80951D01*
X46184Y80928D01*
X46180Y80895D01*
X46170Y80864D01*
X46154Y80836D01*
X46130Y80811D01*
X46101Y80791D01*
X46065Y80776D01*
X46023Y80767D01*
X45975Y80764D01*
X45925Y80767D01*
X45879Y80775D01*
X45835Y80789D01*
X45794Y80809D01*
X45757Y80833D01*
X45690Y80735D01*
X45731Y80707D01*
X45777Y80681D01*
X45823Y80661D01*
X45869Y80646D01*
X45916Y80635D01*
X45966Y80629D01*
X46017Y80627D01*
X46097Y80632D01*
X46168Y80647D01*
X46228Y80674D01*
X46279Y80710D01*
X46319Y80755D01*
X46348Y80805D01*
X46365Y80861D01*
X46371Y80923D01*
X46369Y80961D01*
X46362Y80996D01*
X46352Y81030D01*
X46336Y81063D01*
X46318Y81093D01*
X46296Y81119D01*
X46272Y81143D01*
X46246Y81164D01*
X46217Y81182D01*
X46186Y81197D01*
X46153Y81210D01*
X46119Y81221D01*
X46090Y81228D01*
X46054Y81235D01*
X46012Y81241D01*
X45963Y81248D01*
X45863Y81261D01*
X45778Y81275D01*
X45707Y81291D01*
X45649Y81308D01*
X45649Y81325D01*
X45649Y81338D01*
X45649Y81348D01*
X45648Y81354D01*
X45652Y81404D01*
X45661Y81446D01*
X45676Y81480D01*
X45698Y81505D01*
X45736Y81532D01*
X45782Y81550D01*
X45836Y81561D01*
X45898Y81565D01*
X45956Y81562D01*
X46006Y81554D01*
X46048Y81541D01*
X46082Y81522D01*
X46109Y81496D01*
X46133Y81461D01*
X46153Y81419D01*
X46169Y81368D01*
X46341Y81391D01*
X46327Y81444D01*
X46310Y81491D01*
X46289Y81533D01*
X46264Y81569D01*
X46234Y81601D01*
X46198Y81629D01*
X46156Y81654D01*
X46108Y81674D01*
X46056Y81690D01*
X45999Y81701D01*
X45938Y81708D01*
X45873Y81711D01*
X45810Y81709D01*
X45753Y81703D01*
X45702Y81693D01*
X45657Y81679D01*
X45619Y81663D01*
X45585Y81644D01*
X45557Y81623D01*
X45535Y81601D01*
X45517Y81575D01*
X45502Y81547D01*
X45490Y81516D01*
X45481Y81481D01*
X45477Y81454D01*
X45474Y81418D01*
X45472Y81373D01*
X45472Y81319D01*
X45472Y81085D01*
X45471Y80973D01*
X45469Y80884D01*
X45465Y80818D01*
X45460Y80775D01*
X45453Y80742D01*
X45444Y80711D01*
X45431Y80680D01*
X45416Y80650D01*
X45600Y80650D01*
X45612Y80679D01*
X45622Y80709D01*
X45630Y80742D01*
X45635Y80778D01*
X45635Y80778D01*
X45203Y80650D02*
X45203Y82082D01*
X45027Y82082D01*
X45027Y80650D01*
X45203Y80650D01*
X45203Y80650D01*
X44199Y80650D02*
X44199Y81687D01*
X44041Y81687D01*
X44041Y81540D01*
X43978Y81614D01*
X43901Y81668D01*
X43813Y81700D01*
X43711Y81711D01*
X43665Y81708D01*
X43621Y81702D01*
X43579Y81692D01*
X43539Y81677D01*
X43502Y81659D01*
X43470Y81638D01*
X43443Y81615D01*
X43421Y81588D01*
X43403Y81560D01*
X43388Y81529D01*
X43376Y81495D01*
X43366Y81459D01*
X43362Y81430D01*
X43359Y81391D01*
X43357Y81344D01*
X43357Y81288D01*
X43357Y80650D01*
X43532Y80650D01*
X43532Y81281D01*
X43534Y81331D01*
X43537Y81375D01*
X43544Y81412D01*
X43553Y81442D01*
X43565Y81467D01*
X43581Y81489D01*
X43601Y81509D01*
X43626Y81526D01*
X43653Y81540D01*
X43682Y81550D01*
X43714Y81556D01*
X43748Y81558D01*
X43802Y81554D01*
X43853Y81540D01*
X43899Y81518D01*
X43942Y81487D01*
X43978Y81443D01*
X44003Y81384D01*
X44018Y81308D01*
X44024Y81216D01*
X44024Y80650D01*
X44199Y80650D01*
X44199Y80650D01*
X42407Y80650D02*
X42407Y80802D01*
X42473Y80725D01*
X42550Y80671D01*
X42638Y80638D01*
X42736Y80627D01*
X42782Y80629D01*
X42825Y80635D01*
X42867Y80646D01*
X42908Y80662D01*
X42945Y80680D01*
X42977Y80701D01*
X43004Y80725D01*
X43026Y80750D01*
X43044Y80778D01*
X43059Y80809D01*
X43071Y80843D01*
X43080Y80880D01*
X43085Y80910D01*
X43088Y80947D01*
X43090Y80992D01*
X43091Y81045D01*
X43091Y81687D01*
X42915Y81687D01*
X42915Y81112D01*
X42914Y81049D01*
X42912Y80997D01*
X42909Y80956D01*
X42904Y80926D01*
X42894Y80894D01*
X42878Y80864D01*
X42859Y80839D01*
X42834Y80817D01*
X42806Y80800D01*
X42774Y80788D01*
X42739Y80780D01*
X42701Y80778D01*
X42662Y80780D01*
X42625Y80788D01*
X42588Y80801D01*
X42553Y80818D01*
X42521Y80841D01*
X42494Y80866D01*
X42472Y80896D01*
X42455Y80929D01*
X42442Y80968D01*
X42433Y81014D01*
X42428Y81069D01*
X42426Y81131D01*
X42426Y81687D01*
X42250Y81687D01*
X42250Y80650D01*
X42407Y80650D01*
X42407Y80650D01*
X41975Y80650D02*
X41975Y81687D01*
X41817Y81687D01*
X41817Y81542D01*
X41791Y81578D01*
X41761Y81610D01*
X41726Y81639D01*
X41688Y81664D01*
X41646Y81684D01*
X41601Y81699D01*
X41553Y81708D01*
X41503Y81711D01*
X41448Y81708D01*
X41398Y81699D01*
X41353Y81684D01*
X41314Y81663D01*
X41280Y81636D01*
X41251Y81605D01*
X41228Y81569D01*
X41210Y81529D01*
X41144Y81608D01*
X41068Y81665D01*
X40984Y81699D01*
X40890Y81711D01*
X40817Y81705D01*
X40753Y81689D01*
X40698Y81662D01*
X40652Y81625D01*
X40616Y81577D01*
X40590Y81517D01*
X40575Y81445D01*
X40569Y81362D01*
X40569Y80650D01*
X40744Y80650D01*
X40744Y81303D01*
X40745Y81352D01*
X40748Y81394D01*
X40754Y81428D01*
X40761Y81455D01*
X40772Y81477D01*
X40785Y81497D01*
X40803Y81515D01*
X40823Y81530D01*
X40847Y81542D01*
X40872Y81551D01*
X40899Y81556D01*
X40929Y81558D01*
X40981Y81554D01*
X41029Y81540D01*
X41072Y81517D01*
X41110Y81485D01*
X41142Y81444D01*
X41165Y81391D01*
X41178Y81327D01*
X41183Y81253D01*
X41183Y80650D01*
X41358Y80650D01*
X41358Y81324D01*
X41361Y81379D01*
X41369Y81426D01*
X41383Y81467D01*
X41401Y81500D01*
X41426Y81525D01*
X41458Y81544D01*
X41497Y81555D01*
X41542Y81558D01*
X41578Y81556D01*
X41613Y81548D01*
X41647Y81536D01*
X41679Y81519D01*
X41709Y81497D01*
X41734Y81471D01*
X41754Y81440D01*
X41771Y81405D01*
X41783Y81363D01*
X41792Y81313D01*
X41797Y81255D01*
X41799Y81188D01*
X41799Y80650D01*
X41975Y80650D01*
X41975Y80650D01*
X40147Y80650D02*
X40310Y80650D01*
X40310Y82082D01*
X40134Y82082D01*
X40134Y81571D01*
X40074Y81632D01*
X40007Y81676D01*
X39932Y81702D01*
X39850Y81711D01*
X39802Y81708D01*
X39756Y81701D01*
X39712Y81689D01*
X39668Y81672D01*
X39628Y81651D01*
X39591Y81626D01*
X39557Y81597D01*
X39528Y81564D01*
X39502Y81527D01*
X39479Y81487D01*
X39459Y81443D01*
X39441Y81395D01*
X39428Y81345D01*
X39418Y81293D01*
X39412Y81239D01*
X39410Y81184D01*
X39418Y81058D01*
X39443Y80948D01*
X39484Y80852D01*
X39542Y80772D01*
X39611Y80708D01*
X39687Y80663D01*
X39769Y80636D01*
X39858Y80627D01*
X39945Y80636D01*
X40022Y80665D01*
X40089Y80713D01*
X40140Y80773D01*
X40053Y80847D01*
X40000Y80805D01*
X39940Y80780D01*
X39873Y80771D01*
X39817Y80777D01*
X39766Y80796D01*
X39718Y80827D01*
X39674Y80871D01*
X39637Y80927D01*
X39611Y80996D01*
X39595Y81077D01*
X39590Y81170D01*
X39595Y81264D01*
X39610Y81346D01*
X39635Y81414D01*
X39670Y81469D01*
X39713Y81512D01*
X39759Y81542D01*
X39810Y81560D01*
X39865Y81566D01*
X39921Y81560D01*
X39973Y81541D01*
X40021Y81510D01*
X40064Y81466D01*
X40101Y81410D01*
X40127Y81343D01*
X40143Y81266D01*
X40148Y81176D01*
X40148Y81176D01*
X40145Y81090D01*
X40136Y81016D01*
X40120Y80955D01*
X40098Y80907D01*
X40053Y80847D01*
X40140Y80773D01*
X40147Y80780D01*
X40147Y80650D01*
X40147Y80650D01*
X38486Y80984D02*
X38305Y80962D01*
X38331Y80886D01*
X38366Y80820D01*
X38410Y80763D01*
X38464Y80714D01*
X38526Y80676D01*
X38596Y80649D01*
X38674Y80632D01*
X38761Y80627D01*
X38869Y80635D01*
X38965Y80662D01*
X39049Y80705D01*
X39122Y80767D01*
X39180Y80844D01*
X39222Y80935D01*
X39247Y81040D01*
X39255Y81160D01*
X39246Y81283D01*
X39221Y81392D01*
X39179Y81486D01*
X39120Y81566D01*
X39048Y81629D01*
X38965Y81674D01*
X38873Y81702D01*
X38771Y81711D01*
X38756Y81709D01*
X38769Y81566D01*
X38827Y81561D01*
X38880Y81546D01*
X38929Y81520D01*
X38972Y81485D01*
X39009Y81441D01*
X39036Y81390D01*
X39054Y81333D01*
X39063Y81268D01*
X39063Y81268D01*
X38484Y81268D01*
X38493Y81330D01*
X38507Y81383D01*
X38526Y81428D01*
X38551Y81464D01*
X38596Y81509D01*
X38647Y81541D01*
X38705Y81560D01*
X38769Y81566D01*
X38756Y81709D01*
X38671Y81702D01*
X38582Y81675D01*
X38501Y81631D01*
X38431Y81569D01*
X38373Y81491D01*
X38332Y81399D01*
X38307Y81292D01*
X38299Y81171D01*
X38299Y81162D01*
X38299Y81151D01*
X38299Y81138D01*
X38300Y81124D01*
X39073Y81124D01*
X39064Y81043D01*
X39044Y80973D01*
X39015Y80912D01*
X38977Y80862D01*
X38930Y80822D01*
X38879Y80794D01*
X38822Y80777D01*
X38760Y80771D01*
X38713Y80774D01*
X38670Y80784D01*
X38631Y80800D01*
X38595Y80822D01*
X38562Y80851D01*
X38533Y80888D01*
X38508Y80932D01*
X38486Y80984D01*
X38486Y80984D01*
X38086Y80650D02*
X38086Y81687D01*
X37928Y81687D01*
X37928Y81530D01*
X37898Y81580D01*
X37869Y81621D01*
X37842Y81653D01*
X37816Y81675D01*
X37790Y81691D01*
X37762Y81702D01*
X37733Y81708D01*
X37703Y81711D01*
X37658Y81707D01*
X37614Y81696D01*
X37568Y81679D01*
X37522Y81654D01*
X37583Y81491D01*
X37615Y81507D01*
X37647Y81519D01*
X37680Y81527D01*
X37712Y81529D01*
X37740Y81527D01*
X37767Y81520D01*
X37792Y81509D01*
X37815Y81494D01*
X37837Y81475D01*
X37855Y81453D01*
X37869Y81427D01*
X37881Y81398D01*
X37894Y81350D01*
X37903Y81300D01*
X37908Y81248D01*
X37910Y81193D01*
X37910Y80650D01*
X38086Y80650D01*
X38086Y80650D01*
X37369Y80650D02*
X37369Y80850D01*
X37169Y80850D01*
X37169Y80650D01*
X37369Y80650D01*
X37369Y80650D01*
X37369Y81487D02*
X37369Y81687D01*
X37169Y81687D01*
X37169Y81487D01*
X37369Y81487D01*
X37369Y81487D01*
X35338Y5281D02*
X35338Y5365D01*
X35035Y5365D01*
X35035Y5100D01*
X35070Y5074D01*
X35106Y5051D01*
X35142Y5032D01*
X35179Y5016D01*
X35216Y5004D01*
X35254Y4995D01*
X35292Y4990D01*
X35331Y4988D01*
X35383Y4991D01*
X35432Y4999D01*
X35478Y5013D01*
X35523Y5033D01*
X35563Y5058D01*
X35598Y5088D01*
X35628Y5123D01*
X35653Y5164D01*
X35672Y5208D01*
X35686Y5254D01*
X35694Y5303D01*
X35697Y5354D01*
X35694Y5406D01*
X35686Y5456D01*
X35672Y5503D01*
X35653Y5550D01*
X35629Y5592D01*
X35600Y5628D01*
X35566Y5659D01*
X35527Y5684D01*
X35485Y5703D01*
X35439Y5717D01*
X35390Y5725D01*
X35338Y5728D01*
X35300Y5726D01*
X35264Y5722D01*
X35230Y5714D01*
X35198Y5703D01*
X35168Y5689D01*
X35142Y5673D01*
X35119Y5654D01*
X35100Y5633D01*
X35083Y5609D01*
X35068Y5581D01*
X35056Y5550D01*
X35045Y5516D01*
X35131Y5492D01*
X35139Y5518D01*
X35149Y5541D01*
X35159Y5561D01*
X35171Y5578D01*
X35184Y5593D01*
X35200Y5606D01*
X35218Y5618D01*
X35239Y5628D01*
X35262Y5636D01*
X35286Y5642D01*
X35311Y5646D01*
X35338Y5647D01*
X35369Y5646D01*
X35398Y5642D01*
X35425Y5636D01*
X35450Y5627D01*
X35473Y5617D01*
X35493Y5604D01*
X35511Y5591D01*
X35527Y5575D01*
X35540Y5559D01*
X35552Y5541D01*
X35563Y5523D01*
X35572Y5504D01*
X35584Y5470D01*
X35592Y5435D01*
X35597Y5398D01*
X35599Y5360D01*
X35597Y5314D01*
X35591Y5272D01*
X35581Y5234D01*
X35566Y5200D01*
X35548Y5170D01*
X35526Y5144D01*
X35500Y5122D01*
X35470Y5104D01*
X35438Y5091D01*
X35405Y5081D01*
X35371Y5075D01*
X35336Y5073D01*
X35306Y5075D01*
X35276Y5079D01*
X35246Y5087D01*
X35216Y5097D01*
X35189Y5109D01*
X35165Y5121D01*
X35144Y5134D01*
X35127Y5147D01*
X35127Y5281D01*
X35338Y5281D01*
X35338Y5281D01*
X34896Y5000D02*
X34896Y5716D01*
X34799Y5716D01*
X34423Y5154D01*
X34423Y5716D01*
X34332Y5716D01*
X34332Y5000D01*
X34429Y5000D01*
X34805Y5563D01*
X34805Y5000D01*
X34896Y5000D01*
X34896Y5000D01*
X34173Y5000D02*
X34173Y5716D01*
X33928Y5716D01*
X33928Y5631D01*
X34078Y5631D01*
X34078Y5084D01*
X34078Y5084D01*
X33925Y5084D01*
X33892Y5085D01*
X33862Y5088D01*
X33836Y5092D01*
X33814Y5098D01*
X33795Y5105D01*
X33778Y5114D01*
X33763Y5123D01*
X33750Y5135D01*
X33734Y5153D01*
X33720Y5174D01*
X33708Y5198D01*
X33697Y5225D01*
X33689Y5255D01*
X33683Y5288D01*
X33680Y5324D01*
X33679Y5363D01*
X33681Y5416D01*
X33688Y5463D01*
X33699Y5502D01*
X33716Y5536D01*
X33735Y5564D01*
X33756Y5586D01*
X33780Y5604D01*
X33805Y5617D01*
X33827Y5623D01*
X33855Y5628D01*
X33888Y5630D01*
X33928Y5631D01*
X33928Y5716D01*
X33926Y5716D01*
X33887Y5715D01*
X33853Y5713D01*
X33823Y5710D01*
X33799Y5706D01*
X33769Y5697D01*
X33742Y5686D01*
X33717Y5671D01*
X33694Y5654D01*
X33667Y5629D01*
X33644Y5600D01*
X33625Y5568D01*
X33609Y5532D01*
X33597Y5493D01*
X33588Y5452D01*
X33583Y5408D01*
X33581Y5362D01*
X33582Y5322D01*
X33586Y5285D01*
X33592Y5250D01*
X33600Y5217D01*
X33610Y5187D01*
X33622Y5160D01*
X33635Y5135D01*
X33649Y5113D01*
X33664Y5094D01*
X33680Y5076D01*
X33697Y5061D01*
X33714Y5048D01*
X33733Y5037D01*
X33753Y5027D01*
X33775Y5019D01*
X33800Y5012D01*
X33825Y5007D01*
X33853Y5003D01*
X33883Y5001D01*
X33915Y5000D01*
X34173Y5000D01*
X34173Y5000D01*
X46303Y83500D02*
X46303Y84932D01*
X45766Y84932D01*
X45688Y84929D01*
X45618Y84921D01*
X45556Y84907D01*
X45502Y84888D01*
X45456Y84864D01*
X45414Y84833D01*
X45378Y84797D01*
X45347Y84754D01*
X45323Y84709D01*
X45305Y84662D01*
X45295Y84614D01*
X45291Y84565D01*
X45294Y84520D01*
X45303Y84476D01*
X45319Y84434D01*
X45341Y84393D01*
X45369Y84354D01*
X45403Y84319D01*
X45444Y84289D01*
X45491Y84262D01*
X45547Y84127D01*
X45573Y84137D01*
X45613Y84148D01*
X45661Y84155D01*
X45718Y84160D01*
X45782Y84161D01*
X46113Y84161D01*
X46113Y83669D01*
X46113Y83669D01*
X45757Y83669D01*
X45714Y83669D01*
X45679Y83671D01*
X45650Y83673D01*
X45628Y83676D01*
X45597Y83683D01*
X45568Y83691D01*
X45542Y83702D01*
X45519Y83715D01*
X45498Y83730D01*
X45478Y83748D01*
X45461Y83770D01*
X45446Y83794D01*
X45434Y83822D01*
X45425Y83851D01*
X45420Y83882D01*
X45418Y83915D01*
X45421Y83954D01*
X45428Y83990D01*
X45441Y84023D01*
X45459Y84054D01*
X45481Y84082D01*
X45508Y84104D01*
X45538Y84123D01*
X45547Y84127D01*
X45491Y84262D01*
X45560Y84375D01*
X45535Y84395D01*
X45514Y84418D01*
X45498Y84444D01*
X45487Y84474D01*
X45480Y84507D01*
X45478Y84543D01*
X45480Y84578D01*
X45486Y84610D01*
X45497Y84640D01*
X45512Y84668D01*
X45531Y84693D01*
X45553Y84714D01*
X45579Y84731D01*
X45609Y84743D01*
X45647Y84751D01*
X45696Y84758D01*
X45756Y84761D01*
X45827Y84763D01*
X46113Y84763D01*
X46113Y84330D01*
X46113Y84330D01*
X45804Y84330D01*
X45745Y84331D01*
X45696Y84334D01*
X45655Y84339D01*
X45623Y84347D01*
X45589Y84359D01*
X45560Y84375D01*
X45491Y84262D01*
X45430Y84239D01*
X45376Y84210D01*
X45330Y84174D01*
X45291Y84132D01*
X45261Y84084D01*
X45239Y84032D01*
X45226Y83975D01*
X45222Y83915D01*
X45224Y83866D01*
X45232Y83818D01*
X45246Y83772D01*
X45264Y83728D01*
X45287Y83687D01*
X45312Y83651D01*
X45339Y83621D01*
X45369Y83595D01*
X45402Y83573D01*
X45440Y83554D01*
X45481Y83537D01*
X45526Y83524D01*
X45576Y83513D01*
X45631Y83506D01*
X45691Y83501D01*
X45757Y83500D01*
X46303Y83500D01*
X46303Y83500D01*
X44304Y83500D02*
X44304Y83652D01*
X44370Y83575D01*
X44446Y83521D01*
X44534Y83488D01*
X44633Y83477D01*
X44678Y83479D01*
X44722Y83485D01*
X44764Y83496D01*
X44804Y83512D01*
X44841Y83530D01*
X44873Y83551D01*
X44900Y83575D01*
X44922Y83600D01*
X44940Y83628D01*
X44955Y83659D01*
X44967Y83693D01*
X44977Y83730D01*
X44981Y83760D01*
X44985Y83797D01*
X44987Y83842D01*
X44987Y83895D01*
X44987Y84537D01*
X44811Y84537D01*
X44811Y83962D01*
X44811Y83899D01*
X44809Y83847D01*
X44805Y83806D01*
X44801Y83776D01*
X44790Y83744D01*
X44775Y83714D01*
X44755Y83689D01*
X44730Y83667D01*
X44702Y83650D01*
X44670Y83638D01*
X44636Y83630D01*
X44598Y83628D01*
X44559Y83630D01*
X44521Y83638D01*
X44484Y83651D01*
X44449Y83668D01*
X44417Y83691D01*
X44390Y83716D01*
X44368Y83746D01*
X44351Y83779D01*
X44338Y83818D01*
X44329Y83864D01*
X44324Y83919D01*
X44322Y83981D01*
X44322Y84537D01*
X44146Y84537D01*
X44146Y83500D01*
X44304Y83500D01*
X44304Y83500D01*
X43870Y83500D02*
X43870Y84537D01*
X43694Y84537D01*
X43694Y83500D01*
X43870Y83500D01*
X43870Y83500D01*
X43870Y84729D02*
X43870Y84932D01*
X43694Y84932D01*
X43694Y84729D01*
X43870Y84729D01*
X43870Y84729D01*
X43431Y83500D02*
X43431Y84932D01*
X43255Y84932D01*
X43255Y83500D01*
X43431Y83500D01*
X43431Y83500D01*
X42310Y83500D02*
X42310Y83631D01*
X42390Y83713D01*
X42387Y83715D01*
X42352Y83769D01*
X42327Y83834D01*
X42312Y83912D01*
X42307Y84003D01*
X42312Y84102D01*
X42327Y84188D01*
X42353Y84259D01*
X42389Y84315D01*
X42432Y84359D01*
X42480Y84390D01*
X42533Y84409D01*
X42591Y84415D01*
X42647Y84409D01*
X42698Y84391D01*
X42745Y84361D01*
X42787Y84319D01*
X42821Y84265D01*
X42846Y84196D01*
X42860Y84114D01*
X42865Y84018D01*
X42865Y84018D01*
X42860Y83924D01*
X42844Y83844D01*
X42818Y83775D01*
X42781Y83720D01*
X42737Y83677D01*
X42690Y83646D01*
X42638Y83627D01*
X42583Y83621D01*
X42528Y83627D01*
X42476Y83645D01*
X42430Y83674D01*
X42390Y83713D01*
X42310Y83631D01*
X42365Y83563D01*
X42431Y83515D01*
X42510Y83486D01*
X42600Y83477D01*
X42660Y83481D01*
X42719Y83494D01*
X42774Y83515D01*
X42828Y83545D01*
X42877Y83582D01*
X42920Y83627D01*
X42957Y83678D01*
X42989Y83736D01*
X43014Y83799D01*
X43032Y83868D01*
X43042Y83940D01*
X43046Y84018D01*
X43043Y84093D01*
X43033Y84166D01*
X43017Y84234D01*
X42994Y84299D01*
X42965Y84359D01*
X42929Y84411D01*
X42887Y84456D01*
X42839Y84493D01*
X42786Y84523D01*
X42729Y84544D01*
X42670Y84556D01*
X42607Y84561D01*
X42562Y84558D01*
X42519Y84551D01*
X42478Y84538D01*
X42440Y84521D01*
X42406Y84500D01*
X42374Y84475D01*
X42346Y84448D01*
X42321Y84418D01*
X42321Y84932D01*
X42147Y84932D01*
X42147Y83500D01*
X42310Y83500D01*
X42310Y83500D01*
X40642Y83500D02*
X40642Y83631D01*
X40722Y83713D01*
X40719Y83715D01*
X40684Y83769D01*
X40659Y83834D01*
X40644Y83912D01*
X40639Y84003D01*
X40644Y84102D01*
X40659Y84188D01*
X40685Y84259D01*
X40721Y84315D01*
X40764Y84359D01*
X40812Y84390D01*
X40865Y84409D01*
X40923Y84415D01*
X40979Y84409D01*
X41030Y84391D01*
X41077Y84361D01*
X41119Y84319D01*
X41153Y84265D01*
X41178Y84196D01*
X41192Y84114D01*
X41197Y84018D01*
X41197Y84018D01*
X41192Y83924D01*
X41176Y83844D01*
X41150Y83775D01*
X41113Y83720D01*
X41069Y83677D01*
X41022Y83646D01*
X40970Y83627D01*
X40915Y83621D01*
X40860Y83627D01*
X40809Y83645D01*
X40762Y83674D01*
X40722Y83713D01*
X40642Y83631D01*
X40697Y83563D01*
X40763Y83515D01*
X40842Y83486D01*
X40932Y83477D01*
X40992Y83481D01*
X41051Y83494D01*
X41106Y83515D01*
X41160Y83545D01*
X41209Y83582D01*
X41252Y83627D01*
X41289Y83678D01*
X41321Y83736D01*
X41346Y83799D01*
X41364Y83868D01*
X41374Y83940D01*
X41378Y84018D01*
X41375Y84093D01*
X41365Y84166D01*
X41349Y84234D01*
X41326Y84299D01*
X41297Y84359D01*
X41262Y84411D01*
X41219Y84456D01*
X41171Y84493D01*
X41118Y84523D01*
X41061Y84544D01*
X41002Y84556D01*
X40939Y84561D01*
X40894Y84558D01*
X40851Y84551D01*
X40810Y84538D01*
X40772Y84521D01*
X40738Y84500D01*
X40706Y84475D01*
X40678Y84448D01*
X40653Y84418D01*
X40653Y84932D01*
X40479Y84932D01*
X40479Y83500D01*
X40642Y83500D01*
X40642Y83500D01*
X39525Y83628D02*
X39574Y83589D01*
X39581Y83585D01*
X39648Y83683D01*
X39616Y83711D01*
X39590Y83744D01*
X39568Y83780D01*
X39556Y83814D01*
X39547Y83854D01*
X39542Y83901D01*
X39540Y83956D01*
X39540Y84021D01*
X39540Y84021D01*
X39594Y84002D01*
X39660Y83984D01*
X39737Y83969D01*
X39827Y83954D01*
X39877Y83946D01*
X39920Y83937D01*
X39954Y83928D01*
X39980Y83919D01*
X40002Y83908D01*
X40020Y83895D01*
X40036Y83879D01*
X40050Y83862D01*
X40061Y83842D01*
X40068Y83822D01*
X40073Y83801D01*
X40074Y83778D01*
X40071Y83745D01*
X40061Y83714D01*
X40044Y83686D01*
X40021Y83661D01*
X39991Y83641D01*
X39955Y83626D01*
X39913Y83617D01*
X39865Y83614D01*
X39816Y83617D01*
X39769Y83625D01*
X39726Y83639D01*
X39685Y83659D01*
X39648Y83683D01*
X39581Y83585D01*
X39621Y83557D01*
X39668Y83531D01*
X39713Y83511D01*
X39759Y83496D01*
X39807Y83485D01*
X39856Y83479D01*
X39907Y83477D01*
X39988Y83482D01*
X40058Y83497D01*
X40119Y83524D01*
X40170Y83560D01*
X40210Y83605D01*
X40239Y83655D01*
X40256Y83711D01*
X40262Y83773D01*
X40260Y83811D01*
X40253Y83846D01*
X40242Y83880D01*
X40227Y83913D01*
X40208Y83943D01*
X40187Y83969D01*
X40163Y83993D01*
X40136Y84014D01*
X40107Y84032D01*
X40077Y84047D01*
X40044Y84060D01*
X40010Y84071D01*
X39981Y84078D01*
X39945Y84085D01*
X39902Y84091D01*
X39854Y84098D01*
X39754Y84111D01*
X39669Y84125D01*
X39597Y84141D01*
X39540Y84158D01*
X39540Y84175D01*
X39539Y84188D01*
X39539Y84198D01*
X39539Y84204D01*
X39542Y84254D01*
X39552Y84296D01*
X39567Y84330D01*
X39589Y84355D01*
X39627Y84382D01*
X39673Y84400D01*
X39727Y84411D01*
X39789Y84415D01*
X39847Y84412D01*
X39897Y84404D01*
X39939Y84391D01*
X39972Y84372D01*
X40000Y84346D01*
X40024Y84311D01*
X40044Y84269D01*
X40060Y84218D01*
X40231Y84241D01*
X40218Y84294D01*
X40200Y84341D01*
X40179Y84383D01*
X40154Y84419D01*
X40124Y84451D01*
X40089Y84479D01*
X40047Y84504D01*
X39999Y84524D01*
X39946Y84540D01*
X39889Y84551D01*
X39829Y84558D01*
X39764Y84561D01*
X39700Y84559D01*
X39643Y84553D01*
X39592Y84543D01*
X39548Y84529D01*
X39509Y84513D01*
X39476Y84494D01*
X39448Y84473D01*
X39426Y84451D01*
X39408Y84425D01*
X39393Y84397D01*
X39380Y84366D01*
X39371Y84331D01*
X39367Y84304D01*
X39365Y84268D01*
X39363Y84223D01*
X39362Y84169D01*
X39362Y83935D01*
X39362Y83823D01*
X39360Y83734D01*
X39356Y83668D01*
X39351Y83625D01*
X39344Y83592D01*
X39334Y83561D01*
X39322Y83530D01*
X39307Y83500D01*
X39490Y83500D01*
X39503Y83529D01*
X39513Y83559D01*
X39520Y83592D01*
X39525Y83628D01*
X39525Y83628D01*
X38706Y83657D02*
X38681Y83502D01*
X38717Y83495D01*
X38751Y83490D01*
X38783Y83487D01*
X38813Y83486D01*
X38859Y83488D01*
X38898Y83494D01*
X38933Y83503D01*
X38962Y83517D01*
X38986Y83533D01*
X39007Y83552D01*
X39023Y83573D01*
X39036Y83596D01*
X39046Y83628D01*
X39052Y83673D01*
X39056Y83731D01*
X39058Y83804D01*
X39058Y84400D01*
X39187Y84400D01*
X39187Y84537D01*
X39058Y84537D01*
X39058Y84794D01*
X38883Y84899D01*
X38883Y84537D01*
X38706Y84537D01*
X38706Y84400D01*
X38883Y84400D01*
X38883Y83794D01*
X38882Y83760D01*
X38880Y83732D01*
X38878Y83711D01*
X38874Y83697D01*
X38868Y83687D01*
X38861Y83678D01*
X38853Y83670D01*
X38843Y83663D01*
X38832Y83658D01*
X38818Y83654D01*
X38802Y83651D01*
X38783Y83650D01*
X38767Y83651D01*
X38749Y83652D01*
X38729Y83654D01*
X38706Y83657D01*
X38706Y83657D01*
X37824Y83834D02*
X37643Y83812D01*
X37669Y83736D01*
X37704Y83670D01*
X37748Y83613D01*
X37802Y83564D01*
X37864Y83526D01*
X37934Y83499D01*
X38012Y83482D01*
X38099Y83477D01*
X38207Y83485D01*
X38303Y83512D01*
X38387Y83555D01*
X38459Y83617D01*
X38518Y83694D01*
X38559Y83785D01*
X38584Y83890D01*
X38593Y84010D01*
X38584Y84133D01*
X38559Y84242D01*
X38517Y84336D01*
X38458Y84416D01*
X38386Y84479D01*
X38303Y84524D01*
X38211Y84552D01*
X38108Y84561D01*
X38094Y84559D01*
X38106Y84416D01*
X38165Y84411D01*
X38218Y84396D01*
X38266Y84370D01*
X38310Y84335D01*
X38347Y84291D01*
X38374Y84240D01*
X38392Y84183D01*
X38401Y84118D01*
X38401Y84118D01*
X37822Y84118D01*
X37831Y84180D01*
X37845Y84233D01*
X37864Y84278D01*
X37889Y84314D01*
X37934Y84359D01*
X37985Y84391D01*
X38043Y84410D01*
X38106Y84416D01*
X38094Y84559D01*
X38009Y84552D01*
X37919Y84525D01*
X37839Y84481D01*
X37769Y84419D01*
X37711Y84341D01*
X37670Y84249D01*
X37645Y84142D01*
X37637Y84021D01*
X37637Y84012D01*
X37637Y84001D01*
X37637Y83988D01*
X37638Y83974D01*
X38411Y83974D01*
X38401Y83893D01*
X38382Y83823D01*
X38353Y83762D01*
X38314Y83712D01*
X38268Y83672D01*
X38217Y83644D01*
X38160Y83627D01*
X38098Y83621D01*
X38051Y83624D01*
X38008Y83634D01*
X37969Y83650D01*
X37933Y83672D01*
X37900Y83701D01*
X37871Y83738D01*
X37846Y83782D01*
X37824Y83834D01*
X37824Y83834D01*
X37373Y83500D02*
X37373Y83700D01*
X37173Y83700D01*
X37173Y83500D01*
X37373Y83500D01*
X37373Y83500D01*
X37373Y84337D02*
X37373Y84537D01*
X37173Y84537D01*
X37173Y84337D01*
X37373Y84337D01*
X37373Y84337D01*
X43842Y87580D02*
X44397Y89012D01*
X44192Y89012D01*
X43819Y87972D01*
X43798Y87910D01*
X43778Y87851D01*
X43760Y87793D01*
X43744Y87738D01*
X43727Y87796D01*
X43708Y87855D01*
X43688Y87913D01*
X43667Y87972D01*
X43280Y89012D01*
X43087Y89012D01*
X43648Y87580D01*
X43842Y87580D01*
X43842Y87580D01*
X42340Y87914D02*
X42158Y87892D01*
X42184Y87817D01*
X42220Y87751D01*
X42264Y87693D01*
X42317Y87645D01*
X42380Y87606D01*
X42450Y87579D01*
X42528Y87562D01*
X42614Y87557D01*
X42722Y87566D01*
X42818Y87592D01*
X42903Y87636D01*
X42975Y87697D01*
X43034Y87774D01*
X43075Y87865D01*
X43100Y87971D01*
X43108Y88090D01*
X43100Y88214D01*
X43075Y88323D01*
X43033Y88417D01*
X42974Y88496D01*
X42901Y88560D01*
X42819Y88605D01*
X42727Y88632D01*
X42624Y88641D01*
X42609Y88640D01*
X42622Y88496D01*
X42680Y88491D01*
X42734Y88476D01*
X42782Y88451D01*
X42826Y88415D01*
X42862Y88371D01*
X42890Y88321D01*
X42908Y88263D01*
X42917Y88198D01*
X42917Y88198D01*
X42338Y88198D01*
X42347Y88260D01*
X42360Y88313D01*
X42380Y88358D01*
X42404Y88395D01*
X42449Y88439D01*
X42501Y88471D01*
X42558Y88490D01*
X42622Y88496D01*
X42609Y88640D01*
X42525Y88632D01*
X42435Y88605D01*
X42355Y88561D01*
X42284Y88499D01*
X42227Y88421D01*
X42185Y88329D01*
X42161Y88222D01*
X42152Y88101D01*
X42153Y88092D01*
X42153Y88081D01*
X42153Y88069D01*
X42153Y88054D01*
X42927Y88054D01*
X42917Y87974D01*
X42898Y87903D01*
X42869Y87843D01*
X42830Y87792D01*
X42784Y87753D01*
X42733Y87724D01*
X42676Y87707D01*
X42613Y87701D01*
X42567Y87705D01*
X42524Y87714D01*
X42484Y87730D01*
X42448Y87752D01*
X42416Y87781D01*
X42387Y87818D01*
X42362Y87862D01*
X42340Y87914D01*
X42340Y87914D01*
X41940Y87580D02*
X41940Y88617D01*
X41781Y88617D01*
X41781Y88460D01*
X41752Y88511D01*
X41723Y88552D01*
X41696Y88583D01*
X41670Y88606D01*
X41643Y88621D01*
X41616Y88632D01*
X41587Y88639D01*
X41557Y88641D01*
X41512Y88637D01*
X41467Y88627D01*
X41422Y88609D01*
X41376Y88584D01*
X41437Y88421D01*
X41469Y88438D01*
X41501Y88450D01*
X41533Y88457D01*
X41566Y88459D01*
X41594Y88457D01*
X41620Y88451D01*
X41645Y88440D01*
X41669Y88425D01*
X41690Y88406D01*
X41708Y88383D01*
X41723Y88357D01*
X41734Y88328D01*
X41747Y88280D01*
X41756Y88230D01*
X41762Y88178D01*
X41764Y88123D01*
X41764Y87580D01*
X41940Y87580D01*
X41940Y87580D01*
X41342Y87890D02*
X41168Y87917D01*
X41157Y87868D01*
X41140Y87825D01*
X41117Y87788D01*
X41087Y87757D01*
X41050Y87733D01*
X41006Y87715D01*
X40956Y87705D01*
X40900Y87701D01*
X40843Y87705D01*
X40794Y87714D01*
X40753Y87729D01*
X40720Y87751D01*
X40694Y87776D01*
X40676Y87804D01*
X40665Y87834D01*
X40661Y87866D01*
X40664Y87895D01*
X40674Y87920D01*
X40690Y87942D01*
X40713Y87960D01*
X40738Y87973D01*
X40776Y87987D01*
X40828Y88003D01*
X40893Y88020D01*
X40982Y88043D01*
X41056Y88065D01*
X41116Y88086D01*
X41161Y88104D01*
X41196Y88124D01*
X41226Y88147D01*
X41252Y88173D01*
X41274Y88203D01*
X41291Y88235D01*
X41303Y88269D01*
X41310Y88305D01*
X41313Y88342D01*
X41311Y88376D01*
X41305Y88409D01*
X41295Y88440D01*
X41281Y88470D01*
X41264Y88499D01*
X41243Y88525D01*
X41220Y88548D01*
X41194Y88569D01*
X41172Y88583D01*
X41146Y88597D01*
X41116Y88609D01*
X41083Y88620D01*
X41047Y88629D01*
X41009Y88636D01*
X40971Y88640D01*
X40931Y88641D01*
X40872Y88639D01*
X40816Y88632D01*
X40764Y88621D01*
X40716Y88606D01*
X40673Y88587D01*
X40636Y88564D01*
X40605Y88539D01*
X40580Y88511D01*
X40560Y88478D01*
X40543Y88440D01*
X40530Y88398D01*
X40520Y88350D01*
X40692Y88326D01*
X40700Y88364D01*
X40714Y88398D01*
X40734Y88427D01*
X40759Y88451D01*
X40790Y88471D01*
X40827Y88485D01*
X40870Y88494D01*
X40918Y88496D01*
X40974Y88494D01*
X41022Y88486D01*
X41061Y88474D01*
X41091Y88456D01*
X41114Y88435D01*
X41130Y88413D01*
X41139Y88389D01*
X41143Y88363D01*
X41141Y88346D01*
X41137Y88330D01*
X41131Y88315D01*
X41121Y88301D01*
X41109Y88287D01*
X41094Y88275D01*
X41075Y88264D01*
X41054Y88254D01*
X41034Y88248D01*
X41002Y88238D01*
X40957Y88225D01*
X40899Y88209D01*
X40812Y88185D01*
X40740Y88164D01*
X40682Y88145D01*
X40638Y88128D01*
X40603Y88110D01*
X40572Y88089D01*
X40546Y88064D01*
X40523Y88035D01*
X40504Y88003D01*
X40491Y87968D01*
X40483Y87928D01*
X40481Y87885D01*
X40484Y87842D01*
X40493Y87800D01*
X40509Y87759D01*
X40532Y87719D01*
X40560Y87683D01*
X40594Y87651D01*
X40634Y87623D01*
X40680Y87599D01*
X40730Y87581D01*
X40783Y87568D01*
X40839Y87560D01*
X40899Y87557D01*
X40994Y87562D01*
X41077Y87578D01*
X41148Y87604D01*
X41207Y87641D01*
X41255Y87688D01*
X41293Y87745D01*
X41322Y87812D01*
X41342Y87890D01*
X41342Y87890D01*
X40271Y87580D02*
X40271Y88617D01*
X40095Y88617D01*
X40095Y87580D01*
X40271Y87580D01*
X40271Y87580D01*
X40271Y88810D02*
X40271Y89012D01*
X40095Y89012D01*
X40095Y88810D01*
X40271Y88810D01*
X40271Y88810D01*
X39893Y88099D02*
X39883Y88234D01*
X39853Y88350D01*
X39803Y88447D01*
X39733Y88526D01*
X39662Y88576D01*
X39584Y88612D01*
X39499Y88634D01*
X39406Y88641D01*
X39304Y88632D01*
X39212Y88606D01*
X39129Y88562D01*
X39057Y88501D01*
X38997Y88424D01*
X38955Y88334D01*
X38929Y88230D01*
X38921Y88114D01*
X38925Y88019D01*
X38936Y87935D01*
X38955Y87861D01*
X38981Y87799D01*
X39015Y87744D01*
X39055Y87697D01*
X39102Y87655D01*
X39156Y87620D01*
X39215Y87593D01*
X39276Y87573D01*
X39340Y87561D01*
X39406Y87557D01*
X39418Y87558D01*
X39406Y87701D01*
X39344Y87708D01*
X39286Y87726D01*
X39235Y87757D01*
X39189Y87801D01*
X39151Y87857D01*
X39123Y87927D01*
X39107Y88009D01*
X39102Y88105D01*
X39107Y88195D01*
X39124Y88274D01*
X39151Y88341D01*
X39189Y88396D01*
X39235Y88440D01*
X39287Y88471D01*
X39344Y88489D01*
X39406Y88495D01*
X39469Y88489D01*
X39527Y88471D01*
X39579Y88440D01*
X39625Y88397D01*
X39663Y88341D01*
X39690Y88273D01*
X39707Y88192D01*
X39712Y88099D01*
X39712Y88099D01*
X39707Y88006D01*
X39690Y87925D01*
X39663Y87856D01*
X39625Y87801D01*
X39579Y87757D01*
X39527Y87726D01*
X39469Y87708D01*
X39406Y87701D01*
X39418Y87558D01*
X39510Y87566D01*
X39603Y87592D01*
X39686Y87635D01*
X39758Y87697D01*
X39817Y87774D01*
X39859Y87867D01*
X39884Y87975D01*
X39893Y88099D01*
X39893Y88099D01*
X38715Y87580D02*
X38715Y88617D01*
X38557Y88617D01*
X38557Y88470D01*
X38493Y88545D01*
X38417Y88598D01*
X38328Y88630D01*
X38227Y88641D01*
X38181Y88639D01*
X38137Y88632D01*
X38095Y88622D01*
X38054Y88607D01*
X38017Y88589D01*
X37986Y88568D01*
X37959Y88545D01*
X37937Y88519D01*
X37919Y88490D01*
X37903Y88459D01*
X37891Y88425D01*
X37882Y88389D01*
X37878Y88360D01*
X37875Y88322D01*
X37873Y88274D01*
X37872Y88218D01*
X37872Y87580D01*
X38048Y87580D01*
X38048Y88211D01*
X38049Y88262D01*
X38053Y88305D01*
X38059Y88342D01*
X38068Y88372D01*
X38081Y88397D01*
X38097Y88420D01*
X38117Y88440D01*
X38141Y88457D01*
X38168Y88471D01*
X38198Y88481D01*
X38230Y88487D01*
X38264Y88489D01*
X38318Y88484D01*
X38368Y88471D01*
X38415Y88448D01*
X38458Y88417D01*
X38493Y88374D01*
X38519Y88314D01*
X38534Y88238D01*
X38539Y88147D01*
X38539Y87580D01*
X38715Y87580D01*
X38715Y87580D01*
X36434Y87580D02*
X36609Y87580D01*
X36609Y88700D01*
X36644Y88670D01*
X36683Y88640D01*
X36727Y88610D01*
X36776Y88579D01*
X36826Y88551D01*
X36874Y88526D01*
X36919Y88506D01*
X36961Y88489D01*
X36961Y88658D01*
X36890Y88695D01*
X36823Y88735D01*
X36761Y88779D01*
X36703Y88826D01*
X36652Y88875D01*
X36609Y88924D01*
X36574Y88971D01*
X36547Y89018D01*
X36434Y89018D01*
X36434Y87580D01*
X36434Y87580D01*
X35885Y87580D02*
X35885Y87781D01*
X35685Y87781D01*
X35685Y87580D01*
X35885Y87580D01*
X35885Y87580D01*
X35428Y88286D02*
X35425Y88407D01*
X35415Y88516D01*
X35398Y88611D01*
X35376Y88695D01*
X35346Y88768D01*
X35311Y88832D01*
X35269Y88887D01*
X35220Y88934D01*
X35165Y88971D01*
X35104Y88997D01*
X35036Y89013D01*
X34961Y89018D01*
X34905Y89015D01*
X34853Y89006D01*
X34804Y88992D01*
X34759Y88971D01*
X34717Y88946D01*
X34680Y88915D01*
X34646Y88879D01*
X34615Y88838D01*
X34589Y88792D01*
X34565Y88741D01*
X34544Y88685D01*
X34526Y88625D01*
X34512Y88557D01*
X34502Y88477D01*
X34496Y88387D01*
X34494Y88286D01*
X34497Y88166D01*
X34507Y88059D01*
X34523Y87963D01*
X34546Y87880D01*
X34575Y87807D01*
X34611Y87742D01*
X34652Y87687D01*
X34701Y87640D01*
X34756Y87603D01*
X34817Y87577D01*
X34886Y87561D01*
X34961Y87556D01*
X34975Y87557D01*
X34961Y87700D01*
X34903Y87708D01*
X34850Y87730D01*
X34801Y87766D01*
X34757Y87818D01*
X34721Y87891D01*
X34696Y87993D01*
X34680Y88125D01*
X34675Y88286D01*
X34680Y88448D01*
X34696Y88581D01*
X34721Y88683D01*
X34757Y88756D01*
X34801Y88807D01*
X34850Y88843D01*
X34904Y88865D01*
X34963Y88872D01*
X35020Y88866D01*
X35072Y88847D01*
X35117Y88815D01*
X35156Y88770D01*
X35196Y88691D01*
X35224Y88584D01*
X35241Y88449D01*
X35247Y88286D01*
X35247Y88286D01*
X35242Y88125D01*
X35227Y87993D01*
X35201Y87890D01*
X35165Y87817D01*
X35121Y87766D01*
X35072Y87730D01*
X35019Y87708D01*
X34961Y87700D01*
X34975Y87557D01*
X35059Y87565D01*
X35146Y87593D01*
X35222Y87639D01*
X35286Y87704D01*
X35348Y87808D01*
X35392Y87939D01*
X35419Y88099D01*
X35428Y88286D01*
X35428Y88286D01*
X34217Y87580D02*
X34217Y87781D01*
X34017Y87781D01*
X34017Y87580D01*
X34217Y87580D01*
X34217Y87580D01*
X33760Y88286D02*
X33757Y88407D01*
X33747Y88516D01*
X33730Y88611D01*
X33708Y88695D01*
X33678Y88768D01*
X33643Y88832D01*
X33601Y88887D01*
X33552Y88934D01*
X33497Y88971D01*
X33436Y88997D01*
X33368Y89013D01*
X33293Y89018D01*
X33237Y89015D01*
X33185Y89006D01*
X33136Y88992D01*
X33091Y88971D01*
X33049Y88946D01*
X33012Y88915D01*
X32978Y88879D01*
X32947Y88838D01*
X32921Y88792D01*
X32897Y88741D01*
X32876Y88685D01*
X32858Y88625D01*
X32844Y88557D01*
X32834Y88477D01*
X32828Y88387D01*
X32826Y88286D01*
X32829Y88166D01*
X32839Y88059D01*
X32855Y87963D01*
X32878Y87880D01*
X32907Y87807D01*
X32943Y87742D01*
X32984Y87687D01*
X33033Y87640D01*
X33088Y87603D01*
X33149Y87577D01*
X33218Y87561D01*
X33293Y87556D01*
X33307Y87557D01*
X33293Y87700D01*
X33235Y87708D01*
X33182Y87730D01*
X33133Y87766D01*
X33089Y87818D01*
X33053Y87891D01*
X33028Y87993D01*
X33012Y88125D01*
X33007Y88286D01*
X33012Y88448D01*
X33028Y88581D01*
X33053Y88683D01*
X33089Y88756D01*
X33133Y88807D01*
X33182Y88843D01*
X33236Y88865D01*
X33295Y88872D01*
X33352Y88866D01*
X33404Y88847D01*
X33449Y88815D01*
X33488Y88770D01*
X33528Y88691D01*
X33556Y88584D01*
X33574Y88449D01*
X33579Y88286D01*
X33579Y88286D01*
X33574Y88125D01*
X33559Y87993D01*
X33533Y87890D01*
X33497Y87817D01*
X33453Y87766D01*
X33405Y87730D01*
X33351Y87708D01*
X33293Y87700D01*
X33307Y87557D01*
X33391Y87565D01*
X33478Y87593D01*
X33554Y87639D01*
X33618Y87704D01*
X33680Y87808D01*
X33724Y87939D01*
X33751Y88099D01*
X33760Y88286D01*
X33760Y88286D01*
X41000Y5116D02*
X41000Y5312D01*
X41194Y5312D01*
X41194Y5394D01*
X41000Y5394D01*
X41000Y5589D01*
X40917Y5589D01*
X40917Y5394D01*
X40722Y5394D01*
X40722Y5312D01*
X40917Y5312D01*
X40917Y5116D01*
X41000Y5116D01*
X41000Y5116D01*
X40624Y5188D02*
X40532Y5195D01*
X40525Y5164D01*
X40515Y5136D01*
X40502Y5113D01*
X40485Y5094D01*
X40465Y5079D01*
X40443Y5069D01*
X40420Y5062D01*
X40395Y5060D01*
X40364Y5063D01*
X40336Y5072D01*
X40310Y5087D01*
X40287Y5108D01*
X40268Y5134D01*
X40254Y5164D01*
X40246Y5197D01*
X40243Y5235D01*
X40246Y5270D01*
X40254Y5302D01*
X40267Y5330D01*
X40285Y5354D01*
X40308Y5373D01*
X40334Y5386D01*
X40363Y5394D01*
X40396Y5397D01*
X40417Y5396D01*
X40436Y5392D01*
X40455Y5386D01*
X40473Y5378D01*
X40489Y5367D01*
X40503Y5356D01*
X40516Y5342D01*
X40526Y5328D01*
X40609Y5338D01*
X40540Y5706D01*
X40184Y5706D01*
X40184Y5622D01*
X40469Y5622D01*
X40508Y5430D01*
X40475Y5449D01*
X40442Y5463D01*
X40408Y5472D01*
X40373Y5475D01*
X40328Y5471D01*
X40286Y5458D01*
X40248Y5438D01*
X40214Y5410D01*
X40186Y5375D01*
X40166Y5335D01*
X40154Y5291D01*
X40150Y5243D01*
X40153Y5196D01*
X40164Y5152D01*
X40182Y5112D01*
X40207Y5075D01*
X40244Y5037D01*
X40288Y5010D01*
X40338Y4993D01*
X40395Y4988D01*
X40441Y4991D01*
X40483Y5001D01*
X40521Y5019D01*
X40554Y5042D01*
X40582Y5072D01*
X40602Y5106D01*
X40617Y5145D01*
X40624Y5188D01*
X40624Y5188D01*
X39828Y5000D02*
X40105Y5716D01*
X40003Y5716D01*
X39817Y5196D01*
X39806Y5165D01*
X39796Y5135D01*
X39787Y5106D01*
X39779Y5079D01*
X39771Y5108D01*
X39761Y5137D01*
X39751Y5167D01*
X39741Y5196D01*
X39547Y5716D01*
X39451Y5716D01*
X39731Y5000D01*
X39828Y5000D01*
X39828Y5000D01*
X32838Y5281D02*
X32838Y5365D01*
X32535Y5365D01*
X32535Y5100D01*
X32570Y5074D01*
X32606Y5051D01*
X32642Y5032D01*
X32679Y5016D01*
X32716Y5004D01*
X32754Y4995D01*
X32792Y4990D01*
X32831Y4988D01*
X32883Y4991D01*
X32932Y4999D01*
X32978Y5013D01*
X33023Y5033D01*
X33063Y5058D01*
X33098Y5088D01*
X33128Y5123D01*
X33153Y5164D01*
X33172Y5208D01*
X33186Y5254D01*
X33194Y5303D01*
X33197Y5354D01*
X33194Y5406D01*
X33186Y5456D01*
X33172Y5503D01*
X33153Y5550D01*
X33129Y5592D01*
X33100Y5628D01*
X33066Y5659D01*
X33027Y5684D01*
X32985Y5703D01*
X32939Y5717D01*
X32890Y5725D01*
X32838Y5728D01*
X32800Y5726D01*
X32764Y5722D01*
X32730Y5714D01*
X32698Y5703D01*
X32668Y5689D01*
X32642Y5673D01*
X32619Y5654D01*
X32600Y5633D01*
X32583Y5609D01*
X32568Y5581D01*
X32556Y5550D01*
X32545Y5516D01*
X32631Y5492D01*
X32639Y5518D01*
X32649Y5541D01*
X32659Y5561D01*
X32671Y5578D01*
X32684Y5593D01*
X32700Y5606D01*
X32718Y5618D01*
X32739Y5628D01*
X32762Y5636D01*
X32786Y5642D01*
X32811Y5646D01*
X32838Y5647D01*
X32869Y5646D01*
X32898Y5642D01*
X32925Y5636D01*
X32950Y5627D01*
X32973Y5617D01*
X32993Y5604D01*
X33011Y5591D01*
X33027Y5575D01*
X33040Y5559D01*
X33052Y5541D01*
X33063Y5523D01*
X33072Y5504D01*
X33084Y5470D01*
X33092Y5435D01*
X33097Y5398D01*
X33099Y5360D01*
X33097Y5314D01*
X33091Y5272D01*
X33081Y5234D01*
X33066Y5200D01*
X33048Y5170D01*
X33026Y5144D01*
X33000Y5122D01*
X32970Y5104D01*
X32938Y5091D01*
X32905Y5081D01*
X32871Y5075D01*
X32836Y5073D01*
X32806Y5075D01*
X32776Y5079D01*
X32746Y5087D01*
X32716Y5097D01*
X32689Y5109D01*
X32665Y5121D01*
X32644Y5134D01*
X32627Y5147D01*
X32627Y5281D01*
X32838Y5281D01*
X32838Y5281D01*
X32396Y5000D02*
X32396Y5716D01*
X32299Y5716D01*
X31923Y5154D01*
X31923Y5716D01*
X31832Y5716D01*
X31832Y5000D01*
X31929Y5000D01*
X32305Y5563D01*
X32305Y5000D01*
X32396Y5000D01*
X32396Y5000D01*
X31673Y5000D02*
X31673Y5716D01*
X31428Y5716D01*
X31428Y5631D01*
X31578Y5631D01*
X31578Y5084D01*
X31578Y5084D01*
X31425Y5084D01*
X31392Y5085D01*
X31362Y5088D01*
X31336Y5092D01*
X31314Y5098D01*
X31295Y5105D01*
X31278Y5114D01*
X31263Y5123D01*
X31250Y5135D01*
X31234Y5153D01*
X31220Y5174D01*
X31208Y5198D01*
X31197Y5225D01*
X31189Y5255D01*
X31183Y5288D01*
X31180Y5324D01*
X31179Y5363D01*
X31181Y5416D01*
X31188Y5463D01*
X31199Y5502D01*
X31216Y5536D01*
X31235Y5564D01*
X31256Y5586D01*
X31280Y5604D01*
X31305Y5617D01*
X31327Y5623D01*
X31355Y5628D01*
X31388Y5630D01*
X31428Y5631D01*
X31428Y5716D01*
X31426Y5716D01*
X31387Y5715D01*
X31353Y5713D01*
X31323Y5710D01*
X31299Y5706D01*
X31269Y5697D01*
X31242Y5686D01*
X31217Y5671D01*
X31194Y5654D01*
X31167Y5629D01*
X31144Y5600D01*
X31125Y5568D01*
X31109Y5532D01*
X31097Y5493D01*
X31088Y5452D01*
X31083Y5408D01*
X31081Y5362D01*
X31082Y5322D01*
X31086Y5285D01*
X31092Y5250D01*
X31100Y5217D01*
X31110Y5187D01*
X31122Y5160D01*
X31135Y5135D01*
X31149Y5113D01*
X31164Y5094D01*
X31180Y5076D01*
X31197Y5061D01*
X31214Y5048D01*
X31233Y5037D01*
X31253Y5027D01*
X31275Y5019D01*
X31300Y5012D01*
X31325Y5007D01*
X31353Y5003D01*
X31383Y5001D01*
X31415Y5000D01*
X31673Y5000D01*
X31673Y5000D01*
X58868Y93000D02*
X58868Y94432D01*
X58692Y94432D01*
X58692Y93918D01*
X58627Y93980D01*
X58553Y94025D01*
X58472Y94052D01*
X58382Y94061D01*
X58326Y94058D01*
X58274Y94049D01*
X58226Y94035D01*
X58182Y94015D01*
X58142Y93990D01*
X58109Y93961D01*
X58081Y93928D01*
X58060Y93890D01*
X58044Y93845D01*
X58033Y93792D01*
X58026Y93729D01*
X58023Y93657D01*
X58023Y93000D01*
X58199Y93000D01*
X58199Y93657D01*
X58203Y93719D01*
X58214Y93771D01*
X58231Y93815D01*
X58256Y93849D01*
X58288Y93875D01*
X58325Y93894D01*
X58369Y93905D01*
X58418Y93909D01*
X58456Y93907D01*
X58494Y93899D01*
X58530Y93886D01*
X58565Y93869D01*
X58597Y93847D01*
X58624Y93821D01*
X58646Y93792D01*
X58663Y93759D01*
X58676Y93721D01*
X58685Y93676D01*
X58691Y93625D01*
X58692Y93567D01*
X58692Y93000D01*
X58868Y93000D01*
X58868Y93000D01*
X57372Y93157D02*
X57347Y93002D01*
X57383Y92995D01*
X57417Y92990D01*
X57449Y92987D01*
X57479Y92986D01*
X57525Y92988D01*
X57564Y92994D01*
X57599Y93003D01*
X57628Y93017D01*
X57652Y93033D01*
X57673Y93052D01*
X57689Y93073D01*
X57702Y93096D01*
X57712Y93128D01*
X57718Y93173D01*
X57722Y93231D01*
X57724Y93304D01*
X57724Y93900D01*
X57853Y93900D01*
X57853Y94037D01*
X57724Y94037D01*
X57724Y94294D01*
X57549Y94399D01*
X57549Y94037D01*
X57372Y94037D01*
X57372Y93900D01*
X57549Y93900D01*
X57549Y93294D01*
X57548Y93260D01*
X57546Y93232D01*
X57544Y93211D01*
X57540Y93197D01*
X57534Y93187D01*
X57527Y93178D01*
X57519Y93170D01*
X57509Y93163D01*
X57498Y93158D01*
X57484Y93154D01*
X57468Y93151D01*
X57449Y93150D01*
X57433Y93151D01*
X57415Y93152D01*
X57395Y93154D01*
X57372Y93157D01*
X57372Y93157D01*
X56816Y93157D02*
X56791Y93002D01*
X56827Y92995D01*
X56861Y92990D01*
X56894Y92987D01*
X56924Y92986D01*
X56969Y92988D01*
X57009Y92994D01*
X57043Y93003D01*
X57072Y93017D01*
X57097Y93033D01*
X57117Y93052D01*
X57134Y93073D01*
X57146Y93096D01*
X57156Y93128D01*
X57163Y93173D01*
X57167Y93231D01*
X57168Y93304D01*
X57168Y93900D01*
X57297Y93900D01*
X57297Y94037D01*
X57168Y94037D01*
X57168Y94294D01*
X56993Y94399D01*
X56993Y94037D01*
X56816Y94037D01*
X56816Y93900D01*
X56993Y93900D01*
X56993Y93294D01*
X56993Y93260D01*
X56991Y93232D01*
X56988Y93211D01*
X56984Y93197D01*
X56979Y93187D01*
X56972Y93178D01*
X56963Y93170D01*
X56954Y93163D01*
X56942Y93158D01*
X56928Y93154D01*
X56912Y93151D01*
X56894Y93150D01*
X56878Y93151D01*
X56860Y93152D01*
X56839Y93154D01*
X56816Y93157D01*
X56816Y93157D01*
X56645Y92603D02*
X56645Y94037D01*
X56484Y94037D01*
X56484Y93902D01*
X56398Y93818D01*
X56399Y93818D01*
X56437Y93759D01*
X56464Y93689D01*
X56480Y93607D01*
X56485Y93513D01*
X56485Y93513D01*
X56480Y93419D01*
X56465Y93339D01*
X56440Y93271D01*
X56404Y93217D01*
X56362Y93175D01*
X56315Y93145D01*
X56264Y93127D01*
X56208Y93121D01*
X56152Y93127D01*
X56099Y93146D01*
X56051Y93177D01*
X56007Y93220D01*
X55971Y93277D01*
X55945Y93347D01*
X55929Y93430D01*
X55924Y93527D01*
X55929Y93620D01*
X55944Y93701D01*
X55970Y93769D01*
X56005Y93824D01*
X56048Y93867D01*
X56095Y93898D01*
X56146Y93917D01*
X56200Y93923D01*
X56255Y93916D01*
X56306Y93897D01*
X56354Y93864D01*
X56398Y93818D01*
X56484Y93902D01*
X56455Y93939D01*
X56424Y93972D01*
X56391Y93999D01*
X56356Y94021D01*
X56319Y94038D01*
X56278Y94051D01*
X56233Y94058D01*
X56184Y94061D01*
X56119Y94056D01*
X56059Y94043D01*
X56002Y94022D01*
X55949Y93992D01*
X55902Y93954D01*
X55860Y93910D01*
X55825Y93858D01*
X55796Y93799D01*
X55773Y93736D01*
X55757Y93669D01*
X55747Y93599D01*
X55744Y93526D01*
X55748Y93449D01*
X55758Y93375D01*
X55776Y93305D01*
X55801Y93240D01*
X55833Y93180D01*
X55871Y93127D01*
X55916Y93082D01*
X55967Y93044D01*
X56022Y93015D01*
X56079Y92994D01*
X56137Y92981D01*
X56196Y92977D01*
X56239Y92979D01*
X56280Y92986D01*
X56318Y92997D01*
X56354Y93014D01*
X56387Y93033D01*
X56418Y93056D01*
X56445Y93080D01*
X56469Y93107D01*
X56469Y92603D01*
X56645Y92603D01*
X56645Y92603D01*
X55603Y93310D02*
X55429Y93337D01*
X55418Y93288D01*
X55401Y93245D01*
X55377Y93208D01*
X55347Y93177D01*
X55310Y93152D01*
X55267Y93135D01*
X55217Y93125D01*
X55160Y93121D01*
X55104Y93124D01*
X55055Y93133D01*
X55014Y93149D01*
X54980Y93170D01*
X54955Y93196D01*
X54937Y93224D01*
X54926Y93254D01*
X54922Y93286D01*
X54925Y93314D01*
X54935Y93339D01*
X54951Y93361D01*
X54974Y93380D01*
X54998Y93392D01*
X55037Y93406D01*
X55088Y93422D01*
X55153Y93439D01*
X55243Y93463D01*
X55317Y93485D01*
X55377Y93505D01*
X55421Y93524D01*
X55456Y93543D01*
X55487Y93566D01*
X55513Y93593D01*
X55535Y93623D01*
X55552Y93655D01*
X55564Y93689D01*
X55571Y93724D01*
X55573Y93762D01*
X55571Y93796D01*
X55565Y93828D01*
X55555Y93860D01*
X55542Y93890D01*
X55524Y93918D01*
X55504Y93944D01*
X55481Y93967D01*
X55455Y93988D01*
X55433Y94003D01*
X55407Y94016D01*
X55377Y94028D01*
X55343Y94040D01*
X55307Y94049D01*
X55270Y94055D01*
X55231Y94059D01*
X55191Y94061D01*
X55132Y94058D01*
X55077Y94052D01*
X55025Y94041D01*
X54977Y94025D01*
X54934Y94006D01*
X54897Y93984D01*
X54866Y93959D01*
X54841Y93930D01*
X54821Y93898D01*
X54804Y93860D01*
X54790Y93817D01*
X54780Y93770D01*
X54952Y93746D01*
X54961Y93784D01*
X54975Y93817D01*
X54995Y93846D01*
X55020Y93871D01*
X55051Y93891D01*
X55088Y93905D01*
X55130Y93913D01*
X55179Y93916D01*
X55235Y93914D01*
X55282Y93906D01*
X55321Y93893D01*
X55352Y93876D01*
X55374Y93855D01*
X55390Y93833D01*
X55400Y93808D01*
X55403Y93782D01*
X55402Y93766D01*
X55398Y93750D01*
X55391Y93735D01*
X55382Y93721D01*
X55370Y93707D01*
X55354Y93695D01*
X55336Y93684D01*
X55314Y93674D01*
X55295Y93667D01*
X55262Y93658D01*
X55217Y93645D01*
X55159Y93629D01*
X55073Y93605D01*
X55001Y93584D01*
X54943Y93564D01*
X54899Y93547D01*
X54864Y93530D01*
X54833Y93508D01*
X54806Y93484D01*
X54783Y93455D01*
X54765Y93423D01*
X54752Y93387D01*
X54744Y93348D01*
X54741Y93305D01*
X54744Y93261D01*
X54754Y93219D01*
X54770Y93179D01*
X54792Y93139D01*
X54821Y93103D01*
X54855Y93070D01*
X54895Y93042D01*
X54940Y93019D01*
X54990Y93000D01*
X55043Y92987D01*
X55100Y92979D01*
X55159Y92977D01*
X55254Y92982D01*
X55337Y92998D01*
X55408Y93024D01*
X55467Y93061D01*
X55515Y93108D01*
X55554Y93165D01*
X55583Y93232D01*
X55603Y93310D01*
X55603Y93310D01*
X54483Y93000D02*
X54483Y93200D01*
X54283Y93200D01*
X54283Y93000D01*
X54483Y93000D01*
X54483Y93000D01*
X54483Y93837D02*
X54483Y94037D01*
X54283Y94037D01*
X54283Y93837D01*
X54483Y93837D01*
X54483Y93837D01*
X54108Y92976D02*
X53693Y94456D01*
X53553Y94456D01*
X53967Y92976D01*
X54108Y92976D01*
X54108Y92976D01*
X53553Y92976D02*
X53138Y94456D01*
X52997Y94456D01*
X53411Y92976D01*
X53553Y92976D01*
X53553Y92976D01*
X52897Y92914D02*
X52727Y92889D01*
X52719Y92852D01*
X52706Y92820D01*
X52689Y92794D01*
X52667Y92773D01*
X52631Y92752D01*
X52590Y92737D01*
X52542Y92728D01*
X52488Y92725D01*
X52431Y92728D01*
X52380Y92737D01*
X52336Y92752D01*
X52300Y92773D01*
X52269Y92800D01*
X52244Y92832D01*
X52224Y92869D01*
X52210Y92910D01*
X52204Y92944D01*
X52200Y92993D01*
X52198Y93057D01*
X52197Y93136D01*
X52280Y93224D01*
X52265Y93239D01*
X52229Y93292D01*
X52203Y93359D01*
X52188Y93438D01*
X52183Y93531D01*
X52188Y93621D01*
X52204Y93698D01*
X52230Y93764D01*
X52267Y93818D01*
X52311Y93861D01*
X52360Y93891D01*
X52413Y93909D01*
X52471Y93915D01*
X52527Y93909D01*
X52579Y93891D01*
X52627Y93861D01*
X52670Y93820D01*
X52706Y93766D01*
X52731Y93702D01*
X52747Y93625D01*
X52752Y93537D01*
X52752Y93537D01*
X52747Y93442D01*
X52732Y93361D01*
X52706Y93293D01*
X52671Y93239D01*
X52628Y93198D01*
X52580Y93169D01*
X52526Y93151D01*
X52468Y93146D01*
X52410Y93151D01*
X52356Y93169D01*
X52308Y93198D01*
X52280Y93224D01*
X52197Y93136D01*
X52258Y93076D01*
X52327Y93034D01*
X52402Y93008D01*
X52484Y93000D01*
X52585Y93010D01*
X52674Y93039D01*
X52751Y93087D01*
X52815Y93154D01*
X52867Y93235D01*
X52903Y93324D01*
X52925Y93420D01*
X52933Y93524D01*
X52929Y93597D01*
X52919Y93667D01*
X52902Y93734D01*
X52879Y93798D01*
X52849Y93858D01*
X52813Y93910D01*
X52771Y93954D01*
X52723Y93992D01*
X52670Y94022D01*
X52612Y94043D01*
X52550Y94056D01*
X52483Y94061D01*
X52396Y94051D01*
X52316Y94023D01*
X52244Y93977D01*
X52181Y93912D01*
X52181Y94037D01*
X52019Y94037D01*
X52019Y93141D01*
X52022Y93028D01*
X52031Y92934D01*
X52046Y92857D01*
X52068Y92797D01*
X52096Y92749D01*
X52132Y92707D01*
X52174Y92670D01*
X52224Y92638D01*
X52281Y92612D01*
X52343Y92594D01*
X52412Y92583D01*
X52487Y92579D01*
X52576Y92584D01*
X52655Y92600D01*
X52726Y92626D01*
X52787Y92663D01*
X52837Y92710D01*
X52872Y92767D01*
X52892Y92835D01*
X52897Y92914D01*
X52897Y92914D01*
X51752Y93000D02*
X51752Y94037D01*
X51576Y94037D01*
X51576Y93000D01*
X51752Y93000D01*
X51752Y93000D01*
X51752Y94229D02*
X51752Y94432D01*
X51576Y94432D01*
X51576Y94229D01*
X51752Y94229D01*
X51752Y94229D01*
X50925Y93157D02*
X50899Y93002D01*
X50936Y92995D01*
X50970Y92990D01*
X51002Y92987D01*
X51032Y92986D01*
X51077Y92988D01*
X51117Y92994D01*
X51152Y93003D01*
X51181Y93017D01*
X51205Y93033D01*
X51226Y93052D01*
X51242Y93073D01*
X51255Y93096D01*
X51264Y93128D01*
X51271Y93173D01*
X51275Y93231D01*
X51276Y93304D01*
X51276Y93900D01*
X51405Y93900D01*
X51405Y94037D01*
X51276Y94037D01*
X51276Y94294D01*
X51102Y94399D01*
X51102Y94037D01*
X50925Y94037D01*
X50925Y93900D01*
X51102Y93900D01*
X51102Y93294D01*
X51101Y93260D01*
X51099Y93232D01*
X51096Y93211D01*
X51092Y93197D01*
X51087Y93187D01*
X51080Y93178D01*
X51072Y93170D01*
X51062Y93163D01*
X51050Y93158D01*
X51037Y93154D01*
X51020Y93151D01*
X51002Y93150D01*
X50986Y93151D01*
X50968Y93152D01*
X50948Y93154D01*
X50925Y93157D01*
X50925Y93157D01*
X50753Y93000D02*
X50753Y94432D01*
X50577Y94432D01*
X50577Y93918D01*
X50512Y93980D01*
X50438Y94025D01*
X50356Y94052D01*
X50267Y94061D01*
X50211Y94058D01*
X50159Y94049D01*
X50111Y94035D01*
X50066Y94015D01*
X50027Y93990D01*
X49994Y93961D01*
X49966Y93928D01*
X49945Y93890D01*
X49929Y93845D01*
X49917Y93792D01*
X49911Y93729D01*
X49908Y93657D01*
X49908Y93000D01*
X50084Y93000D01*
X50084Y93657D01*
X50088Y93719D01*
X50098Y93771D01*
X50116Y93815D01*
X50141Y93849D01*
X50173Y93875D01*
X50210Y93894D01*
X50253Y93905D01*
X50303Y93909D01*
X50341Y93907D01*
X50379Y93899D01*
X50415Y93886D01*
X50450Y93869D01*
X50482Y93847D01*
X50509Y93821D01*
X50531Y93792D01*
X50548Y93759D01*
X50561Y93721D01*
X50570Y93676D01*
X50575Y93625D01*
X50577Y93567D01*
X50577Y93000D01*
X50753Y93000D01*
X50753Y93000D01*
X48961Y93000D02*
X48961Y93152D01*
X49027Y93075D01*
X49104Y93021D01*
X49191Y92988D01*
X49290Y92977D01*
X49335Y92979D01*
X49379Y92985D01*
X49421Y92996D01*
X49461Y93012D01*
X49499Y93030D01*
X49531Y93051D01*
X49558Y93075D01*
X49580Y93100D01*
X49597Y93128D01*
X49612Y93159D01*
X49625Y93193D01*
X49634Y93230D01*
X49639Y93260D01*
X49642Y93297D01*
X49644Y93342D01*
X49645Y93395D01*
X49645Y94037D01*
X49469Y94037D01*
X49469Y93462D01*
X49468Y93399D01*
X49466Y93347D01*
X49463Y93306D01*
X49458Y93276D01*
X49447Y93244D01*
X49432Y93214D01*
X49412Y93189D01*
X49388Y93167D01*
X49359Y93150D01*
X49328Y93138D01*
X49293Y93130D01*
X49255Y93128D01*
X49216Y93130D01*
X49178Y93138D01*
X49142Y93151D01*
X49106Y93168D01*
X49074Y93191D01*
X49047Y93216D01*
X49025Y93246D01*
X49008Y93279D01*
X48996Y93318D01*
X48987Y93364D01*
X48981Y93419D01*
X48980Y93481D01*
X48980Y94037D01*
X48804Y94037D01*
X48804Y93000D01*
X48961Y93000D01*
X48961Y93000D01*
X48366Y93000D02*
X48529Y93000D01*
X48529Y94432D01*
X48354Y94432D01*
X48354Y93921D01*
X48294Y93982D01*
X48227Y94026D01*
X48152Y94052D01*
X48069Y94061D01*
X48022Y94058D01*
X47976Y94051D01*
X47932Y94039D01*
X47888Y94022D01*
X47847Y94001D01*
X47810Y93976D01*
X47777Y93947D01*
X47748Y93914D01*
X47721Y93877D01*
X47698Y93837D01*
X47678Y93793D01*
X47661Y93745D01*
X47647Y93695D01*
X47638Y93643D01*
X47632Y93589D01*
X47630Y93534D01*
X47638Y93408D01*
X47663Y93298D01*
X47704Y93202D01*
X47762Y93122D01*
X47831Y93058D01*
X47907Y93013D01*
X47989Y92986D01*
X48078Y92977D01*
X48165Y92986D01*
X48242Y93015D01*
X48309Y93063D01*
X48360Y93123D01*
X48272Y93197D01*
X48220Y93155D01*
X48160Y93130D01*
X48093Y93121D01*
X48037Y93127D01*
X47985Y93146D01*
X47938Y93177D01*
X47894Y93221D01*
X47857Y93277D01*
X47831Y93346D01*
X47815Y93427D01*
X47810Y93520D01*
X47815Y93614D01*
X47830Y93696D01*
X47855Y93764D01*
X47890Y93819D01*
X47933Y93862D01*
X47979Y93892D01*
X48030Y93910D01*
X48085Y93916D01*
X48141Y93910D01*
X48192Y93891D01*
X48240Y93860D01*
X48284Y93816D01*
X48321Y93760D01*
X48347Y93693D01*
X48363Y93616D01*
X48368Y93526D01*
X48368Y93526D01*
X48365Y93440D01*
X48355Y93366D01*
X48340Y93305D01*
X48317Y93257D01*
X48272Y93197D01*
X48360Y93123D01*
X48366Y93130D01*
X48366Y93000D01*
X48366Y93000D01*
X47366Y93000D02*
X47366Y93200D01*
X47166Y93200D01*
X47166Y93000D01*
X47366Y93000D01*
X47366Y93000D01*
X46184Y93380D02*
X46011Y93357D01*
X46030Y93273D01*
X46061Y93198D01*
X46103Y93133D01*
X46156Y93078D01*
X46217Y93033D01*
X46286Y93002D01*
X46361Y92983D01*
X46442Y92977D01*
X46544Y92985D01*
X46634Y93011D01*
X46715Y93055D01*
X46785Y93116D01*
X46841Y93193D01*
X46882Y93285D01*
X46906Y93392D01*
X46914Y93515D01*
X46911Y93596D01*
X46900Y93672D01*
X46883Y93743D01*
X46858Y93809D01*
X46827Y93868D01*
X46788Y93919D01*
X46742Y93962D01*
X46689Y93998D01*
X46631Y94025D01*
X46570Y94045D01*
X46507Y94057D01*
X46441Y94061D01*
X46361Y94055D01*
X46288Y94039D01*
X46223Y94012D01*
X46165Y93975D01*
X46116Y93928D01*
X46077Y93872D01*
X46047Y93807D01*
X46027Y93732D01*
X46198Y93706D01*
X46213Y93755D01*
X46232Y93798D01*
X46256Y93834D01*
X46285Y93863D01*
X46317Y93886D01*
X46353Y93903D01*
X46392Y93913D01*
X46435Y93916D01*
X46498Y93910D01*
X46555Y93892D01*
X46606Y93862D01*
X46650Y93821D01*
X46687Y93766D01*
X46713Y93698D01*
X46728Y93616D01*
X46733Y93520D01*
X46728Y93422D01*
X46713Y93339D01*
X46688Y93270D01*
X46653Y93216D01*
X46610Y93174D01*
X46561Y93145D01*
X46506Y93127D01*
X46444Y93121D01*
X46395Y93125D01*
X46349Y93137D01*
X46308Y93157D01*
X46271Y93185D01*
X46240Y93221D01*
X46215Y93265D01*
X46196Y93318D01*
X46184Y93380D01*
X46184Y93380D01*
X45926Y93519D02*
X45916Y93653D01*
X45886Y93769D01*
X45836Y93867D01*
X45766Y93945D01*
X45695Y93996D01*
X45617Y94032D01*
X45532Y94053D01*
X45439Y94061D01*
X45337Y94052D01*
X45245Y94026D01*
X45163Y93982D01*
X45090Y93920D01*
X45030Y93844D01*
X44988Y93754D01*
X44963Y93650D01*
X44954Y93533D01*
X44958Y93438D01*
X44969Y93354D01*
X44988Y93281D01*
X45014Y93218D01*
X45048Y93164D01*
X45088Y93116D01*
X45135Y93075D01*
X45189Y93040D01*
X45248Y93012D01*
X45309Y92992D01*
X45373Y92981D01*
X45439Y92977D01*
X45451Y92978D01*
X45439Y93121D01*
X45377Y93127D01*
X45320Y93146D01*
X45268Y93177D01*
X45222Y93221D01*
X45184Y93277D01*
X45156Y93346D01*
X45140Y93429D01*
X45135Y93524D01*
X45140Y93615D01*
X45157Y93693D01*
X45184Y93761D01*
X45222Y93816D01*
X45268Y93859D01*
X45320Y93890D01*
X45377Y93909D01*
X45439Y93915D01*
X45503Y93909D01*
X45560Y93890D01*
X45612Y93860D01*
X45658Y93816D01*
X45696Y93761D01*
X45723Y93693D01*
X45740Y93612D01*
X45745Y93519D01*
X45745Y93519D01*
X45740Y93425D01*
X45723Y93344D01*
X45696Y93276D01*
X45658Y93220D01*
X45612Y93177D01*
X45560Y93146D01*
X45503Y93127D01*
X45439Y93121D01*
X45451Y92978D01*
X45543Y92985D01*
X45636Y93011D01*
X45719Y93055D01*
X45791Y93116D01*
X45850Y93194D01*
X45892Y93287D01*
X45917Y93395D01*
X45926Y93519D01*
X45926Y93519D01*
X44748Y93000D02*
X44748Y94037D01*
X44591Y94037D01*
X44591Y93892D01*
X44564Y93928D01*
X44534Y93960D01*
X44499Y93989D01*
X44461Y94014D01*
X44419Y94034D01*
X44374Y94049D01*
X44327Y94058D01*
X44276Y94061D01*
X44221Y94058D01*
X44171Y94049D01*
X44127Y94034D01*
X44087Y94013D01*
X44053Y93986D01*
X44024Y93955D01*
X44001Y93919D01*
X43983Y93879D01*
X43917Y93958D01*
X43842Y94015D01*
X43757Y94049D01*
X43663Y94061D01*
X43590Y94055D01*
X43527Y94039D01*
X43472Y94012D01*
X43426Y93975D01*
X43389Y93927D01*
X43363Y93867D01*
X43348Y93795D01*
X43343Y93712D01*
X43343Y93000D01*
X43518Y93000D01*
X43518Y93653D01*
X43519Y93702D01*
X43522Y93744D01*
X43527Y93778D01*
X43535Y93805D01*
X43545Y93827D01*
X43559Y93847D01*
X43576Y93865D01*
X43597Y93880D01*
X43620Y93892D01*
X43645Y93901D01*
X43673Y93906D01*
X43702Y93908D01*
X43754Y93904D01*
X43802Y93890D01*
X43845Y93867D01*
X43884Y93835D01*
X43915Y93794D01*
X43938Y93741D01*
X43951Y93677D01*
X43956Y93603D01*
X43956Y93000D01*
X44132Y93000D01*
X44132Y93674D01*
X44134Y93729D01*
X44143Y93776D01*
X44156Y93817D01*
X44175Y93850D01*
X44200Y93875D01*
X44231Y93894D01*
X44270Y93905D01*
X44315Y93908D01*
X44352Y93906D01*
X44387Y93898D01*
X44420Y93886D01*
X44453Y93869D01*
X44482Y93847D01*
X44507Y93821D01*
X44528Y93790D01*
X44544Y93755D01*
X44556Y93713D01*
X44565Y93663D01*
X44570Y93605D01*
X44572Y93538D01*
X44572Y93000D01*
X44748Y93000D01*
X44748Y93000D01*
X43214Y92976D02*
X42799Y94456D01*
X42658Y94456D01*
X43072Y92976D01*
X43214Y92976D01*
X43214Y92976D01*
X42504Y93000D02*
X42504Y94432D01*
X41964Y94432D01*
X41897Y94431D01*
X41838Y94428D01*
X41788Y94424D01*
X41746Y94418D01*
X41695Y94407D01*
X41649Y94392D01*
X41607Y94374D01*
X41569Y94351D01*
X41535Y94324D01*
X41505Y94292D01*
X41478Y94255D01*
X41454Y94213D01*
X41435Y94167D01*
X41422Y94120D01*
X41414Y94070D01*
X41411Y94018D01*
X41418Y93930D01*
X41440Y93849D01*
X41476Y93775D01*
X41527Y93708D01*
X41597Y93653D01*
X41690Y93614D01*
X41807Y93590D01*
X41850Y93588D01*
X41859Y93755D01*
X41787Y93768D01*
X41729Y93789D01*
X41684Y93819D01*
X41650Y93857D01*
X41626Y93902D01*
X41611Y93953D01*
X41606Y94012D01*
X41609Y94055D01*
X41618Y94095D01*
X41632Y94132D01*
X41652Y94166D01*
X41676Y94195D01*
X41704Y94219D01*
X41736Y94237D01*
X41771Y94250D01*
X41800Y94256D01*
X41840Y94260D01*
X41889Y94262D01*
X41948Y94263D01*
X42314Y94263D01*
X42314Y93751D01*
X42314Y93751D01*
X41944Y93751D01*
X41859Y93755D01*
X41850Y93588D01*
X41947Y93582D01*
X42314Y93582D01*
X42314Y93000D01*
X42504Y93000D01*
X42504Y93000D01*
X41192Y93000D02*
X41192Y94432D01*
X41016Y94432D01*
X41016Y93918D01*
X40951Y93980D01*
X40877Y94025D01*
X40796Y94052D01*
X40706Y94061D01*
X40650Y94058D01*
X40598Y94049D01*
X40550Y94035D01*
X40506Y94015D01*
X40466Y93990D01*
X40433Y93961D01*
X40405Y93928D01*
X40384Y93890D01*
X40368Y93845D01*
X40357Y93792D01*
X40350Y93729D01*
X40348Y93657D01*
X40348Y93000D01*
X40523Y93000D01*
X40523Y93657D01*
X40527Y93719D01*
X40538Y93771D01*
X40555Y93815D01*
X40580Y93849D01*
X40612Y93875D01*
X40649Y93894D01*
X40693Y93905D01*
X40742Y93909D01*
X40781Y93907D01*
X40818Y93899D01*
X40854Y93886D01*
X40889Y93869D01*
X40921Y93847D01*
X40948Y93821D01*
X40970Y93792D01*
X40987Y93759D01*
X41000Y93721D01*
X41009Y93676D01*
X41015Y93625D01*
X41016Y93567D01*
X41016Y93000D01*
X41192Y93000D01*
X41192Y93000D01*
X40079Y93000D02*
X40079Y94037D01*
X39903Y94037D01*
X39903Y93000D01*
X40079Y93000D01*
X40079Y93000D01*
X40079Y94229D02*
X40079Y94432D01*
X39903Y94432D01*
X39903Y94229D01*
X40079Y94229D01*
X40079Y94229D01*
X39640Y93000D02*
X39640Y94432D01*
X39464Y94432D01*
X39464Y93000D01*
X39640Y93000D01*
X39640Y93000D01*
X39029Y93000D02*
X39192Y93000D01*
X39192Y94432D01*
X39017Y94432D01*
X39017Y93921D01*
X38957Y93982D01*
X38890Y94026D01*
X38815Y94052D01*
X38732Y94061D01*
X38685Y94058D01*
X38639Y94051D01*
X38595Y94039D01*
X38551Y94022D01*
X38510Y94001D01*
X38473Y93976D01*
X38440Y93947D01*
X38411Y93914D01*
X38385Y93877D01*
X38361Y93837D01*
X38341Y93793D01*
X38324Y93745D01*
X38311Y93695D01*
X38301Y93643D01*
X38295Y93589D01*
X38293Y93534D01*
X38301Y93408D01*
X38326Y93298D01*
X38367Y93202D01*
X38425Y93122D01*
X38494Y93058D01*
X38570Y93013D01*
X38652Y92986D01*
X38741Y92977D01*
X38828Y92986D01*
X38905Y93015D01*
X38972Y93063D01*
X39023Y93123D01*
X38935Y93197D01*
X38883Y93155D01*
X38823Y93130D01*
X38756Y93121D01*
X38700Y93127D01*
X38648Y93146D01*
X38601Y93177D01*
X38557Y93221D01*
X38520Y93277D01*
X38494Y93346D01*
X38478Y93427D01*
X38473Y93520D01*
X38478Y93614D01*
X38493Y93696D01*
X38518Y93764D01*
X38553Y93819D01*
X38596Y93862D01*
X38642Y93892D01*
X38693Y93910D01*
X38748Y93916D01*
X38804Y93910D01*
X38855Y93891D01*
X38903Y93860D01*
X38947Y93816D01*
X38984Y93760D01*
X39010Y93693D01*
X39026Y93616D01*
X39031Y93526D01*
X39031Y93526D01*
X39028Y93440D01*
X39019Y93366D01*
X39003Y93305D01*
X38980Y93257D01*
X38935Y93197D01*
X39023Y93123D01*
X39029Y93130D01*
X39029Y93000D01*
X39029Y93000D01*
X38144Y93519D02*
X38134Y93653D01*
X38104Y93769D01*
X38054Y93867D01*
X37984Y93945D01*
X37914Y93996D01*
X37836Y94032D01*
X37751Y94053D01*
X37658Y94061D01*
X37556Y94052D01*
X37464Y94026D01*
X37381Y93982D01*
X37309Y93920D01*
X37249Y93844D01*
X37207Y93754D01*
X37181Y93650D01*
X37173Y93533D01*
X37177Y93438D01*
X37188Y93354D01*
X37207Y93281D01*
X37233Y93218D01*
X37266Y93164D01*
X37307Y93116D01*
X37354Y93075D01*
X37408Y93040D01*
X37466Y93012D01*
X37528Y92992D01*
X37592Y92981D01*
X37658Y92977D01*
X37670Y92978D01*
X37658Y93121D01*
X37595Y93127D01*
X37538Y93146D01*
X37487Y93177D01*
X37440Y93221D01*
X37402Y93277D01*
X37375Y93346D01*
X37359Y93429D01*
X37353Y93524D01*
X37359Y93615D01*
X37375Y93693D01*
X37403Y93761D01*
X37441Y93816D01*
X37487Y93859D01*
X37539Y93890D01*
X37596Y93909D01*
X37658Y93915D01*
X37721Y93909D01*
X37779Y93890D01*
X37831Y93860D01*
X37877Y93816D01*
X37915Y93761D01*
X37942Y93693D01*
X37958Y93612D01*
X37964Y93519D01*
X37964Y93519D01*
X37958Y93425D01*
X37942Y93344D01*
X37915Y93276D01*
X37877Y93220D01*
X37831Y93177D01*
X37779Y93146D01*
X37721Y93127D01*
X37658Y93121D01*
X37670Y92978D01*
X37762Y92985D01*
X37855Y93011D01*
X37938Y93055D01*
X38010Y93116D01*
X38069Y93194D01*
X38111Y93287D01*
X38136Y93395D01*
X38144Y93519D01*
X38144Y93519D01*
X36952Y93000D02*
X36952Y94432D01*
X36415Y94432D01*
X36337Y94429D01*
X36267Y94421D01*
X36205Y94407D01*
X36152Y94388D01*
X36105Y94364D01*
X36063Y94333D01*
X36027Y94297D01*
X35997Y94254D01*
X35972Y94209D01*
X35954Y94162D01*
X35944Y94114D01*
X35940Y94065D01*
X35943Y94020D01*
X35953Y93976D01*
X35968Y93934D01*
X35990Y93893D01*
X36018Y93854D01*
X36053Y93819D01*
X36093Y93789D01*
X36141Y93762D01*
X36196Y93627D01*
X36222Y93637D01*
X36262Y93648D01*
X36311Y93655D01*
X36367Y93660D01*
X36432Y93661D01*
X36763Y93661D01*
X36763Y93169D01*
X36763Y93169D01*
X36406Y93169D01*
X36364Y93169D01*
X36328Y93171D01*
X36299Y93173D01*
X36277Y93176D01*
X36246Y93183D01*
X36217Y93191D01*
X36191Y93202D01*
X36168Y93215D01*
X36147Y93230D01*
X36128Y93248D01*
X36111Y93270D01*
X36096Y93294D01*
X36083Y93322D01*
X36074Y93351D01*
X36069Y93382D01*
X36067Y93415D01*
X36070Y93454D01*
X36078Y93490D01*
X36090Y93523D01*
X36108Y93554D01*
X36131Y93582D01*
X36157Y93604D01*
X36188Y93623D01*
X36196Y93627D01*
X36141Y93762D01*
X36209Y93875D01*
X36184Y93895D01*
X36164Y93918D01*
X36147Y93944D01*
X36136Y93974D01*
X36129Y94007D01*
X36127Y94043D01*
X36129Y94078D01*
X36135Y94110D01*
X36146Y94140D01*
X36161Y94168D01*
X36180Y94193D01*
X36203Y94214D01*
X36229Y94231D01*
X36259Y94243D01*
X36296Y94251D01*
X36345Y94258D01*
X36405Y94261D01*
X36476Y94263D01*
X36763Y94263D01*
X36763Y93830D01*
X36763Y93830D01*
X36453Y93830D01*
X36395Y93831D01*
X36345Y93834D01*
X36304Y93839D01*
X36272Y93847D01*
X36238Y93859D01*
X36209Y93875D01*
X36141Y93762D01*
X36079Y93739D01*
X36026Y93710D01*
X35980Y93674D01*
X35941Y93632D01*
X35910Y93584D01*
X35888Y93532D01*
X35875Y93475D01*
X35871Y93415D01*
X35874Y93366D01*
X35882Y93318D01*
X35895Y93272D01*
X35914Y93228D01*
X35936Y93187D01*
X35961Y93151D01*
X35988Y93121D01*
X36018Y93095D01*
X36052Y93073D01*
X36089Y93054D01*
X36130Y93037D01*
X36175Y93024D01*
X36225Y93013D01*
X36280Y93006D01*
X36340Y93001D01*
X36406Y93000D01*
X36952Y93000D01*
X36952Y93000D01*
X34956Y93128D02*
X35004Y93089D01*
X35011Y93085D01*
X35078Y93183D01*
X35047Y93211D01*
X35020Y93244D01*
X34999Y93280D01*
X34987Y93314D01*
X34978Y93354D01*
X34972Y93401D01*
X34971Y93456D01*
X34971Y93521D01*
X34971Y93521D01*
X35024Y93502D01*
X35090Y93484D01*
X35168Y93469D01*
X35258Y93454D01*
X35308Y93446D01*
X35350Y93437D01*
X35385Y93428D01*
X35411Y93419D01*
X35432Y93408D01*
X35451Y93395D01*
X35467Y93379D01*
X35480Y93362D01*
X35491Y93342D01*
X35499Y93322D01*
X35503Y93301D01*
X35505Y93278D01*
X35501Y93245D01*
X35491Y93214D01*
X35475Y93186D01*
X35452Y93161D01*
X35422Y93141D01*
X35386Y93126D01*
X35344Y93117D01*
X35296Y93114D01*
X35246Y93117D01*
X35200Y93125D01*
X35156Y93139D01*
X35115Y93159D01*
X35078Y93183D01*
X35011Y93085D01*
X35052Y93057D01*
X35098Y93031D01*
X35144Y93011D01*
X35190Y92996D01*
X35238Y92985D01*
X35287Y92979D01*
X35338Y92977D01*
X35418Y92982D01*
X35489Y92997D01*
X35550Y93024D01*
X35600Y93060D01*
X35641Y93105D01*
X35669Y93155D01*
X35687Y93211D01*
X35692Y93273D01*
X35690Y93311D01*
X35684Y93346D01*
X35673Y93380D01*
X35658Y93413D01*
X35639Y93443D01*
X35618Y93469D01*
X35594Y93493D01*
X35567Y93514D01*
X35538Y93532D01*
X35507Y93547D01*
X35475Y93560D01*
X35440Y93571D01*
X35411Y93578D01*
X35375Y93585D01*
X35333Y93591D01*
X35284Y93598D01*
X35185Y93611D01*
X35099Y93625D01*
X35028Y93641D01*
X34971Y93658D01*
X34970Y93675D01*
X34970Y93688D01*
X34970Y93698D01*
X34970Y93704D01*
X34973Y93754D01*
X34982Y93796D01*
X34998Y93830D01*
X35019Y93855D01*
X35057Y93882D01*
X35103Y93900D01*
X35157Y93911D01*
X35220Y93915D01*
X35278Y93912D01*
X35327Y93904D01*
X35369Y93891D01*
X35403Y93872D01*
X35430Y93846D01*
X35454Y93811D01*
X35474Y93769D01*
X35490Y93718D01*
X35662Y93741D01*
X35648Y93794D01*
X35631Y93841D01*
X35610Y93883D01*
X35585Y93919D01*
X35555Y93951D01*
X35519Y93979D01*
X35477Y94004D01*
X35430Y94024D01*
X35377Y94040D01*
X35320Y94051D01*
X35259Y94058D01*
X35194Y94061D01*
X35131Y94059D01*
X35074Y94053D01*
X35023Y94043D01*
X34978Y94029D01*
X34940Y94013D01*
X34906Y93994D01*
X34879Y93973D01*
X34856Y93951D01*
X34838Y93925D01*
X34823Y93897D01*
X34811Y93866D01*
X34802Y93831D01*
X34798Y93804D01*
X34795Y93768D01*
X34793Y93723D01*
X34793Y93669D01*
X34793Y93435D01*
X34792Y93323D01*
X34790Y93234D01*
X34787Y93168D01*
X34782Y93125D01*
X34775Y93092D01*
X34765Y93061D01*
X34752Y93030D01*
X34737Y93000D01*
X34921Y93000D01*
X34933Y93029D01*
X34943Y93059D01*
X34951Y93092D01*
X34956Y93128D01*
X34956Y93128D01*
X34553Y92914D02*
X34382Y92889D01*
X34374Y92852D01*
X34361Y92820D01*
X34344Y92794D01*
X34322Y92773D01*
X34286Y92752D01*
X34245Y92737D01*
X34197Y92728D01*
X34143Y92725D01*
X34086Y92728D01*
X34035Y92737D01*
X33992Y92752D01*
X33955Y92773D01*
X33924Y92800D01*
X33899Y92832D01*
X33880Y92869D01*
X33865Y92910D01*
X33859Y92944D01*
X33855Y92993D01*
X33853Y93057D01*
X33852Y93136D01*
X33935Y93224D01*
X33920Y93239D01*
X33884Y93292D01*
X33858Y93359D01*
X33843Y93438D01*
X33838Y93531D01*
X33843Y93621D01*
X33859Y93698D01*
X33885Y93764D01*
X33922Y93818D01*
X33967Y93861D01*
X34015Y93891D01*
X34068Y93909D01*
X34126Y93915D01*
X34182Y93909D01*
X34234Y93891D01*
X34282Y93861D01*
X34325Y93820D01*
X34361Y93766D01*
X34387Y93702D01*
X34402Y93625D01*
X34407Y93537D01*
X34407Y93537D01*
X34402Y93442D01*
X34387Y93361D01*
X34362Y93293D01*
X34326Y93239D01*
X34283Y93198D01*
X34235Y93169D01*
X34181Y93151D01*
X34123Y93146D01*
X34065Y93151D01*
X34012Y93169D01*
X33963Y93198D01*
X33935Y93224D01*
X33852Y93136D01*
X33914Y93076D01*
X33982Y93034D01*
X34057Y93008D01*
X34140Y93000D01*
X34240Y93010D01*
X34329Y93039D01*
X34406Y93087D01*
X34471Y93154D01*
X34522Y93235D01*
X34558Y93324D01*
X34580Y93420D01*
X34588Y93524D01*
X34584Y93597D01*
X34574Y93667D01*
X34558Y93734D01*
X34534Y93798D01*
X34504Y93858D01*
X34468Y93910D01*
X34426Y93954D01*
X34378Y93992D01*
X34325Y94022D01*
X34267Y94043D01*
X34205Y94056D01*
X34139Y94061D01*
X34051Y94051D01*
X33971Y94023D01*
X33899Y93977D01*
X33836Y93912D01*
X33836Y94037D01*
X33674Y94037D01*
X33674Y93141D01*
X33677Y93028D01*
X33686Y92934D01*
X33701Y92857D01*
X33723Y92797D01*
X33751Y92749D01*
X33787Y92707D01*
X33829Y92670D01*
X33879Y92638D01*
X33936Y92612D01*
X33999Y92594D01*
X34067Y92583D01*
X34142Y92579D01*
X34231Y92584D01*
X34310Y92600D01*
X34381Y92626D01*
X34442Y92663D01*
X34492Y92710D01*
X34527Y92767D01*
X34547Y92835D01*
X34553Y92914D01*
X34553Y92914D01*
X33440Y92914D02*
X33269Y92889D01*
X33262Y92852D01*
X33249Y92820D01*
X33232Y92794D01*
X33210Y92773D01*
X33174Y92752D01*
X33132Y92737D01*
X33085Y92728D01*
X33031Y92725D01*
X32974Y92728D01*
X32923Y92737D01*
X32879Y92752D01*
X32843Y92773D01*
X32812Y92800D01*
X32787Y92832D01*
X32767Y92869D01*
X32753Y92910D01*
X32747Y92944D01*
X32743Y92993D01*
X32741Y93057D01*
X32740Y93136D01*
X32823Y93224D01*
X32807Y93239D01*
X32772Y93292D01*
X32746Y93359D01*
X32731Y93438D01*
X32725Y93531D01*
X32731Y93621D01*
X32747Y93698D01*
X32773Y93764D01*
X32810Y93818D01*
X32854Y93861D01*
X32903Y93891D01*
X32956Y93909D01*
X33014Y93915D01*
X33070Y93909D01*
X33122Y93891D01*
X33170Y93861D01*
X33213Y93820D01*
X33249Y93766D01*
X33274Y93702D01*
X33290Y93625D01*
X33295Y93537D01*
X33295Y93537D01*
X33290Y93442D01*
X33275Y93361D01*
X33249Y93293D01*
X33214Y93239D01*
X33171Y93198D01*
X33122Y93169D01*
X33069Y93151D01*
X33011Y93146D01*
X32953Y93151D01*
X32899Y93169D01*
X32851Y93198D01*
X32823Y93224D01*
X32740Y93136D01*
X32801Y93076D01*
X32869Y93034D01*
X32945Y93008D01*
X33027Y93000D01*
X33128Y93010D01*
X33217Y93039D01*
X33294Y93087D01*
X33358Y93154D01*
X33410Y93235D01*
X33446Y93324D01*
X33468Y93420D01*
X33475Y93524D01*
X33472Y93597D01*
X33462Y93667D01*
X33445Y93734D01*
X33422Y93798D01*
X33392Y93858D01*
X33356Y93910D01*
X33314Y93954D01*
X33266Y93992D01*
X33213Y94022D01*
X33155Y94043D01*
X33093Y94056D01*
X33026Y94061D01*
X32938Y94051D01*
X32859Y94023D01*
X32787Y93977D01*
X32723Y93912D01*
X32723Y94037D01*
X32561Y94037D01*
X32561Y93141D01*
X32564Y93028D01*
X32574Y92934D01*
X32589Y92857D01*
X32611Y92797D01*
X32639Y92749D01*
X32674Y92707D01*
X32717Y92670D01*
X32767Y92638D01*
X32824Y92612D01*
X32886Y92594D01*
X32955Y92583D01*
X33030Y92579D01*
X33118Y92584D01*
X33198Y92600D01*
X33268Y92626D01*
X33330Y92663D01*
X33380Y92710D01*
X33415Y92767D01*
X33435Y92835D01*
X33440Y92914D01*
X33440Y92914D01*
X32295Y93000D02*
X32295Y94037D01*
X32119Y94037D01*
X32119Y93000D01*
X32295Y93000D01*
X32295Y93000D01*
X32295Y94229D02*
X32295Y94432D01*
X32119Y94432D01*
X32119Y94229D01*
X32295Y94229D01*
X32295Y94229D01*
X31851Y93000D02*
X31851Y94037D01*
X31693Y94037D01*
X31693Y93890D01*
X31630Y93964D01*
X31554Y94018D01*
X31465Y94050D01*
X31363Y94061D01*
X31317Y94058D01*
X31273Y94052D01*
X31231Y94042D01*
X31191Y94027D01*
X31154Y94009D01*
X31122Y93988D01*
X31095Y93965D01*
X31073Y93938D01*
X31055Y93910D01*
X31040Y93879D01*
X31028Y93845D01*
X31018Y93809D01*
X31014Y93780D01*
X31011Y93741D01*
X31009Y93694D01*
X31009Y93638D01*
X31009Y93000D01*
X31184Y93000D01*
X31184Y93631D01*
X31186Y93681D01*
X31190Y93725D01*
X31196Y93762D01*
X31205Y93792D01*
X31217Y93817D01*
X31233Y93839D01*
X31254Y93859D01*
X31278Y93876D01*
X31305Y93890D01*
X31334Y93900D01*
X31366Y93906D01*
X31400Y93908D01*
X31455Y93904D01*
X31505Y93890D01*
X31551Y93868D01*
X31594Y93837D01*
X31630Y93793D01*
X31655Y93734D01*
X31671Y93658D01*
X31676Y93566D01*
X31676Y93000D01*
X31851Y93000D01*
X31851Y93000D01*
X30809Y93310D02*
X30636Y93337D01*
X30625Y93288D01*
X30608Y93245D01*
X30584Y93208D01*
X30554Y93177D01*
X30517Y93152D01*
X30474Y93135D01*
X30424Y93125D01*
X30367Y93121D01*
X30310Y93124D01*
X30262Y93133D01*
X30221Y93149D01*
X30187Y93170D01*
X30162Y93196D01*
X30143Y93224D01*
X30132Y93254D01*
X30129Y93286D01*
X30132Y93314D01*
X30142Y93339D01*
X30158Y93361D01*
X30181Y93380D01*
X30205Y93392D01*
X30244Y93406D01*
X30295Y93422D01*
X30360Y93439D01*
X30449Y93463D01*
X30524Y93485D01*
X30584Y93505D01*
X30628Y93524D01*
X30663Y93543D01*
X30694Y93566D01*
X30720Y93593D01*
X30742Y93623D01*
X30758Y93655D01*
X30771Y93689D01*
X30778Y93724D01*
X30780Y93762D01*
X30778Y93796D01*
X30772Y93828D01*
X30762Y93860D01*
X30748Y93890D01*
X30731Y93918D01*
X30711Y93944D01*
X30688Y93967D01*
X30662Y93988D01*
X30640Y94003D01*
X30614Y94016D01*
X30584Y94028D01*
X30550Y94040D01*
X30514Y94049D01*
X30477Y94055D01*
X30438Y94059D01*
X30398Y94061D01*
X30339Y94058D01*
X30284Y94052D01*
X30232Y94041D01*
X30184Y94025D01*
X30141Y94006D01*
X30104Y93984D01*
X30073Y93959D01*
X30048Y93930D01*
X30027Y93898D01*
X30011Y93860D01*
X29997Y93817D01*
X29987Y93770D01*
X30159Y93746D01*
X30168Y93784D01*
X30182Y93817D01*
X30202Y93846D01*
X30227Y93871D01*
X30258Y93891D01*
X30295Y93905D01*
X30337Y93913D01*
X30386Y93916D01*
X30442Y93914D01*
X30489Y93906D01*
X30528Y93893D01*
X30558Y93876D01*
X30581Y93855D01*
X30597Y93833D01*
X30607Y93808D01*
X30610Y93782D01*
X30609Y93766D01*
X30605Y93750D01*
X30598Y93735D01*
X30589Y93721D01*
X30576Y93707D01*
X30561Y93695D01*
X30543Y93684D01*
X30521Y93674D01*
X30502Y93667D01*
X30469Y93658D01*
X30424Y93645D01*
X30366Y93629D01*
X30280Y93605D01*
X30208Y93584D01*
X30150Y93564D01*
X30106Y93547D01*
X30071Y93530D01*
X30040Y93508D01*
X30013Y93484D01*
X29990Y93455D01*
X29972Y93423D01*
X29959Y93387D01*
X29951Y93348D01*
X29948Y93305D01*
X29951Y93261D01*
X29961Y93219D01*
X29977Y93179D01*
X29999Y93139D01*
X30028Y93103D01*
X30062Y93070D01*
X30102Y93042D01*
X30147Y93019D01*
X30197Y93000D01*
X30250Y92987D01*
X30307Y92979D01*
X30366Y92977D01*
X30461Y92982D01*
X30544Y92998D01*
X30615Y93024D01*
X30674Y93061D01*
X30722Y93108D01*
X30761Y93165D01*
X30790Y93232D01*
X30809Y93310D01*
X30809Y93310D01*
X29871Y92976D02*
X29456Y94456D01*
X29315Y94456D01*
X29729Y92976D01*
X29871Y92976D01*
X29871Y92976D01*
X29187Y93000D02*
X29187Y94432D01*
X29012Y94432D01*
X29012Y93000D01*
X29187Y93000D01*
X29187Y93000D01*
X28029Y93334D02*
X27848Y93312D01*
X27874Y93236D01*
X27909Y93170D01*
X27953Y93113D01*
X28007Y93064D01*
X28069Y93026D01*
X28139Y92999D01*
X28217Y92982D01*
X28304Y92977D01*
X28411Y92985D01*
X28508Y93012D01*
X28592Y93055D01*
X28664Y93117D01*
X28723Y93194D01*
X28764Y93285D01*
X28789Y93390D01*
X28798Y93510D01*
X28789Y93633D01*
X28764Y93742D01*
X28722Y93836D01*
X28663Y93916D01*
X28591Y93979D01*
X28508Y94024D01*
X28416Y94052D01*
X28313Y94061D01*
X28299Y94059D01*
X28311Y93916D01*
X28370Y93911D01*
X28423Y93896D01*
X28471Y93870D01*
X28515Y93835D01*
X28552Y93791D01*
X28579Y93740D01*
X28597Y93683D01*
X28606Y93618D01*
X28606Y93618D01*
X28027Y93618D01*
X28036Y93680D01*
X28050Y93733D01*
X28069Y93778D01*
X28094Y93814D01*
X28139Y93859D01*
X28190Y93891D01*
X28248Y93910D01*
X28311Y93916D01*
X28299Y94059D01*
X28214Y94052D01*
X28124Y94025D01*
X28044Y93981D01*
X27974Y93919D01*
X27916Y93841D01*
X27875Y93749D01*
X27850Y93642D01*
X27842Y93521D01*
X27842Y93512D01*
X27842Y93501D01*
X27842Y93488D01*
X27843Y93474D01*
X28616Y93474D01*
X28606Y93393D01*
X28587Y93323D01*
X28558Y93262D01*
X28519Y93212D01*
X28473Y93172D01*
X28422Y93144D01*
X28365Y93127D01*
X28303Y93121D01*
X28256Y93124D01*
X28213Y93134D01*
X28174Y93150D01*
X28138Y93172D01*
X28105Y93201D01*
X28076Y93238D01*
X28051Y93282D01*
X28029Y93334D01*
X28029Y93334D01*
X26954Y93000D02*
X26954Y93131D01*
X27034Y93213D01*
X27032Y93215D01*
X26996Y93269D01*
X26971Y93334D01*
X26956Y93412D01*
X26951Y93503D01*
X26956Y93602D01*
X26972Y93688D01*
X26997Y93759D01*
X27033Y93815D01*
X27076Y93859D01*
X27125Y93890D01*
X27178Y93909D01*
X27235Y93915D01*
X27291Y93909D01*
X27343Y93891D01*
X27389Y93861D01*
X27431Y93819D01*
X27465Y93765D01*
X27490Y93696D01*
X27505Y93614D01*
X27510Y93518D01*
X27510Y93518D01*
X27504Y93424D01*
X27489Y93344D01*
X27462Y93275D01*
X27426Y93220D01*
X27382Y93177D01*
X27334Y93146D01*
X27283Y93127D01*
X27227Y93121D01*
X27172Y93127D01*
X27121Y93145D01*
X27074Y93174D01*
X27034Y93213D01*
X26954Y93131D01*
X27009Y93063D01*
X27076Y93015D01*
X27154Y92986D01*
X27244Y92977D01*
X27305Y92981D01*
X27363Y92994D01*
X27419Y93015D01*
X27472Y93045D01*
X27521Y93082D01*
X27564Y93127D01*
X27602Y93178D01*
X27633Y93236D01*
X27658Y93299D01*
X27676Y93368D01*
X27687Y93440D01*
X27690Y93518D01*
X27687Y93593D01*
X27677Y93666D01*
X27661Y93734D01*
X27639Y93799D01*
X27609Y93859D01*
X27574Y93911D01*
X27532Y93956D01*
X27483Y93993D01*
X27430Y94023D01*
X27374Y94044D01*
X27314Y94056D01*
X27252Y94061D01*
X27206Y94058D01*
X27163Y94051D01*
X27123Y94038D01*
X27085Y94021D01*
X27050Y94000D01*
X27018Y93975D01*
X26990Y93948D01*
X26966Y93918D01*
X26966Y94432D01*
X26791Y94432D01*
X26791Y93000D01*
X26954Y93000D01*
X26954Y93000D01*
X26583Y93430D02*
X26583Y93606D01*
X26043Y93606D01*
X26043Y93430D01*
X26583Y93430D01*
X26583Y93430D01*
X25849Y93000D02*
X25849Y94432D01*
X25673Y94432D01*
X25673Y93918D01*
X25607Y93980D01*
X25534Y94025D01*
X25452Y94052D01*
X25362Y94061D01*
X25306Y94058D01*
X25255Y94049D01*
X25206Y94035D01*
X25162Y94015D01*
X25123Y93990D01*
X25089Y93961D01*
X25062Y93928D01*
X25040Y93890D01*
X25024Y93845D01*
X25013Y93792D01*
X25006Y93729D01*
X25004Y93657D01*
X25004Y93000D01*
X25180Y93000D01*
X25180Y93657D01*
X25183Y93719D01*
X25194Y93771D01*
X25212Y93815D01*
X25237Y93849D01*
X25268Y93875D01*
X25306Y93894D01*
X25349Y93905D01*
X25398Y93909D01*
X25437Y93907D01*
X25474Y93899D01*
X25510Y93886D01*
X25545Y93869D01*
X25577Y93847D01*
X25604Y93821D01*
X25626Y93792D01*
X25643Y93759D01*
X25656Y93721D01*
X25665Y93676D01*
X25671Y93625D01*
X25673Y93567D01*
X25673Y93000D01*
X25849Y93000D01*
X25849Y93000D01*
X24802Y93519D02*
X24792Y93653D01*
X24762Y93769D01*
X24712Y93867D01*
X24641Y93945D01*
X24571Y93996D01*
X24493Y94032D01*
X24408Y94053D01*
X24315Y94061D01*
X24213Y94052D01*
X24121Y94026D01*
X24038Y93982D01*
X23966Y93920D01*
X23906Y93844D01*
X23864Y93754D01*
X23838Y93650D01*
X23830Y93533D01*
X23834Y93438D01*
X23845Y93354D01*
X23864Y93281D01*
X23890Y93218D01*
X23923Y93164D01*
X23964Y93116D01*
X24011Y93075D01*
X24065Y93040D01*
X24123Y93012D01*
X24185Y92992D01*
X24249Y92981D01*
X24315Y92977D01*
X24327Y92978D01*
X24315Y93121D01*
X24253Y93127D01*
X24195Y93146D01*
X24144Y93177D01*
X24098Y93221D01*
X24059Y93277D01*
X24032Y93346D01*
X24016Y93429D01*
X24011Y93524D01*
X24016Y93615D01*
X24032Y93693D01*
X24060Y93761D01*
X24098Y93816D01*
X24144Y93859D01*
X24196Y93890D01*
X24253Y93909D01*
X24315Y93915D01*
X24378Y93909D01*
X24436Y93890D01*
X24488Y93860D01*
X24534Y93816D01*
X24572Y93761D01*
X24599Y93693D01*
X24616Y93612D01*
X24621Y93519D01*
X24621Y93519D01*
X24616Y93425D01*
X24599Y93344D01*
X24572Y93276D01*
X24534Y93220D01*
X24488Y93177D01*
X24436Y93146D01*
X24378Y93127D01*
X24315Y93121D01*
X24327Y92978D01*
X24419Y92985D01*
X24512Y93011D01*
X24595Y93055D01*
X24667Y93116D01*
X24726Y93194D01*
X24768Y93287D01*
X24793Y93395D01*
X24802Y93519D01*
X24802Y93519D01*
X22944Y93000D02*
X22944Y93152D01*
X23010Y93075D01*
X23087Y93021D01*
X23175Y92988D01*
X23273Y92977D01*
X23318Y92979D01*
X23362Y92985D01*
X23404Y92996D01*
X23445Y93012D01*
X23482Y93030D01*
X23514Y93051D01*
X23541Y93075D01*
X23563Y93100D01*
X23581Y93128D01*
X23596Y93159D01*
X23608Y93193D01*
X23617Y93230D01*
X23622Y93260D01*
X23625Y93297D01*
X23627Y93342D01*
X23628Y93395D01*
X23628Y94037D01*
X23452Y94037D01*
X23452Y93462D01*
X23451Y93399D01*
X23449Y93347D01*
X23446Y93306D01*
X23441Y93276D01*
X23431Y93244D01*
X23415Y93214D01*
X23395Y93189D01*
X23371Y93167D01*
X23343Y93150D01*
X23311Y93138D01*
X23276Y93130D01*
X23238Y93128D01*
X23199Y93130D01*
X23161Y93138D01*
X23125Y93151D01*
X23090Y93168D01*
X23058Y93191D01*
X23030Y93216D01*
X23008Y93246D01*
X22992Y93279D01*
X22979Y93318D01*
X22970Y93364D01*
X22965Y93419D01*
X22963Y93481D01*
X22963Y94037D01*
X22787Y94037D01*
X22787Y93000D01*
X22944Y93000D01*
X22944Y93000D01*
X22514Y93000D02*
X22514Y94037D01*
X22355Y94037D01*
X22355Y93880D01*
X22326Y93930D01*
X22297Y93971D01*
X22270Y94003D01*
X22243Y94025D01*
X22217Y94041D01*
X22190Y94052D01*
X22161Y94058D01*
X22131Y94061D01*
X22086Y94057D01*
X22041Y94046D01*
X21996Y94029D01*
X21950Y94004D01*
X22011Y93841D01*
X22043Y93857D01*
X22075Y93869D01*
X22107Y93877D01*
X22139Y93879D01*
X22168Y93877D01*
X22194Y93870D01*
X22219Y93859D01*
X22243Y93844D01*
X22264Y93825D01*
X22282Y93803D01*
X22297Y93777D01*
X22308Y93748D01*
X22321Y93700D01*
X22330Y93650D01*
X22336Y93598D01*
X22338Y93543D01*
X22338Y93000D01*
X22514Y93000D01*
X22514Y93000D01*
X21878Y92914D02*
X21707Y92889D01*
X21699Y92852D01*
X21687Y92820D01*
X21669Y92794D01*
X21647Y92773D01*
X21612Y92752D01*
X21570Y92737D01*
X21522Y92728D01*
X21469Y92725D01*
X21411Y92728D01*
X21360Y92737D01*
X21317Y92752D01*
X21280Y92773D01*
X21250Y92800D01*
X21224Y92832D01*
X21205Y92869D01*
X21190Y92910D01*
X21184Y92944D01*
X21180Y92993D01*
X21178Y93057D01*
X21178Y93136D01*
X21261Y93224D01*
X21245Y93239D01*
X21209Y93292D01*
X21183Y93359D01*
X21168Y93438D01*
X21163Y93531D01*
X21168Y93621D01*
X21184Y93698D01*
X21210Y93764D01*
X21247Y93818D01*
X21292Y93861D01*
X21341Y93891D01*
X21394Y93909D01*
X21451Y93915D01*
X21507Y93909D01*
X21559Y93891D01*
X21607Y93861D01*
X21650Y93820D01*
X21686Y93766D01*
X21712Y93702D01*
X21727Y93625D01*
X21732Y93537D01*
X21732Y93537D01*
X21727Y93442D01*
X21712Y93361D01*
X21687Y93293D01*
X21651Y93239D01*
X21608Y93198D01*
X21560Y93169D01*
X21507Y93151D01*
X21448Y93146D01*
X21390Y93151D01*
X21337Y93169D01*
X21288Y93198D01*
X21261Y93224D01*
X21178Y93136D01*
X21239Y93076D01*
X21307Y93034D01*
X21382Y93008D01*
X21465Y93000D01*
X21566Y93010D01*
X21654Y93039D01*
X21731Y93087D01*
X21796Y93154D01*
X21847Y93235D01*
X21884Y93324D01*
X21906Y93420D01*
X21913Y93524D01*
X21910Y93597D01*
X21900Y93667D01*
X21883Y93734D01*
X21859Y93798D01*
X21829Y93858D01*
X21793Y93910D01*
X21751Y93954D01*
X21703Y93992D01*
X21650Y94022D01*
X21593Y94043D01*
X21530Y94056D01*
X21464Y94061D01*
X21376Y94051D01*
X21296Y94023D01*
X21225Y93977D01*
X21161Y93912D01*
X21161Y94037D01*
X20999Y94037D01*
X20999Y93141D01*
X21002Y93028D01*
X21011Y92934D01*
X21027Y92857D01*
X21048Y92797D01*
X21076Y92749D01*
X21112Y92707D01*
X21155Y92670D01*
X21204Y92638D01*
X21261Y92612D01*
X21324Y92594D01*
X21393Y92583D01*
X21468Y92579D01*
X21556Y92584D01*
X21635Y92600D01*
X21706Y92626D01*
X21767Y92663D01*
X21817Y92710D01*
X21852Y92767D01*
X21872Y92835D01*
X21878Y92914D01*
X21878Y92914D01*
X20737Y93000D02*
X20737Y94432D01*
X20561Y94432D01*
X20561Y93000D01*
X20737Y93000D01*
X20737Y93000D01*
X19612Y93128D02*
X19661Y93089D01*
X19668Y93085D01*
X19734Y93183D01*
X19703Y93211D01*
X19676Y93244D01*
X19655Y93280D01*
X19643Y93314D01*
X19634Y93354D01*
X19629Y93401D01*
X19627Y93456D01*
X19627Y93521D01*
X19627Y93521D01*
X19681Y93502D01*
X19746Y93484D01*
X19824Y93469D01*
X19914Y93454D01*
X19964Y93446D01*
X20006Y93437D01*
X20041Y93428D01*
X20067Y93419D01*
X20088Y93408D01*
X20107Y93395D01*
X20123Y93379D01*
X20137Y93362D01*
X20147Y93342D01*
X20155Y93322D01*
X20160Y93301D01*
X20161Y93278D01*
X20158Y93245D01*
X20148Y93214D01*
X20131Y93186D01*
X20108Y93161D01*
X20078Y93141D01*
X20042Y93126D01*
X20000Y93117D01*
X19952Y93114D01*
X19903Y93117D01*
X19856Y93125D01*
X19812Y93139D01*
X19771Y93159D01*
X19734Y93183D01*
X19668Y93085D01*
X19708Y93057D01*
X19755Y93031D01*
X19800Y93011D01*
X19846Y92996D01*
X19894Y92985D01*
X19943Y92979D01*
X19994Y92977D01*
X20075Y92982D01*
X20145Y92997D01*
X20206Y93024D01*
X20257Y93060D01*
X20297Y93105D01*
X20326Y93155D01*
X20343Y93211D01*
X20349Y93273D01*
X20346Y93311D01*
X20340Y93346D01*
X20329Y93380D01*
X20314Y93413D01*
X20295Y93443D01*
X20274Y93469D01*
X20250Y93493D01*
X20223Y93514D01*
X20194Y93532D01*
X20163Y93547D01*
X20131Y93560D01*
X20097Y93571D01*
X20067Y93578D01*
X20032Y93585D01*
X19989Y93591D01*
X19940Y93598D01*
X19841Y93611D01*
X19756Y93625D01*
X19684Y93641D01*
X19627Y93658D01*
X19626Y93675D01*
X19626Y93688D01*
X19626Y93698D01*
X19626Y93704D01*
X19629Y93754D01*
X19638Y93796D01*
X19654Y93830D01*
X19676Y93855D01*
X19713Y93882D01*
X19759Y93900D01*
X19814Y93911D01*
X19876Y93915D01*
X19934Y93912D01*
X19984Y93904D01*
X20025Y93891D01*
X20059Y93872D01*
X20087Y93846D01*
X20110Y93811D01*
X20130Y93769D01*
X20146Y93718D01*
X20318Y93741D01*
X20305Y93794D01*
X20287Y93841D01*
X20266Y93883D01*
X20241Y93919D01*
X20211Y93951D01*
X20175Y93979D01*
X20134Y94004D01*
X20086Y94024D01*
X20033Y94040D01*
X19976Y94051D01*
X19915Y94058D01*
X19850Y94061D01*
X19787Y94059D01*
X19730Y94053D01*
X19679Y94043D01*
X19635Y94029D01*
X19596Y94013D01*
X19563Y93994D01*
X19535Y93973D01*
X19513Y93951D01*
X19495Y93925D01*
X19479Y93897D01*
X19467Y93866D01*
X19458Y93831D01*
X19454Y93804D01*
X19451Y93768D01*
X19450Y93723D01*
X19449Y93669D01*
X19449Y93435D01*
X19448Y93323D01*
X19446Y93234D01*
X19443Y93168D01*
X19438Y93125D01*
X19431Y93092D01*
X19421Y93061D01*
X19409Y93030D01*
X19393Y93000D01*
X19577Y93000D01*
X19590Y93029D01*
X19600Y93059D01*
X19607Y93092D01*
X19612Y93128D01*
X19612Y93128D01*
X19247Y93310D02*
X19073Y93337D01*
X19063Y93288D01*
X19045Y93245D01*
X19022Y93208D01*
X18992Y93177D01*
X18955Y93152D01*
X18911Y93135D01*
X18861Y93125D01*
X18805Y93121D01*
X18748Y93124D01*
X18699Y93133D01*
X18658Y93149D01*
X18625Y93170D01*
X18599Y93196D01*
X18581Y93224D01*
X18570Y93254D01*
X18566Y93286D01*
X18570Y93314D01*
X18579Y93339D01*
X18595Y93361D01*
X18618Y93380D01*
X18643Y93392D01*
X18681Y93406D01*
X18733Y93422D01*
X18798Y93439D01*
X18887Y93463D01*
X18961Y93485D01*
X19021Y93505D01*
X19066Y93524D01*
X19101Y93543D01*
X19131Y93566D01*
X19158Y93593D01*
X19179Y93623D01*
X19196Y93655D01*
X19208Y93689D01*
X19215Y93724D01*
X19218Y93762D01*
X19216Y93796D01*
X19210Y93828D01*
X19200Y93860D01*
X19186Y93890D01*
X19169Y93918D01*
X19148Y93944D01*
X19125Y93967D01*
X19099Y93988D01*
X19077Y94003D01*
X19051Y94016D01*
X19021Y94028D01*
X18988Y94040D01*
X18952Y94049D01*
X18914Y94055D01*
X18876Y94059D01*
X18836Y94061D01*
X18777Y94058D01*
X18721Y94052D01*
X18669Y94041D01*
X18621Y94025D01*
X18578Y94006D01*
X18541Y93984D01*
X18510Y93959D01*
X18485Y93930D01*
X18465Y93898D01*
X18448Y93860D01*
X18435Y93817D01*
X18425Y93770D01*
X18597Y93746D01*
X18605Y93784D01*
X18619Y93817D01*
X18639Y93846D01*
X18664Y93871D01*
X18695Y93891D01*
X18732Y93905D01*
X18775Y93913D01*
X18823Y93916D01*
X18879Y93914D01*
X18927Y93906D01*
X18966Y93893D01*
X18996Y93876D01*
X19019Y93855D01*
X19035Y93833D01*
X19045Y93808D01*
X19048Y93782D01*
X19046Y93766D01*
X19042Y93750D01*
X19036Y93735D01*
X19026Y93721D01*
X19014Y93707D01*
X18999Y93695D01*
X18980Y93684D01*
X18959Y93674D01*
X18939Y93667D01*
X18907Y93658D01*
X18862Y93645D01*
X18804Y93629D01*
X18717Y93605D01*
X18645Y93584D01*
X18587Y93564D01*
X18543Y93547D01*
X18508Y93530D01*
X18478Y93508D01*
X18451Y93484D01*
X18428Y93455D01*
X18409Y93423D01*
X18396Y93387D01*
X18388Y93348D01*
X18386Y93305D01*
X18389Y93261D01*
X18398Y93219D01*
X18414Y93179D01*
X18437Y93139D01*
X18465Y93103D01*
X18500Y93070D01*
X18539Y93042D01*
X18585Y93019D01*
X18635Y93000D01*
X18688Y92987D01*
X18744Y92979D01*
X18804Y92977D01*
X18899Y92982D01*
X18982Y92998D01*
X19053Y93024D01*
X19112Y93061D01*
X19160Y93108D01*
X19198Y93165D01*
X19228Y93232D01*
X19247Y93310D01*
X19247Y93310D01*
X18247Y93310D02*
X18073Y93337D01*
X18062Y93288D01*
X18045Y93245D01*
X18022Y93208D01*
X17992Y93177D01*
X17955Y93152D01*
X17911Y93135D01*
X17861Y93125D01*
X17805Y93121D01*
X17748Y93124D01*
X17699Y93133D01*
X17658Y93149D01*
X17625Y93170D01*
X17599Y93196D01*
X17581Y93224D01*
X17570Y93254D01*
X17566Y93286D01*
X17569Y93314D01*
X17579Y93339D01*
X17595Y93361D01*
X17618Y93380D01*
X17643Y93392D01*
X17681Y93406D01*
X17733Y93422D01*
X17798Y93439D01*
X17887Y93463D01*
X17961Y93485D01*
X18021Y93505D01*
X18066Y93524D01*
X18101Y93543D01*
X18131Y93566D01*
X18157Y93593D01*
X18179Y93623D01*
X18196Y93655D01*
X18208Y93689D01*
X18215Y93724D01*
X18218Y93762D01*
X18216Y93796D01*
X18210Y93828D01*
X18200Y93860D01*
X18186Y93890D01*
X18169Y93918D01*
X18148Y93944D01*
X18125Y93967D01*
X18099Y93988D01*
X18077Y94003D01*
X18051Y94016D01*
X18021Y94028D01*
X17988Y94040D01*
X17952Y94049D01*
X17914Y94055D01*
X17876Y94059D01*
X17836Y94061D01*
X17777Y94058D01*
X17721Y94052D01*
X17669Y94041D01*
X17621Y94025D01*
X17578Y94006D01*
X17541Y93984D01*
X17510Y93959D01*
X17485Y93930D01*
X17465Y93898D01*
X17448Y93860D01*
X17435Y93817D01*
X17425Y93770D01*
X17597Y93746D01*
X17605Y93784D01*
X17619Y93817D01*
X17639Y93846D01*
X17664Y93871D01*
X17695Y93891D01*
X17732Y93905D01*
X17775Y93913D01*
X17823Y93916D01*
X17879Y93914D01*
X17927Y93906D01*
X17966Y93893D01*
X17996Y93876D01*
X18019Y93855D01*
X18035Y93833D01*
X18044Y93808D01*
X18048Y93782D01*
X18046Y93766D01*
X18042Y93750D01*
X18036Y93735D01*
X18026Y93721D01*
X18014Y93707D01*
X17999Y93695D01*
X17980Y93684D01*
X17959Y93674D01*
X17939Y93667D01*
X17907Y93658D01*
X17862Y93645D01*
X17804Y93629D01*
X17717Y93605D01*
X17645Y93584D01*
X17587Y93564D01*
X17543Y93547D01*
X17508Y93530D01*
X17477Y93508D01*
X17451Y93484D01*
X17428Y93455D01*
X17409Y93423D01*
X17396Y93387D01*
X17388Y93348D01*
X17386Y93305D01*
X17389Y93261D01*
X17398Y93219D01*
X17414Y93179D01*
X17437Y93139D01*
X17465Y93103D01*
X17499Y93070D01*
X17539Y93042D01*
X17585Y93019D01*
X17635Y93000D01*
X17688Y92987D01*
X17744Y92979D01*
X17804Y92977D01*
X17899Y92982D01*
X17982Y92998D01*
X18053Y93024D01*
X18112Y93061D01*
X18160Y93108D01*
X18198Y93165D01*
X18227Y93232D01*
X18247Y93310D01*
X18247Y93310D01*
G37*
M02*