<?xml version="1.0" encoding="utf-8" ?>
<svg baseProfile="tiny" height="434.983237792" version="1.2" width="275.53333854" xmlns="http://www.w3.org/2000/svg" xmlns:ev="http://www.w3.org/2001/xml-events" xmlns:xlink="http://www.w3.org/1999/xlink"><defs /><g id="paths" stroke="blue"><path d="M 270.427078823,430.089930825 L 270.337787486,428.918577311 L 270.281803236,427.711330096 L 270.255228433,426.47239863 L 270.253442606,425.206088031 L 270.272590637,423.916788456 L 270.307315046,422.608631402 L 270.354086698,421.286056631 L 270.408299296,419.953241703 L 270.464992208,418.614583862 L 270.520622127,417.274327989 L 270.570228425,415.936694163 L 270.609559133,414.606072542 L 270.634362282,413.286761157 L 270.640031573,411.982926937 L 270.622315038,410.699009646 L 270.576960709,409.439190385 L 270.499007955,408.207852226 L 270.384559139,407.009222334 L 270.229348119,405.847623544 L 270.028456785,404.727371603 L 269.949441039,404.433737752 L 269.855543404,404.136344452 L 269.748535532,403.836403514 L 269.628403252,403.535013364 L 269.495897743,403.233545261 L 269.351685148,402.933037395 L 269.196119798,402.634761811 L 269.030307203,402.339923236 L 268.854204845,402.04969096 L 268.66924422,401.76530514 L 268.475425327,401.487974044 L 268.273811159,401.218820901 L 268.064401715,400.959064608 L 267.848245815,400.710005559 L 267.626094639,400.472706746 L 267.398259999,400.248415413 L 267.165464729,400.038371717 L 266.928403318,399.843734321 L 266.687826946,399.665757553 L 266.443693093,399.5055611 L 266.279269475,399.413226063 L 266.097511999,399.330277246 L 265.892000193,399.256183154 L 265.656724609,399.190281187 L 265.385307292,399.132064653 L 265.071015961,399.080789457 L 264.707826994,399.035934734 L 264.289348264,398.996887491 L 263.809244339,398.963013476 L 263.260740415,398.93374576 L 262.638181375,398.908446548 L 261.934480605,398.886545368 L 261.143968813,398.867344187 L 260.259913717,398.850368203 L 259.275937363,398.834958361 L 258.18601613,398.820466235 L 256.98304923,398.806363873 L 255.661409892,398.791974504 L 252.636134376,398.760013875 L 240.554166167,398.760013875 L 239.879520514,392.116525848 L 239.322866985,386.832395662 L 238.731134716,381.629754451 L 238.097945755,376.503297883 L 237.416213488,371.448061786 L 236.679914293,366.458022538 L 235.882670218,361.52857384 L 235.01774898,356.653692069 L 234.078418294,351.828062266 L 233.058654539,347.0467238 L 231.951725432,342.30365305 L 230.751253021,337.594243716 L 229.450859352,332.912472177 L 228.043812142,328.253377803 L 226.523733439,323.611291302 L 224.88389096,318.980897715 L 223.118261081,314.356882079 L 221.219757191,309.733929437 L 219.182709997,305.106724825 L 216.999678554,300.469244624 L 214.664993572,295.816882533 L 214.360977831,295.241449476 L 213.987158942,294.553693587 L 213.547434544,293.759992819 L 213.045702273,292.866725125 L 212.486214097,291.880622786 L 211.872513325,290.808063758 L 211.208497593,289.65507166 L 210.49841887,288.428733107 L 209.746174794,287.135071721 L 208.955663002,285.780465455 L 208.130781133,284.371646592 L 207.275426823,282.914638754 L 206.393497711,281.416174223 L 205.489245764,279.882276623 L 204.566214291,278.320032567 L 203.628655259,276.735465676 L 202.680111975,275.135308235 L 201.725190738,273.525229534 L 200.767080525,271.912670519 L 199.810387635,270.303300479 L 197.655348318,266.669993481 L 195.671450729,263.301725847 L 193.850190931,260.181135372 L 192.182710657,257.291568514 L 190.660505969,254.616371729 L 189.275427263,252.138182813 L 188.018970601,249.840348224 L 186.881923385,247.705860087 L 185.856490339,245.717710529 L 184.933813196,243.859600338 L 184.105033689,242.113812979 L 183.362356541,240.463694909 L 182.696569156,238.892592586 L 182.099521927,237.383143804 L 181.562710916,235.919049351 L 181.077632188,234.482947024 L 180.635073144,233.057828949 L 180.227592839,231.627041582 L 179.845624344,230.173931381 L 179.481372384,228.681136142 L 179.292159791,227.617789712 L 179.116766094,226.558340919 L 178.956254287,225.502435433 L 178.8109787,224.450427584 L 178.682710987,223.403380366 L 178.571805477,222.360585116 L 178.478970834,221.323459157 L 178.40597871,220.292002489 L 178.352829105,219.266569443 L 178.321293673,218.24751435 L 178.311726744,217.23519154 L 178.32519131,216.229955344 L 178.362396034,215.232160093 L 178.425112568,214.242514448 L 178.513340912,213.261018409 L 178.628498389,212.288380638 L 178.771293662,211.324601134 L 178.94278972,210.370388558 L 179.144049558,209.425742912 L 179.375781836,208.491727187 L 179.720545607,207.27849887 L 180.097553472,206.091136694 L 180.509994406,204.922554046 L 180.96212038,203.764246988 L 181.457474698,202.608065914 L 182.000309331,201.44692421 L 182.594521915,200.272317939 L 183.243655757,199.076451827 L 183.951962826,197.851530597 L 184.722986429,196.589404643 L 185.560624204,195.282278691 L 186.468773788,193.922711795 L 187.45168715,192.502200019 L 188.512553266,191.012948087 L 189.655978435,189.447160723 L 190.885505964,187.797042654 L 192.20467916,186.054458444 L 193.618104322,184.211924631 L 195.128970427,182.260979797 L 196.741529443,180.193814493 L 199.383773473,176.782672844 L 201.871883648,173.497672924 L 204.214009575,170.326427333 L 206.417592198,167.255783313 L 208.491135455,164.27267315 L 210.441725958,161.364326764 L 212.277513315,158.517988251 L 214.006647131,155.720547375 L 215.636568351,152.958893899 L 217.17507225,150.220626249 L 218.630308435,147.492279859 L 220.010072181,144.761453154 L 221.322158763,142.014681568 L 222.574363457,139.239563526 L 223.774481538,136.422648634 L 224.930308281,133.551492798 L 226.049993293,130.612673973 L 227.140977519,127.593776409 L 228.211410563,124.481704044 L 229.269087703,121.263304122 L 230.260859332,118.061571917 L 231.218260883,114.730863337 L 232.139875034,111.280759485 L 233.0235758,107.722202091 L 233.867591527,104.06516911 L 234.670504894,100.320233768 L 235.430189914,96.4973598459 L 236.144874936,92.6075315945 L 236.812788306,88.6602875965 L 237.431804039,84.6662719461 L 238.000859143,80.6361003911 L 238.517473303,76.5797225375 L 238.979874867,72.506691141 L 239.386646511,68.428344784 L 239.736016581,64.357085041 L 240.025504763,60.299998526 L 240.254048064,56.26771516 L 240.419520501,52.270864864 L 240.52015042,48.323620866 L 240.554166167,44.429526473 L 240.554166167,38.462597485 L 252.82074067,38.462597485 L 254.380504412,38.462597485 L 255.809874456,38.459054178 L 257.11486025,38.451967564 L 258.302236599,38.44488095 L 259.377984605,38.437794336 L 260.348496392,38.423621108 L 261.220149914,38.405904573 L 261.999323123,38.384644731 L 262.692025468,38.359841582 L 263.305386083,38.331495126 L 263.845031739,38.296062056 L 264.317708893,38.257085679 L 264.729795497,38.214565995 L 265.086960843,38.16141639 L 265.396291544,38.104723478 L 265.664165553,38.040943952 L 265.896252162,37.970077812 L 266.09926948,37.895668365 L 266.279637979,37.80708569 L 266.443693093,37.714959708 L 266.687826946,37.555510893 L 266.928403318,37.378345543 L 267.165464729,37.183463658 L 267.398259999,36.974408545 L 267.626094639,36.747636897 L 267.848245815,36.510235328 L 268.064401715,36.262203838 L 268.273811159,36.003542427 L 268.475425327,35.734251095 L 268.66924422,35.454329842 L 268.854204845,35.170865282 L 269.030307203,34.880314108 L 269.196119798,34.586219627 L 269.351685148,34.288581839 L 269.495897743,33.987400744 L 269.628403252,33.686219649 L 269.748535532,33.385038554 L 269.855543404,33.083857459 L 269.949441039,32.786219671 L 270.028456785,32.49212519 L 270.109244185,31.124408688 L 270.179401663,29.760235493 L 270.239637882,28.399605605 L 270.290661503,27.038975717 L 270.333181187,25.681889136 L 270.367905596,24.328345862 L 270.39554339,22.971259281 L 270.416803232,21.6141727 L 270.432393783,20.257086119 L 270.442669373,18.892912924 L 270.449033153,17.528739729 L 270.451881972,16.15747992 L 270.451527641,14.779133497 L 270.449033153,13.397243767 L 270.445149688,12.004724116 L 270.435228429,9.194881665 L 270.43097646,7.770472251 L 270.428141815,6.338976223 L 270.427078823,4.893306967 L 5.10676286729,4.893306967 L 5.10578845787,6.338976223 L 5.1028156233,7.770472251 L 5.09854593836,9.194881665 L 5.08881247403,12.004724116 L 5.08481208043,13.397243767 L 5.08232467892,14.779133497 L 5.08200223798,16.15747992 L 5.0845959387,17.528739729 L 5.09081444249,18.892912924 L 5.10130263121,20.257086119 L 5.11676562296,21.6141727 L 5.13795814212,22.971259281 L 5.1655321572,24.328345862 L 5.20024239257,25.681889136 L 5.24274081673,27.038975717 L 5.29372191784,28.399605605 L 5.35389790062,29.760235493 L 5.42397388316,31.124408688 L 5.50469395993,32.49212519 L 5.58400734382,32.786219671 L 5.677543562,33.083857459 L 5.78470733891,33.385038554 L 5.90489631235,33.686219649 L 6.03740890754,33.987400744 L 6.18171717173,34.288581839 L 6.3371018136,34.586219627 L 6.5030313371,34.880314108 L 6.67885731705,35.170865282 L 6.86398093458,35.454329842 L 7.05775376449,35.734251095 L 7.25958761782,36.003542427 L 7.46882698278,36.262203838 L 7.68487304049,36.510235328 L 7.9071446886,36.747636897 L 8.13492263579,36.974408545 L 8.36773562223,37.183463658 L 8.6048218369,37.378345543 L 8.84562498062,37.555510893 L 9.08951434474,37.714959708 L 9.25356945884,37.80708569 L 9.43399110797,37.895668365 L 9.63709346521,37.970077812 L 9.86928991623,38.040943952 L 10.1368450278,38.104723478 L 10.446211162,38.16141639 L 10.8036564288,38.214565995 L 11.2154595684,38.257085679 L 11.6881402655,38.296062056 L 12.2278532444,38.331495126 L 12.8410933869,38.359841582 L 13.5340579369,38.384644731 L 14.3132665793,38.405904573 L 15.1849201013,38.423621108 L 16.1554318886,38.437794336 L 17.231148004,38.44488095 L 18.418329471,38.451967564 L 19.7234357383,38.459054178 L 21.1527384593,38.462597485 L 22.7125730669,38.462597485 L 34.9792503261,38.462597485 L 34.9792503261,44.429526473 L 35.0131952071,48.323620866 L 35.1137542598,52.270864864 L 35.2791912636,56.26771516 L 35.5077026753,60.299998526 L 35.7974353454,64.357085041 L 36.1465928172,68.428344784 L 36.553332571,72.506691141 L 37.0159786227,76.5797225375 L 37.5325963266,80.6361003911 L 38.1014352891,84.6662719461 L 38.7206671637,88.6602875965 L 39.3884706907,92.6075315945 L 40.1031238229,96.4973598459 L 40.8629505759,100.320233768 L 41.6655060681,104.06516911 L 42.5098796695,107.722202091 L 43.3935804353,111.280759485 L 44.3151910427,114.730863337 L 45.2725961374,118.061571917 L 46.264013436,121.263304122 L 47.3216870322,124.481704044 L 48.3921236202,127.593776409 L 49.4834621762,130.612673973 L 50.6031436449,133.551492798 L 51.7589703883,136.422648634 L 52.9590920125,139.239563526 L 54.211293163,142.014681568 L 55.5233797451,144.761453154 L 56.9031434909,147.492279859 L 58.3583796758,150.220626249 L 59.8972414492,152.958893899 L 61.5271591259,155.720547375 L 63.2562929419,158.517988251 L 65.0920838419,161.364326764 L 67.0426743454,164.27267315 L 69.1162176018,167.255783313 L 71.3201545558,170.326427333 L 73.6619261521,173.497672924 L 76.1503906582,176.782672844 L 78.7926346881,180.193814493 L 80.4048393731,182.260979797 L 81.9160598086,184.211924631 L 83.3291306402,186.054458444 L 84.648658167,187.797042654 L 85.8778313653,189.447160723 L 87.0212565342,191.012948087 L 88.08212265,192.502200019 L 89.0650360118,193.922711795 L 89.9731855959,195.282278691 L 90.8108233707,196.589404643 L 91.5818469739,197.851530597 L 92.2897997125,199.076451827 L 92.9389335549,200.272317939 L 93.5331461388,201.44692421 L 94.0756264405,202.608065914 L 94.5713350898,203.764246988 L 95.023461063,204.922554046 L 95.4359019978,206.091136694 L 95.8125555319,207.27849887 L 96.157319303,208.491727187 L 96.3890515808,209.425742912 L 96.5903114184,210.370388558 L 96.7618074772,211.324601134 L 96.9046027493,212.288380638 L 97.0201145575,213.261018409 L 97.1083429018,214.242514448 L 97.170705105,215.232160093 L 97.2082641592,216.229955344 L 97.2217287258,217.23519154 L 97.2121617969,218.24751435 L 97.1802720339,219.266569443 L 97.1274767596,220.292002489 L 97.0541303047,221.323459157 L 96.961649992,222.360585116 L 96.8507444829,223.403380366 L 96.7221224388,224.450427584 L 96.5772011825,225.502435433 L 96.4163350447,226.558340919 L 96.2409413482,227.617789712 L 96.0517287544,228.681136142 L 95.6874767948,230.173931381 L 95.3058626309,231.627041582 L 94.8980279952,233.057828949 L 94.4558232816,234.482947024 L 93.9703902226,235.919049351 L 93.4335792121,237.383143804 L 92.8365319826,238.892592586 L 92.171098928,240.463694909 L 91.4280674501,242.113812979 L 90.5996422735,243.859600338 L 89.6769651307,245.717710529 L 88.6511777542,247.705860087 L 87.5144848686,249.840348224 L 86.2576738757,252.138182813 L 84.8725951694,254.616371729 L 83.3507448129,257.291568514 L 81.6832645387,260.181135372 L 79.86165041,263.301725847 L 77.8777528207,266.669993481 L 75.723067834,270.303300479 L 74.7660206133,271.912670519 L 73.8082647312,273.525229534 L 72.852989164,275.135308235 L 71.9048002108,276.735465676 L 70.9672411786,278.320032567 L 70.0442097051,279.882276623 L 69.1399577587,281.416174223 L 68.2580286464,282.914638754 L 67.4026743366,284.371646592 L 66.577792467,285.780465455 L 65.7872806753,287.135071721 L 65.0350365992,288.428733107 L 64.3253086638,289.65507166 L 63.661292932,290.808063758 L 63.0475957029,291.880622786 L 62.4881039843,292.866725125 L 61.9863717131,293.759992819 L 61.5466508577,294.553693587 L 61.1728284259,295.241449476 L 60.8688162286,295.816882533 L 58.534127703,300.469244624 L 56.3514541343,305.106724825 L 54.3140526093,309.733929437 L 52.4155487187,314.356882079 L 50.6499188406,318.980897715 L 49.010076361,323.611291302 L 47.489997658,328.253377803 L 46.0829504483,332.912472177 L 44.7821989053,337.594243716 L 43.581730037,342.30365305 L 42.4748009302,347.0467238 L 41.4550336323,351.828062266 L 40.5157029466,356.653692069 L 39.650817141,361.52857384 L 38.8533959006,366.458022538 L 38.117096706,371.448061786 L 37.4355097148,376.503297883 L 36.8020372894,381.629754451 L 36.2102306109,386.832395662 L 35.6536869237,392.116525848 L 34.9792503261,398.760013875 L 22.8971403852,398.760013875 L 19.8717621127,398.791974504 L 18.5501086017,398.806363873 L 17.3473649303,398.820466235 L 16.257234642,398.834958361 L 15.2733291542,398.850368203 L 14.3892386246,398.867344187 L 13.5986169904,398.886545368 L 12.8951642517,398.908446548 L 12.2724670228,398.93374576 L 11.7241756977,398.963013476 L 11.243986733,398.996887491 L 10.8254867433,399.035934734 L 10.4623332088,399.080789457 L 10.1481481771,399.132064653 L 9.87658912865,399.190281187 L 9.64127456747,399.256183154 L 9.43594347013,399.330277246 L 9.25417182103,399.413226063 L 9.08951434474,399.5055611 L 8.84562498062,399.665757553 L 8.6048218369,399.843734321 L 8.36773562223,400.038371717 L 8.13492263579,400.248415413 L 7.9071446886,400.472706746 L 7.68487304049,400.710005559 L 7.46882698278,400.959064608 L 7.25958761782,401.218820901 L 7.05775376449,401.487974044 L 6.86398093458,401.76530514 L 6.67885731705,402.04969096 L 6.5030313371,402.339923236 L 6.3371018136,402.634761811 L 6.18171717173,402.933037395 L 6.03740890754,403.233545261 L 5.90489631235,403.535013364 L 5.78470733891,403.836403514 L 5.677543562,404.136344452 L 5.58400734382,404.433737752 L 5.50469395993,404.727371603 L 5.30394081523,405.847623544 L 5.14855617336,407.009222334 L 5.03420656985,408.207852226 L 4.95645932766,409.439190385 L 4.91098806893,410.699009646 L 4.893306967,411.982926937 L 4.89904003773,413.286761157 L 4.92385735995,414.606072542 L 4.96326956372,415.936694163 L 5.01301050738,417.274327989 L 5.06853767138,418.614583862 L 5.12552467786,419.953241703 L 5.17959199937,421.286056631 L 5.22635656516,422.608631402 L 5.26139632808,423.916788456 L 5.28026443786,425.206088031 L 5.27863805994,426.47239863 L 5.25214829681,427.711330096 L 5.19629869188,428.918577311 L 5.10676286729,430.089930825 L 270.427078823,430.089930825 Z" fill-opacity="0" stroke-linejoin="round" stroke-width="1.0" /></g><g fill="red" id="holes"><circle cx="89.9321" cy="384.0272" r="1.125" stroke-width="0.0" /><circle cx="153.7116" cy="359.224" r="1.125" stroke-width="0.0" /><circle cx="160.7982" cy="313.161" r="1.125" stroke-width="0.0" /><circle cx="196.2313" cy="384.0272" r="1.125" stroke-width="0.0" /><circle cx="139.5384" cy="376.9405" r="1.125" stroke-width="0.0" /><circle cx="132.4518" cy="281.2713" r="1.125" stroke-width="0.0" /><circle cx="174.9715" cy="306.0744" r="1.125" stroke-width="0.0" /><circle cx="150.1683" cy="192.6886" r="1.125" stroke-width="0.0" /><circle cx="185.6014" cy="121.8224" r="1.125" stroke-width="0.0" /><circle cx="86.3888" cy="75.7594" r="1.125" stroke-width="0.0" /><circle cx="160.7982" cy="384.0272" r="1.125" stroke-width="0.0" /><circle cx="167.8848" cy="352.1374" r="1.125" stroke-width="0.0" /><circle cx="125.3652" cy="313.161" r="1.125" stroke-width="0.0" /><circle cx="192.688" cy="75.7594" r="1.125" stroke-width="0.0" /><circle cx="121.8218" cy="146.6256" r="1.125" stroke-width="0.0" /><circle cx="125.3652" cy="384.0272" r="1.125" stroke-width="0.0" /><circle cx="150.1683" cy="121.8224" r="1.125" stroke-width="0.0" /><circle cx="203.3179" cy="352.1374" r="1.125" stroke-width="0.0" /><circle cx="107.6486" cy="153.7122" r="1.125" stroke-width="0.0" /><circle cx="189.1447" cy="359.224" r="1.125" stroke-width="0.0" /><circle cx="178.5148" cy="82.8461" r="1.125" stroke-width="0.0" /><circle cx="206.8612" cy="58.0429" r="1.125" stroke-width="0.0" /><circle cx="171.4281" cy="128.9091" r="1.125" stroke-width="0.0" /><circle cx="79.3022" cy="50.9563" r="1.125" stroke-width="0.0" /><circle cx="100.562" cy="58.0429" r="1.125" stroke-width="0.0" /><circle cx="135.9951" cy="128.9091" r="1.125" stroke-width="0.0" /><circle cx="135.9951" cy="199.7752" r="1.125" stroke-width="0.0" /><circle cx="185.6014" cy="50.9563" r="1.125" stroke-width="0.0" /><circle cx="139.5384" cy="235.2083" r="1.125" stroke-width="0.0" /><circle cx="82.8455" cy="359.224" r="1.125" stroke-width="0.0" /><circle cx="153.7116" cy="288.3579" r="1.125" stroke-width="0.0" /><circle cx="143.0817" cy="153.7122" r="1.125" stroke-width="0.0" /><circle cx="174.9715" cy="376.9405" r="1.125" stroke-width="0.0" /><circle cx="104.1053" cy="306.0744" r="1.125" stroke-width="0.0" /><circle cx="171.4281" cy="58.0429" r="1.125" stroke-width="0.0" /><circle cx="210.4045" cy="376.9405" r="1.125" stroke-width="0.0" /><circle cx="114.7352" cy="50.9563" r="1.125" stroke-width="0.0" /><circle cx="125.3652" cy="242.2949" r="1.125" stroke-width="0.0" /><circle cx="89.9321" cy="313.161" r="1.125" stroke-width="0.0" /><circle cx="114.7352" cy="121.8224" r="1.125" stroke-width="0.0" /><circle cx="97.0187" cy="352.1374" r="1.125" stroke-width="0.0" /><circle cx="167.8848" cy="281.2713" r="1.125" stroke-width="0.0" /><circle cx="221.0344" cy="50.9563" r="1.125" stroke-width="0.0" /><circle cx="121.8218" cy="75.7594" r="1.125" stroke-width="0.0" /><circle cx="100.562" cy="128.9091" r="1.125" stroke-width="0.0" /><circle cx="157.2549" cy="146.6256" r="1.125" stroke-width="0.0" /><circle cx="65.1289" cy="58.0429" r="1.125" stroke-width="0.0" /><circle cx="54.499" cy="384.0272" r="1.125" stroke-width="0.0" /><circle cx="157.2549" cy="75.7594" r="1.125" stroke-width="0.0" /><circle cx="118.2785" cy="359.224" r="1.125" stroke-width="0.0" /><circle cx="132.4518" cy="352.1374" r="1.125" stroke-width="0.0" /><circle cx="118.2785" cy="288.3579" r="1.125" stroke-width="0.0" /><circle cx="143.0817" cy="82.8461" r="1.125" stroke-width="0.0" /><circle cx="139.5384" cy="306.0744" r="1.125" stroke-width="0.0" /><circle cx="72.2155" cy="82.8461" r="1.125" stroke-width="0.0" /><circle cx="150.1683" cy="50.9563" r="1.125" stroke-width="0.0" /><circle cx="135.9951" cy="58.0429" r="1.125" stroke-width="0.0" /><circle cx="68.6722" cy="376.9405" r="1.125" stroke-width="0.0" /><circle cx="104.1053" cy="376.9405" r="1.125" stroke-width="0.0" /><circle cx="107.6486" cy="82.8461" r="1.125" stroke-width="0.0" /><circle cx="119.7667" cy="421.2319" r="1.8071" stroke-width="0.0" /><circle cx="128.7667" cy="421.2319" r="1.8071" stroke-width="0.0" /><circle cx="137.7667" cy="421.2319" r="1.8071" stroke-width="0.0" /><circle cx="146.7667" cy="421.2319" r="1.8071" stroke-width="0.0" /><circle cx="155.7667" cy="421.2319" r="1.8071" stroke-width="0.0" /><circle cx="22.6093" cy="22.6098" r="5.6693" stroke-width="0.0" /><circle cx="252.9242" cy="412.3736" r="5.6693" stroke-width="0.0" /><circle cx="252.9242" cy="22.6098" r="5.6693" stroke-width="0.0" /><circle cx="22.6093" cy="412.3736" r="5.6693" stroke-width="0.0" /></g><g id="rulers" stroke="black" /></svg>