<?xml version="1.0" encoding="UTF-8" standalone="no"?>
<svg
   xmlns:dc="http://purl.org/dc/elements/1.1/"
   xmlns:cc="http://creativecommons.org/ns#"
   xmlns:rdf="http://www.w3.org/1999/02/22-rdf-syntax-ns#"
   xmlns:svg="http://www.w3.org/2000/svg"
   xmlns="http://www.w3.org/2000/svg"
   xmlns:sodipodi="http://sodipodi.sourceforge.net/DTD/sodipodi-0.dtd"
   xmlns:inkscape="http://www.inkscape.org/namespaces/inkscape"
   id="svg40861"
   version="1.1"
   viewBox="0 0 210 297"
   height="297mm"
   width="210mm"
   sodipodi:docname="hourglass-panel.svg"
   inkscape:version="0.92.1 r15371">
  <sodipodi:namedview
     pagecolor="#ffffff"
     bordercolor="#666666"
     borderopacity="1"
     objecttolerance="10"
     gridtolerance="10"
     guidetolerance="10"
     inkscape:pageopacity="0"
     inkscape:pageshadow="2"
     inkscape:window-width="1920"
     inkscape:window-height="1027"
     id="namedview4491"
     showgrid="false"
     inkscape:zoom="3.0075196"
     inkscape:cx="106.97209"
     inkscape:cy="75.906745"
     inkscape:window-x="1912"
     inkscape:window-y="-8"
     inkscape:window-maximized="1"
     inkscape:current-layer="svg40861"
     showguides="true"
     inkscape:guide-bbox="true"
     inkscape:document-units="mm">
    <sodipodi:guide
       position="80,5.0000958"
       orientation="0,1"
       id="guide42057"
       inkscape:locked="false"
       inkscape:label="Mouting hole Y lower"
       inkscape:color="rgb(0,0,255)" />
    <sodipodi:guide
       position="5.0000958,-5"
       orientation="1,0"
       id="guide42059"
       inkscape:locked="false"
       inkscape:label="Mouting hole X left"
       inkscape:color="rgb(0,0,255)" />
    <sodipodi:guide
       position="70,-5"
       orientation="1,0"
       id="guide42061"
       inkscape:locked="false"
       inkscape:label="Mouting hole X right"
       inkscape:color="rgb(0,0,255)" />
    <sodipodi:guide
       position="80,115.00009"
       orientation="0,1"
       id="guide42063"
       inkscape:locked="false"
       inkscape:label="Mouting hole Y upper"
       inkscape:color="rgb(0,0,255)" />
    <sodipodi:guide
       position="37.5,-5"
       orientation="1,0"
       id="guide42085"
       inkscape:locked="false"
       inkscape:label="Center X"
       inkscape:color="rgb(0,0,255)" />
    <sodipodi:guide
       position="80,2.5000479"
       orientation="0,1"
       id="guide42087"
       inkscape:locked="false"
       inkscape:label="Connector cutout center horizontal"
       inkscape:color="rgb(0,0,255)" />
  </sodipodi:namedview>
  <title
     id="title41469">Hourglass panel</title>
  <defs
     id="defs40855" />
  <metadata
     id="metadata40858">
    <rdf:RDF>
      <cc:Work
         rdf:about="">
        <dc:format>image/svg+xml</dc:format>
        <dc:type
           rdf:resource="http://purl.org/dc/dcmitype/StillImage" />
        <dc:title>Hourglass panel</dc:title>
      </cc:Work>
    </rdf:RDF>
  </metadata>
  <g
     id="layer1"
     transform="matrix(0.37469834,0,0,0.42105239,3.370293e-6,171.94739)">
    <path
       style="fill:#000000;fill-opacity:1;stroke-width:0.43513814"
       d="m 0,668.97656 v 453.54294 h 0.22851562 c 37.75716138,0 75.51432338,0 113.27148438,0 v -18.8984 h 56.69336 v 18.8984 c 37.68099,0 75.36198,0 113.04297,0 h 0.22851 V 668.97656 h -0.22851 c -97.05045,0 -194.148368,0 -283.00781438,0 z m 18.898438,12.28321 c 3.65221,4.9e-4 6.612788,2.96107 6.613281,6.61328 5.84e-4,3.65297 -2.96031,6.61474 -6.613281,6.61523 -3.653734,5.9e-4 -6.615819,-2.9615 -6.615235,-6.61523 4.93e-4,-3.65297 2.962262,-6.61387 6.615235,-6.61328 z m 245.667972,0 c 3.65297,-5.8e-4 6.61474,2.96031 6.61523,6.61328 5.8e-4,3.65373 -2.9615,6.61581 -6.61523,6.61523 -3.65298,-4.9e-4 -6.61387,-2.96225 -6.61329,-6.61523 4.9e-4,-3.65221 2.96108,-6.61279 6.61329,-6.61328 z M 18.898438,704.7832 c 0.04494,1e-5 0.06414,0 0.109374,0 h 13.083985 v 6.36524 c 0,27.45967 4.868379,59.67267 12.037109,81.95508 7.494042,23.29363 15.342261,38.12083 34.697266,62.85937 11.837327,15.12988 16.1746,21.44604 18.523437,30.18555 1.758426,6.60669 1.27845,13.96466 -0.113281,21.53515 -2.548825,10.79683 -5.731044,17.57788 -21.683594,44.39649 -6.790845,11.4164 -13.939656,23.53619 -15.84375,27.21484 C 42.550064,1012.445 36.660637,1044.1333 32.8125,1082.0137 l -0.720703,7.0879 H 19.205078 c -0.126739,0 -0.182195,0 -0.30664,0 z m 232.474612,0 h 13.08398 c 0.0452,0 0.0644,1e-5 0.10938,0 v 384.3223 c -0.12445,-0 -0.17991,-0 -0.30664,-0 h -12.88672 l -0.72071,-7.0879 c -3.84813,-37.8804 -9.73561,-69.5687 -26.89453,-102.71878 -1.90408,-3.67865 -9.05487,-15.79844 -15.8457,-27.21484 -15.95255,-26.81861 -19.13476,-33.59966 -21.68359,-44.39649 -1.39173,-7.57049 -1.87171,-14.92846 -0.11329,-21.53515 2.34884,-8.73951 6.68611,-15.05567 18.52344,-30.18555 19.35501,-24.73854 27.20127,-39.56573 34.69531,-62.85937 7.16874,-22.28241 12.03907,-54.49541 12.03907,-81.95508 z M 18.898438,1097.0078 c 3.652218,5e-4 6.612799,2.9611 6.613281,6.6133 5.67e-4,3.653 -2.960321,6.6147 -6.613281,6.6152 -3.653723,6e-4 -6.615802,-2.9615 -6.615235,-6.6152 4.82e-4,-3.653 2.962254,-6.6139 6.615235,-6.6133 z m 245.667972,0 c 3.65298,-6e-4 6.61475,2.9603 6.61523,6.6133 5.7e-4,3.6537 -2.96151,6.6158 -6.61523,6.6152 -3.65296,-5e-4 -6.61386,-2.9622 -6.61329,-6.6152 4.8e-4,-3.6522 2.96107,-6.6128 6.61329,-6.6133 z"
       transform="matrix(0.70612358,0,0,0.62838578,-8.9946836e-6,-408.37529)"
       id="path41417"
       inkscape:connector-curvature="0"
       sodipodi:nodetypes="ccccccccccccccccccccccccscsscccscccccccsccccccsccccsccccccccccc" />
  </g>
</svg>
