<?xml version="1.0" encoding="UTF-8" standalone="no"?>
<svg
   xmlns:dc="http://purl.org/dc/elements/1.1/"
   xmlns:cc="http://creativecommons.org/ns#"
   xmlns:rdf="http://www.w3.org/1999/02/22-rdf-syntax-ns#"
   xmlns:svg="http://www.w3.org/2000/svg"
   xmlns="http://www.w3.org/2000/svg"
   xmlns:sodipodi="http://sodipodi.sourceforge.net/DTD/sodipodi-0.dtd"
   xmlns:inkscape="http://www.inkscape.org/namespaces/inkscape"
   id="svg40861"
   version="1.1"
   viewBox="0 0 210 297"
   height="297mm"
   width="210mm"
   sodipodi:docname="hourglass-panel-glass.svg"
   inkscape:version="0.92.1 r15371">
  <sodipodi:namedview
     pagecolor="#ffffff"
     bordercolor="#666666"
     borderopacity="1"
     objecttolerance="10"
     gridtolerance="10"
     guidetolerance="10"
     inkscape:pageopacity="0"
     inkscape:pageshadow="2"
     inkscape:window-width="1920"
     inkscape:window-height="1027"
     id="namedview4491"
     showgrid="false"
     inkscape:zoom="1.0633188"
     inkscape:cx="187.82931"
     inkscape:cy="126.80038"
     inkscape:window-x="1912"
     inkscape:window-y="-8"
     inkscape:window-maximized="1"
     inkscape:current-layer="svg40861"
     showguides="true"
     inkscape:guide-bbox="true">
    <sodipodi:guide
       position="80,5.0000958"
       orientation="0,1"
       id="guide42057"
       inkscape:locked="false"
       inkscape:label="Mouting hole Y lower"
       inkscape:color="rgb(0,0,255)" />
    <sodipodi:guide
       position="5.0000958,-5"
       orientation="1,0"
       id="guide42059"
       inkscape:locked="false"
       inkscape:label="Mouting hole X left"
       inkscape:color="rgb(0,0,255)" />
    <sodipodi:guide
       position="70,-5"
       orientation="1,0"
       id="guide42061"
       inkscape:locked="false"
       inkscape:label="Mouting hole X right"
       inkscape:color="rgb(0,0,255)" />
    <sodipodi:guide
       position="80,115.00009"
       orientation="0,1"
       id="guide42063"
       inkscape:locked="false"
       inkscape:label="Mouting hole Y upper"
       inkscape:color="rgb(0,0,255)" />
    <sodipodi:guide
       position="37.5,-5"
       orientation="1,0"
       id="guide42085"
       inkscape:locked="false"
       inkscape:label="Center X"
       inkscape:color="rgb(0,0,255)" />
    <sodipodi:guide
       position="80,2.5000479"
       orientation="0,1"
       id="guide42087"
       inkscape:locked="false"
       inkscape:label="Connector cutout center horizontal"
       inkscape:color="rgb(0,0,255)" />
  </sodipodi:namedview>
  <title
     id="title41469">Hourglass glass</title>
  <defs
     id="defs40855" />
  <metadata
     id="metadata40858">
    <rdf:RDF>
      <cc:Work
         rdf:about="">
        <dc:format>image/svg+xml</dc:format>
        <dc:type
           rdf:resource="http://purl.org/dc/dcmitype/StillImage" />
        <dc:title>Hourglass glass</dc:title>
      </cc:Work>
    </rdf:RDF>
  </metadata>
  <g
     transform="matrix(0.37469834,0,0,0.42105239,-2.0195743e-6,171.94746)"
     id="layer1-0">
    <path
       style="fill:#000000;fill-opacity:1;stroke-width:0.43513814"
       d="M 0.22851562 668.97656 C 0.23039362 679.30526 0.039123362 688.65929 0.65234375 698.41797 C 1.1643567 700.48963 2.7325672 702.91341 4.4765625 703.98633 C 5.5999002 704.67741 7.4362408 704.7832 19.007812 704.7832 L 32.091797 704.7832 L 32.091797 711.14844 C 32.091797 738.60811 36.960176 770.82306 44.128906 793.10547 C 51.622948 816.39911 59.471167 831.2263 78.826172 855.96484 C 90.663499 871.09472 95.000772 877.40893 97.349609 886.14844 C 99.108035 892.75513 98.628059 900.1131 97.236328 907.68359 C 94.687503 918.48042 91.505284 925.26147 75.552734 952.08008 C 68.761889 963.49648 61.613078 975.61627 59.708984 979.29492 C 42.550064 1012.445 36.660637 1044.1352 32.8125 1082.0156 L 32.091797 1089.1016 L 19.205078 1089.1016 C 7.4968737 1089.2271 5.6009708 1089.2047 4.4765625 1089.8965 C 2.7325672 1090.9694 1.1643567 1093.3951 0.65234375 1095.4668 C -0.94724704 1103.2762 0.99543075 1114.328 0.22851562 1122.5195 L 113.38672 1122.5195 L 113.38672 1103.6211 L 170.07812 1103.6211 L 170.07812 1122.5195 L 283.23633 1122.5195 C 282.46941 1114.328 284.41209 1103.2763 282.8125 1095.4668 C 282.30049 1093.3951 280.73228 1090.9694 278.98828 1089.8965 C 277.86387 1089.2047 275.96797 1089.2271 264.25977 1089.1016 L 251.37305 1089.1016 L 250.65234 1082.0156 C 246.80421 1044.1352 240.91673 1012.445 223.75781 979.29492 C 221.85373 975.61627 214.70294 963.49648 207.91211 952.08008 C 191.95956 925.26147 188.77735 918.48042 186.22852 907.68359 C 184.83679 900.1131 184.35681 892.75513 186.11523 886.14844 C 188.46407 877.40893 192.80134 871.09472 204.63867 855.96484 C 223.99368 831.2263 231.83994 816.39911 239.33398 793.10547 C 246.50272 770.82306 251.37305 738.60811 251.37305 711.14844 L 251.37305 704.7832 L 264.45703 704.7832 C 276.0286 704.7832 277.86495 704.6774 278.98828 703.98633 C 280.73228 702.91341 282.30049 700.48963 282.8125 698.41797 C 283.42572 688.65929 283.23446 679.30526 283.23633 668.97656 L 0.22851562 668.97656 z M 18.898438 681.25977 C 22.550647 681.26026 25.511226 684.22084 25.511719 687.87305 C 25.512303 691.52602 22.551408 694.48779 18.898438 694.48828 C 15.244704 694.48887 12.282619 691.52678 12.283203 687.87305 C 12.283696 684.22008 15.245465 681.25918 18.898438 681.25977 z M 264.56641 681.25977 C 268.21938 681.25919 271.18115 684.22008 271.18164 687.87305 C 271.18222 691.52678 268.22014 694.48886 264.56641 694.48828 C 260.91344 694.48779 257.95255 691.52602 257.95312 687.87305 C 257.95361 684.22084 260.9142 681.26026 264.56641 681.25977 z M 18.898438 1097.0078 C 22.550655 1097.0083 25.511237 1099.9689 25.511719 1103.6211 C 25.512286 1107.2741 22.551397 1110.2358 18.898438 1110.2363 C 15.244715 1110.2369 12.282636 1107.2748 12.283203 1103.6211 C 12.283685 1099.9681 15.245457 1097.0072 18.898438 1097.0078 z M 264.56641 1097.0078 C 268.21939 1097.0072 271.18116 1099.9681 271.18164 1103.6211 C 271.18221 1107.2748 268.22013 1110.2369 264.56641 1110.2363 C 260.91345 1110.2358 257.95256 1107.2741 257.95312 1103.6211 C 257.9536 1099.9689 260.91419 1097.0083 264.56641 1097.0078 z "
       transform="matrix(0.70612358,0,0,0.62838578,5.3898672e-6,-408.37545)"
       id="path41417-0" />
  </g>
</svg>
